<svg width="68" height="46" viewBox="0 0 68 46" fill="none" xmlns="http://www.w3.org/2000/svg">
<path d="M66.9613 1.40391L60.0933 2.27145C52.668 3.20939 45.4719 5.47539 38.8488 8.9612L33.6339 11.7059C31.7331 12.7063 29.9881 13.9781 28.4536 15.4812L24.9192 18.9435C22.6997 21.1177 21.5042 24.1296 21.6284 27.234L21.6724 28.3338C21.7631 30.6024 22.7694 32.7374 24.4614 34.2513L25.1421 34.8604C27.4694 36.9427 30.8792 37.2727 33.5626 35.6754V35.6754C35.7274 34.3869 37.0538 32.0537 37.0538 29.5345V28.454V28.454C37.0538 24.0967 34.3597 20.1933 30.2856 18.648L26.6237 17.259C22.685 15.765 18.3186 15.8679 14.4546 17.5456L12.8532 18.241C8.45056 20.1527 4.93467 23.6598 3.01208 28.0577V28.0577C0.64497 33.4723 0.921177 39.6784 3.75995 44.8614L3.81328 44.9587" stroke="#414648"/>
</svg>
