<svg width="15" height="15" viewBox="0 0 15 15" fill="none" xmlns="http://www.w3.org/2000/svg">
<g clip-path="url(#clip0_0_318)">
<path fill-rule="evenodd" clip-rule="evenodd" d="M6.77049 0.0740051H8.22944C9.49911 0.0740051 10.5049 0.0740051 11.2917 0.179696C12.1013 0.288841 12.7569 0.518183 13.2743 1.03489C13.791 1.55229 14.0203 2.20785 14.1295 3.01746C14.2352 3.80496 14.2352 4.81006 14.2352 6.07973V8.92025C14.2352 10.1899 14.2352 11.1957 14.1295 11.9825C14.0203 12.7921 13.791 13.4477 13.2743 13.9651C12.7569 14.4818 12.1013 14.7111 11.2917 14.8203C10.5042 14.926 9.49911 14.926 8.22944 14.926H6.77049C5.50082 14.926 4.49503 14.926 3.70822 14.8203C2.89862 14.7111 2.24306 14.4818 1.72566 13.9651C1.20895 13.4477 0.979606 12.7921 0.870461 11.9825C0.764771 11.195 0.764771 10.1899 0.764771 8.92025V6.07973C0.764771 4.81006 0.764771 3.80427 0.870461 3.01746C0.979606 2.20785 1.20895 1.55229 1.72566 1.03489C2.24306 0.518183 2.89862 0.288841 3.70822 0.179696C4.49572 0.0740051 5.50082 0.0740051 6.77049 0.0740051ZM3.84569 1.2069C3.15076 1.30016 2.7501 1.47562 2.4572 1.76782C2.16569 2.06002 1.99023 2.46068 1.89697 3.15562C1.80165 3.86575 1.80026 4.80108 1.80026 6.11841V8.88157C1.80026 10.1989 1.80165 11.1349 1.89697 11.8451C1.99023 12.5393 2.16569 12.94 2.4579 13.2322C2.7501 13.5244 3.15076 13.6998 3.84569 13.7931C4.55582 13.8884 5.49115 13.8898 6.80849 13.8898H8.19007C9.5074 13.8898 10.4434 13.8884 11.1536 13.7931C11.8478 13.6998 12.2485 13.5244 12.5407 13.2322C12.8329 12.94 13.0083 12.5393 13.1016 11.8444C13.1969 11.1349 13.1983 10.1989 13.1983 8.88157V6.11841C13.1983 4.80108 13.1969 3.86575 13.1016 3.15493C13.0083 2.46068 12.8329 2.06002 12.5407 1.76782C12.2485 1.47562 11.8478 1.30016 11.1529 1.2069C10.4434 1.11157 9.5074 1.11019 8.19007 1.11019H6.80849C5.49115 1.11019 4.55651 1.11157 3.84569 1.2069ZM4.21872 4.73683C4.21872 4.59943 4.2733 4.46765 4.37046 4.37049C4.46762 4.27333 4.5994 4.21874 4.73681 4.21874H10.2631C10.4005 4.21874 10.5323 4.27333 10.6295 4.37049C10.7266 4.46765 10.7812 4.59943 10.7812 4.73683C10.7812 4.87424 10.7266 5.00602 10.6295 5.10318C10.5323 5.20034 10.4005 5.25493 10.2631 5.25493H4.73681C4.5994 5.25493 4.46762 5.20034 4.37046 5.10318C4.2733 5.00602 4.21872 4.87424 4.21872 4.73683ZM4.21872 7.49999C4.21872 7.36259 4.2733 7.23081 4.37046 7.13365C4.46762 7.03648 4.5994 6.9819 4.73681 6.9819H10.2631C10.4005 6.9819 10.5323 7.03648 10.6295 7.13365C10.7266 7.23081 10.7812 7.36259 10.7812 7.49999C10.7812 7.6374 10.7266 7.76918 10.6295 7.86634C10.5323 7.9635 10.4005 8.01808 10.2631 8.01808H4.73681C4.5994 8.01808 4.46762 7.9635 4.37046 7.86634C4.2733 7.76918 4.21872 7.6374 4.21872 7.49999ZM4.21872 10.2631C4.21872 10.1257 4.2733 9.99396 4.37046 9.8968C4.46762 9.79964 4.5994 9.74506 4.73681 9.74506H8.19076C8.32816 9.74506 8.45994 9.79964 8.5571 9.8968C8.65427 9.99396 8.70885 10.1257 8.70885 10.2631C8.70885 10.4006 8.65427 10.5323 8.5571 10.6295C8.45994 10.7267 8.32816 10.7812 8.19076 10.7812H4.73681C4.5994 10.7812 4.46762 10.7267 4.37046 10.6295C4.2733 10.5323 4.21872 10.4006 4.21872 10.2631Z" fill="#4C4C4C"/>
</g>
<defs>
<clipPath id="clip0_0_318">
<rect width="15" height="15" fill="white"/>
</clipPath>
</defs>
</svg>
