<svg width="8" height="15" viewBox="0 0 8 15" fill="none" xmlns="http://www.w3.org/2000/svg">
<path d="M7.78501 13.7353C7.85369 13.8069 7.90737 13.891 7.94301 13.983C7.97865 14.075 7.99553 14.173 7.99271 14.2715C7.98988 14.3699 7.96739 14.4668 7.92653 14.5566C7.88567 14.6465 7.82724 14.7276 7.75457 14.7952C7.68189 14.8628 7.59641 14.9157 7.50299 14.9508C7.40956 14.9859 7.31004 15.0025 7.21009 14.9997C7.11015 14.9969 7.01174 14.9748 6.92048 14.9345C6.82922 14.8943 6.74691 14.8368 6.67823 14.7652L0.208067 8.01916C0.0744498 7.87999 0 7.69573 0 7.50421C0 7.31269 0.0744498 7.12843 0.208067 6.98926L6.67823 0.242474C6.74645 0.169346 6.82875 0.110293 6.92034 0.0687494C7.01194 0.0272055 7.111 0.00399685 7.21178 0.000471115C7.31255 -0.00305462 7.41304 0.0131741 7.5074 0.0482121C7.60175 0.083251 7.6881 0.136401 7.76141 0.204577C7.83473 0.272753 7.89356 0.354595 7.93449 0.44535C7.97542 0.536104 7.99762 0.633962 7.99982 0.733238C8.00202 0.832515 7.98416 0.931232 7.94728 1.02365C7.91041 1.11608 7.85525 1.20036 7.78501 1.27162L1.8081 7.50421L7.78501 13.7353Z" fill="black" fill-opacity="0.5"/>
</svg>
