<svg width="17" height="20" viewBox="0 0 17 20" fill="none" xmlns="http://www.w3.org/2000/svg">
<path d="M14.1925 7.02V5.83333C14.1925 4.28624 13.578 2.80251 12.484 1.70854C11.39 0.614582 9.90631 0 8.35921 0C6.81212 0 5.32838 0.614582 4.23442 1.70854C3.14046 2.80251 2.52588 4.28624 2.52588 5.83333V7.02C1.78368 7.34392 1.15196 7.8771 0.707961 8.55434C0.263967 9.23158 0.0269442 10.0235 0.0258789 10.8333V15.8333C0.0272021 16.938 0.466614 17.997 1.24773 18.7782C2.02884 19.5593 3.08788 19.9987 4.19255 20H12.5259C13.6305 19.9987 14.6896 19.5593 15.4707 18.7782C16.2518 17.997 16.6912 16.938 16.6925 15.8333V10.8333C16.6915 10.0235 16.4545 9.23158 16.0105 8.55434C15.5665 7.8771 14.9347 7.34392 14.1925 7.02ZM4.19255 5.83333C4.19255 4.72826 4.63153 3.66846 5.41293 2.88705C6.19434 2.10565 7.25414 1.66667 8.35921 1.66667C9.46428 1.66667 10.5241 2.10565 11.3055 2.88705C12.0869 3.66846 12.5259 4.72826 12.5259 5.83333V6.66667H4.19255V5.83333ZM15.0259 15.8333C15.0259 16.4964 14.7625 17.1323 14.2936 17.6011C13.8248 18.0699 13.1889 18.3333 12.5259 18.3333H4.19255C3.5295 18.3333 2.89362 18.0699 2.42478 17.6011C1.95594 17.1323 1.69255 16.4964 1.69255 15.8333V10.8333C1.69255 10.1703 1.95594 9.53441 2.42478 9.06557C2.89362 8.59672 3.5295 8.33333 4.19255 8.33333H12.5259C13.1889 8.33333 13.8248 8.59672 14.2936 9.06557C14.7625 9.53441 15.0259 10.1703 15.0259 10.8333V15.8333Z" fill="#A0A3A3"/>
<path d="M8.35921 11.6667C8.1382 11.6667 7.92624 11.7545 7.76996 11.9107C7.61368 12.067 7.52588 12.279 7.52588 12.5V14.1667C7.52588 14.3877 7.61368 14.5996 7.76996 14.7559C7.92624 14.9122 8.1382 15 8.35921 15C8.58023 15 8.79219 14.9122 8.94847 14.7559C9.10475 14.5996 9.19255 14.3877 9.19255 14.1667V12.5C9.19255 12.279 9.10475 12.067 8.94847 11.9107C8.79219 11.7545 8.58023 11.6667 8.35921 11.6667Z" fill="#A0A3A3"/>
</svg>
