<svg width="20" height="20" viewBox="0 0 20 20" fill="none" xmlns="http://www.w3.org/2000/svg">
<path d="M10.8124 0.870696C10.8124 0.650113 10.9001 0.438565 11.056 0.282589C11.212 0.126613 11.4236 0.0389869 11.6441 0.0389869C13.8492 0.0414085 15.9633 0.918448 17.5225 2.47768C19.0818 4.03691 19.9588 6.15099 19.9612 8.35608C19.9612 8.57666 19.8736 8.78821 19.7176 8.94418C19.5617 9.10016 19.3501 9.18779 19.1295 9.18779C18.9089 9.18779 18.6974 9.10016 18.5414 8.94418C18.3854 8.78821 18.2978 8.57666 18.2978 8.35608C18.2958 6.59202 17.5942 4.90078 16.3468 3.65341C15.0994 2.40603 13.4082 1.70439 11.6441 1.7024C11.4236 1.7024 11.212 1.61478 11.056 1.4588C10.9001 1.30283 10.8124 1.09128 10.8124 0.870696ZM11.6441 5.02924C12.5265 5.02924 13.3727 5.37975 13.9966 6.00365C14.6205 6.62755 14.971 7.47375 14.971 8.35608C14.971 8.57666 15.0586 8.78821 15.2146 8.94418C15.3706 9.10016 15.5821 9.18779 15.8027 9.18779C16.0233 9.18779 16.2348 9.10016 16.3908 8.94418C16.5468 8.78821 16.6344 8.57666 16.6344 8.35608C16.6331 7.03298 16.1069 5.76446 15.1713 4.82889C14.2358 3.89333 12.9672 3.36714 11.6441 3.36582C11.4236 3.36582 11.212 3.45345 11.056 3.60942C10.9001 3.7654 10.8124 3.97695 10.8124 4.19753C10.8124 4.41811 10.9001 4.62966 11.056 4.78564C11.212 4.94161 11.4236 5.02924 11.6441 5.02924ZM19.2069 13.961C19.6889 14.4443 19.9595 15.099 19.9595 15.7816C19.9595 16.4641 19.6889 17.1189 19.2069 17.6022L18.45 18.4746C11.6383 24.9961 -4.93764 8.42428 1.48315 1.59096L2.43962 0.759247C2.92348 0.290726 3.57235 0.0315423 4.24584 0.0377683C4.91934 0.0439943 5.5633 0.31513 6.03842 0.792515C6.0642 0.818298 7.60536 2.82022 7.60536 2.82022C8.06266 3.30064 8.31722 3.93881 8.31614 4.60208C8.31506 5.26534 8.0584 5.90268 7.59954 6.3816L6.63642 7.59257C7.16942 8.88763 7.95307 10.0646 8.94234 11.0559C9.93161 12.0472 11.107 12.8332 12.401 13.3688L13.6194 12.3998C14.0984 11.9413 14.7357 11.685 15.3987 11.6841C16.0618 11.6831 16.6997 11.9377 17.18 12.3949C17.18 12.3949 19.1811 13.9352 19.2069 13.961ZM18.0624 15.1703C18.0624 15.1703 16.0722 13.6391 16.0464 13.6133C15.875 13.4434 15.6435 13.3481 15.4022 13.3481C15.1609 13.3481 14.9294 13.4434 14.7581 13.6133C14.7356 13.6366 13.058 14.9732 13.058 14.9732C12.945 15.0631 12.8105 15.1221 12.6677 15.1443C12.5249 15.1665 12.3788 15.151 12.2438 15.0996C10.5675 14.4754 9.04483 13.4983 7.77905 12.2344C6.51327 10.9705 5.53391 9.4493 4.9073 7.77388C4.85174 7.63703 4.83362 7.48785 4.85482 7.34167C4.87601 7.1955 4.93575 7.05761 5.02789 6.94217C5.02789 6.94217 6.36445 5.26378 6.38691 5.24216C6.5568 5.07081 6.65212 4.83929 6.65212 4.598C6.65212 4.35671 6.5568 4.12519 6.38691 3.95384C6.36112 3.92889 4.82995 1.93695 4.82995 1.93695C4.65604 1.78101 4.42907 1.69749 4.19556 1.70352C3.96205 1.70956 3.7397 1.80467 3.57407 1.96938L2.6176 2.80109C-2.0749 8.44341 12.2895 22.0111 17.2341 17.3385L17.9917 16.4652C18.1693 16.3008 18.2759 16.0737 18.2891 15.8321C18.3023 15.5904 18.221 15.3531 18.0624 15.1703Z" fill="#A0A3A3"/>
</svg>
