<svg width="14" height="6" viewBox="0 0 14 6" fill="none" xmlns="http://www.w3.org/2000/svg">
<g clip-path="url(#clip0_0_2473)">
<path d="M14 0.549177C14.0004 0.480138 13.9857 0.411699 13.9568 0.347784C13.9278 0.283869 13.8851 0.225736 13.8311 0.176718C13.777 0.127549 13.7126 0.0885229 13.6417 0.0618902C13.5707 0.0352574 13.4946 0.0215454 13.4178 0.0215454C13.3409 0.0215454 13.2648 0.0352574 13.1939 0.0618902C13.1229 0.0885229 13.0586 0.127549 13.0044 0.176718L8.24789 4.46262C7.9204 4.75734 7.47648 4.92287 7.01363 4.92287C6.55079 4.92287 6.10686 4.75734 5.77938 4.46262L1.02284 0.176718C0.91321 0.077936 0.76452 0.0224407 0.60948 0.0224407C0.454441 0.0224407 0.305751 0.077936 0.196121 0.176718C0.0864916 0.275501 0.0249023 0.409478 0.0249023 0.549177C0.0249023 0.688877 0.0864916 0.822854 0.196121 0.921636L4.95266 5.20754C5.22307 5.4518 5.5443 5.6456 5.89795 5.77783C6.25161 5.91006 6.63074 5.97813 7.01363 5.97813C7.39653 5.97813 7.77566 5.91006 8.12932 5.77783C8.48297 5.6456 8.8042 5.4518 9.07461 5.20754L13.8311 0.921636C13.8851 0.872619 13.9278 0.814486 13.9568 0.750571C13.9857 0.686656 14.0004 0.618217 14 0.549177Z" fill="#A0A3A3"/>
</g>
<defs>
<clipPath id="clip0_0_2473">
<rect width="6" height="14" fill="white" transform="matrix(0 1 1 0 0 0)"/>
</clipPath>
</defs>
</svg>
