<svg width="78" height="565" viewBox="0 0 78 565" fill="none" xmlns="http://www.w3.org/2000/svg">
<path d="M97.002 484.186C96.5788 475.494 97.0508 468.626 98.418 463.58C78.9844 474.452 63.457 480.556 51.8359 481.891C60.2018 483.193 65.5404 487.457 67.8516 494.684C70.1628 501.91 65.3613 507.835 53.4473 512.457C64.3197 517.503 74.1504 524.111 82.9395 532.281C81.9954 528.049 81.377 523.818 81.084 519.586L89.7754 522.564C91.0449 536.204 94.8372 550.055 101.152 564.117C76.8685 536.285 51.7383 518.984 25.7617 512.213C49.8177 505.54 60.8203 500.006 58.7695 495.611C56.6862 491.217 40.8659 486.253 11.3086 480.719C54.4076 475.152 87.334 461.904 110.088 440.973C105.889 460.732 104.342 476.796 105.449 489.166L97.002 484.186ZM52.5195 423.492C46.8555 426.422 39.1895 429.677 29.5215 433.258C38.2129 435.113 46.3509 437.392 53.9355 440.094C52.8939 431.891 52.4219 426.357 52.5195 423.492ZM59.6973 420.953C59.4368 425.283 60.0716 432.395 61.6016 442.291C69.6745 446.165 75.0618 449.729 77.7637 452.984L80.7422 468.902C76.6406 463.141 70.5697 458.111 62.5293 453.814L64.873 467.291L58.1348 464.312L54.9609 450.494C44.1862 445.742 27.9915 440.24 6.37695 433.99C25.4525 427.74 40.7194 420.986 52.1777 413.727L52.4219 404.938C41.224 404.449 32.1257 402.398 25.127 398.785C38.929 400.283 50.6478 399.078 60.2832 395.172L59.8438 411.285C75.1758 401.878 87.2852 390.582 96.1719 377.398C105.059 364.215 109.876 380.377 110.625 425.885C111.406 471.393 100.729 473.671 78.5938 432.721C95.0326 458.046 103.105 455.816 102.813 426.031C102.52 396.214 99.1341 386.057 92.6563 395.562C86.1784 405.068 75.1921 413.531 59.6973 420.953ZM18.2422 333.893L52.5195 352.984C29.5378 353.668 21.2044 356.728 27.5195 362.164C33.8346 367.6 38.3594 371.148 41.0938 372.809C43.7956 374.469 46.0091 374.257 47.7344 372.174C49.4596 370.09 51.5592 364.817 54.0332 356.354C56.4746 347.857 61.5365 333.714 69.2188 313.922C76.8685 294.098 84.3229 286.301 91.582 290.533C98.8086 294.732 103.089 313.938 104.424 348.15C105.791 382.33 101.331 399.371 91.0449 399.273C80.7259 399.176 71.8555 385.536 64.4336 358.355C75.1432 362.262 82.5977 364.215 86.7969 364.215C90.9635 364.182 93.6165 364.15 94.7559 364.117C95.8952 364.085 95.2116 365.224 92.7051 367.535C90.166 369.814 86.9108 370.904 82.9395 370.807C78.9681 370.709 76.7708 370.237 76.3477 369.391C83.151 384.918 88.3105 390.875 91.8262 387.262C95.3092 383.616 96.2207 368.202 94.5605 341.021C92.9004 313.808 90.0521 301.503 86.0156 304.107C81.9466 306.712 78.0078 313.368 74.1992 324.078C70.3581 334.755 66.6471 346.49 63.0664 359.283C59.4531 372.044 55.2865 380.084 50.5664 383.404C45.8464 386.725 36.4063 381.842 22.2461 368.756C8.05339 355.637 11.3574 348.736 32.1582 348.053L21.5137 344.146L18.2422 333.893ZM26.6406 273.639C26.6406 270.221 26.6081 267.291 26.543 264.85C26.1198 254.042 25.9245 247.923 25.957 246.49C25.957 245.058 25.9245 243.544 25.8594 241.949C25.7617 240.354 26.0221 239.199 26.6406 238.482C27.2591 237.766 29.2773 237.62 32.6953 238.043C36.0807 238.434 40.3776 240.191 45.5859 243.316C50.7617 246.409 54.4564 246.327 56.6699 243.072C58.8835 239.817 60.2669 238.727 60.8203 239.801L62.2363 247.662C62.3014 248.411 61.0156 250.136 58.3789 252.838C55.7422 255.54 51.7383 255.41 46.3672 252.447C40.9961 249.485 38.3431 249.013 38.4082 251.031C38.4408 253.017 38.6198 257.949 38.9453 265.826C39.043 268.268 39.0755 271.279 39.043 274.859C40.931 274.99 42.9004 275.104 44.9512 275.201C54.1634 275.624 64.8893 275.087 77.1289 273.59C89.3685 272.06 97.6693 270.937 102.031 270.221C106.393 269.472 108.981 269.651 109.795 270.758C110.641 271.832 111.178 272.906 111.406 273.98C111.667 275.022 111.634 276.52 111.309 278.473C110.983 280.426 110.267 281.679 109.16 282.232C108.086 282.753 95.9603 284.186 72.7832 286.529C58.8184 286.985 47.2461 287.099 38.0664 286.871C37.9688 287.555 37.8711 288.238 37.7734 288.922C36.6992 296.441 35.6576 301.682 34.6484 304.645C42.526 301.617 47.5716 301.113 49.7852 303.131C51.9987 305.149 52.9915 307.102 52.7637 308.99L52.1289 314.361C51.4453 316.087 50.0618 315.549 47.9785 312.75C45.8626 309.951 42.4284 309.853 37.6758 312.457C32.8906 315.094 28.2682 316.868 23.8086 317.779C21.0742 317.844 20.2767 315.094 21.416 309.527C22.5228 303.961 23.7598 297.825 25.127 291.119C25.4199 289.589 25.6803 287.945 25.9082 286.188C15.6217 285.211 10.9831 283.404 11.9922 280.768L12.8711 275.006C13.3594 272.532 16.5169 271.848 22.3438 272.955C23.6784 273.183 25.1107 273.411 26.6406 273.639ZM7.35352 202.936C6.96289 202.024 6.93034 200.478 7.25586 198.297C7.54883 196.116 8.29753 194.521 9.50195 193.512C10.7064 192.47 12.4967 191.868 14.873 191.705C17.2493 191.542 18.9095 191.412 19.8535 191.314C20.7975 191.217 23.3854 191.542 27.6172 192.291C31.849 193.007 34.3229 193.447 35.0391 193.609C35.7552 193.74 36.5527 193.951 37.4316 194.244C38.278 194.505 39.3034 194.732 40.5078 194.928C41.7122 195.09 42.4284 195.351 42.6563 195.709C42.8841 196.035 42.9329 197.532 42.8027 200.201C42.6725 202.87 42.2982 204.384 41.6797 204.742C41.0286 205.1 38.0176 204.758 32.6465 203.717C27.2428 202.643 24.1341 202.04 23.3203 201.91C22.474 201.78 21.5625 201.731 20.5859 201.764C19.5768 201.796 18.7305 201.992 18.0469 202.35C17.3633 202.708 17.0052 203.326 16.9727 204.205C16.9076 205.051 17.4772 206.809 18.6816 209.479C19.8861 212.148 21.3835 214.524 23.1738 216.607C24.9316 218.691 26.3477 220.253 27.4219 221.295C28.4961 222.337 30.1074 223.525 32.2559 224.859C34.4043 226.161 35.8691 226.926 36.6504 227.154C37.3991 227.35 38.2617 227.447 39.2383 227.447C40.2148 227.447 41.0449 227.285 41.7285 226.959C42.3796 226.633 42.9004 226.113 43.291 225.396C43.6491 224.648 44.1862 223.622 44.9023 222.32C45.5859 220.986 46.5625 216.868 47.832 209.967C49.1016 203.033 49.9479 198.655 50.3711 196.832C50.7617 195.009 51.2174 193.837 51.7383 193.316C52.2591 192.763 53.1868 192.291 54.5215 191.9C55.8561 191.51 56.7188 191.656 57.1094 192.34C57.5 192.991 57.9232 193.788 58.3789 194.732C58.8346 195.676 59.3555 197.255 59.9414 199.469C60.5273 201.65 60.9017 203.587 61.0645 205.279C61.2272 206.972 61.3737 208.014 61.5039 208.404C61.6341 208.762 61.7643 209.609 61.8945 210.943C62.0247 212.278 62.1549 213.092 62.2852 213.385C62.4154 213.645 62.6758 215.794 63.0664 219.83C63.457 223.867 63.6361 226.129 63.6035 226.617C63.5384 227.105 63.571 227.496 63.7012 227.789C63.8314 228.049 63.9616 228.749 64.0918 229.889C64.1895 230.995 64.222 231.842 64.1895 232.428C64.1243 233.014 64.1569 233.404 64.2871 233.6C64.3848 233.762 64.4661 234.137 64.5313 234.723C64.5964 235.276 64.7103 235.504 64.873 235.406C65.0358 235.309 65.166 235.162 65.2637 234.967C65.3613 234.739 65.9961 233.86 67.168 232.33C68.3073 230.768 69.349 229.482 70.293 228.473C71.2044 227.431 72.4902 226.471 74.1504 225.592C75.8105 224.68 78.138 223.785 81.1328 222.906C84.1276 222.027 86.0645 221.588 86.9434 221.588C87.7897 221.555 88.75 221.539 89.8242 221.539C90.8984 221.507 92.4284 221.441 94.4141 221.344C96.3997 221.214 97.6693 221.1 98.2227 221.002C98.8086 220.904 99.5736 220.742 100.518 220.514C101.494 220.286 102.357 219.749 103.105 218.902C103.854 218.056 104.261 217.21 104.326 216.363C104.424 215.517 104.424 214.557 104.326 213.482C104.261 212.408 103.984 210.927 103.496 209.039C103.008 207.118 102.34 205.572 101.494 204.4C100.68 203.229 100.111 202.301 99.7852 201.617C99.4596 200.934 99.0527 200.25 98.5645 199.566C98.1087 198.883 97.2461 197.662 95.9766 195.904C94.7396 194.114 93.3073 192.161 91.6797 190.045C90.0195 187.929 88.9453 186.643 88.457 186.188C87.9362 185.732 87.3991 185.162 86.8457 184.479C86.2598 183.795 85.4297 182.965 84.3555 181.988C83.2487 180.979 82.3535 180.133 81.6699 179.449C80.9538 178.733 80.4004 178.261 80.0098 178.033C79.5866 177.805 79.4238 178.082 79.5215 178.863C79.5866 179.612 79.7005 180.8 79.8633 182.428C79.9935 184.023 80.0423 185.016 80.0098 185.406C79.9447 185.797 79.9935 186.708 80.1563 188.141C80.2865 189.54 80.319 190.354 80.2539 190.582C80.1563 190.777 80.1725 191.021 80.3027 191.314C80.4004 191.575 80.4655 192.063 80.498 192.779C80.498 193.463 80.3353 194.277 80.0098 195.221C79.6517 196.132 78.5286 195.497 76.6406 193.316C74.7526 191.103 73.6133 189.02 73.2227 187.066C72.832 185.081 72.6367 182.184 72.6367 178.375C72.6367 174.534 72.6855 172.223 72.7832 171.441C72.8809 170.66 73.1087 169.7 73.4668 168.561C73.8249 167.389 75.013 166.673 77.0313 166.412C79.0169 166.119 81.0677 166.721 83.1836 168.219C85.2995 169.716 86.569 170.742 86.9922 171.295C87.3828 171.848 87.8385 172.255 88.3594 172.516C88.8477 172.743 89.7103 173.492 90.9473 174.762C92.1517 176.031 93.4375 177.545 94.8047 179.303C96.1393 181.061 97.002 182.232 97.3926 182.818C97.7832 183.372 98.2715 183.99 98.8574 184.674C99.4434 185.325 100.615 186.952 102.373 189.557C104.131 192.161 105.221 193.772 105.645 194.391C106.1 194.977 106.507 195.693 106.865 196.539C107.256 197.385 107.728 198.15 108.281 198.834C108.867 199.518 109.339 200.169 109.697 200.787C110.088 201.406 110.446 202.138 110.771 202.984C111.13 203.798 111.862 205.702 112.969 208.697C114.076 211.692 114.71 213.515 114.873 214.166C115.036 214.817 115.02 215.729 114.824 216.9C114.661 218.072 114.499 219.016 114.336 219.732C114.173 220.449 113.75 221.555 113.066 223.053C112.383 224.55 111.471 225.917 110.332 227.154C109.193 228.359 107.842 229.156 106.279 229.547C104.749 229.905 102.048 230.377 98.1738 230.963C94.3327 231.516 92.0703 231.793 91.3867 231.793C90.7031 231.76 89.9382 231.793 89.0918 231.891C88.2454 231.956 87.6432 232.053 87.2852 232.184C86.8945 232.314 86.3411 232.46 85.625 232.623C84.9089 232.786 83.6556 233.095 81.8652 233.551C80.0423 233.974 78.5124 234.641 77.2754 235.553C76.0059 236.432 74.8665 237.424 73.8574 238.531C72.8158 239.605 71.8066 240.875 70.8301 242.34C69.8535 243.805 68.877 245.969 67.9004 248.834C66.8913 251.699 66.3867 253.717 66.3867 254.889C66.3867 256.093 66.3542 257.118 66.2891 257.965C66.1914 258.811 64.7103 259.446 61.8457 259.869C58.9486 260.292 57.2721 260.374 56.8164 260.113C56.3281 259.853 56.0026 259.283 55.8398 258.404C55.6445 257.558 55.5306 256.712 55.498 255.865C55.4655 255.051 55.4492 254.384 55.4492 253.863C55.4167 253.342 55.4492 252.61 55.5469 251.666C55.612 250.755 55.5957 249.745 55.498 248.639C55.4004 247.564 55.498 244.7 55.791 240.045C56.0514 235.357 55.7747 227.724 54.9609 217.145C54.375 218.772 54.0495 219.977 53.9844 220.758C53.8867 221.539 53.724 222.418 53.4961 223.395C53.2682 224.371 53.1217 225.234 53.0566 225.982C52.959 226.731 52.7474 227.512 52.4219 228.326C52.0638 229.14 51.7708 229.856 51.543 230.475C51.2826 231.061 50.8594 231.907 50.2734 233.014C49.6549 234.12 48.776 235.162 47.6367 236.139C46.4974 237.083 45.2441 237.669 43.877 237.896C42.4772 238.092 41.3379 238.108 40.459 237.945C39.5801 237.783 38.3919 237.424 36.8945 236.871C35.3971 236.318 34.209 235.862 33.3301 235.504C32.4512 235.146 30.8398 234.169 28.4961 232.574C26.1198 230.947 24.6712 229.954 24.1504 229.596C23.597 229.238 23.0111 228.717 22.3926 228.033C21.7741 227.35 20.0651 225.299 17.2656 221.881C14.4336 218.43 12.2526 215.012 10.7227 211.627C9.19271 208.242 8.34635 206.174 8.18359 205.426C8.02083 204.677 7.74414 203.847 7.35352 202.936ZM13.7012 181.109C15.0033 177.919 16.6146 173.574 18.5352 168.072C20.4557 162.538 22.1322 157.949 23.5645 154.303C24.9642 150.657 25.8757 147.955 26.2988 146.197C26.722 144.439 27.1289 142.698 27.5195 140.973C27.9102 139.247 28.4473 136.676 29.1309 133.258C29.8145 129.84 30.5306 127.285 31.2793 125.592C32.028 123.867 33.2161 122.988 34.8438 122.955C36.4714 122.923 38.1641 123.98 39.9219 126.129C41.6471 128.277 43.1445 130.686 44.4141 133.355C41.6146 126.52 39.8893 122.467 39.2383 121.197C38.5547 119.928 38.0827 119.016 37.8223 118.463C37.5618 117.877 37.1875 116.9 36.6992 115.533C36.1784 114.133 35.2995 112.132 34.0625 109.527C32.8255 106.891 31.8978 105.019 31.2793 103.912C30.6283 102.773 29.7493 100.885 28.6426 98.248C27.5033 95.6113 27.0801 93.707 27.373 92.5352C27.6335 91.3633 29.3099 90.224 32.4023 89.1172C35.4622 87.9779 37.5293 87.8639 38.6035 88.7754C39.6777 89.6868 40.4753 90.3704 40.9961 90.8262C41.4844 91.2819 42.1029 91.998 42.8516 92.9746C43.6003 93.9512 45.9766 96.0996 49.9805 99.4199C53.9844 102.74 58.1022 105.458 62.334 107.574C66.5332 109.69 70.4557 111.432 74.1016 112.799C77.7148 114.166 80.791 115.159 83.3301 115.777C85.8691 116.396 87.6595 116.721 88.7012 116.754C89.7428 116.786 90.8333 116.819 91.9727 116.852C93.112 116.884 94.4466 116.835 95.9766 116.705C97.5391 116.542 99.6875 116.282 102.422 115.924C105.189 115.566 107.174 115.061 108.379 114.41C109.616 113.727 110.462 115.061 110.918 118.414C111.374 121.734 111.325 123.574 110.771 123.932C110.251 124.257 109.648 124.566 108.965 124.859C108.281 125.152 107.093 125.706 105.4 126.52C103.708 127.333 101.299 127.984 98.1738 128.473C95.0488 128.961 92.0703 129.14 89.2383 129.01C86.3737 128.88 82.8418 128.31 78.6426 127.301C74.4434 126.292 69.5443 124.583 63.9453 122.174C58.3464 119.732 54.4727 117.73 52.3242 116.168C50.1758 114.605 48.5156 113.613 47.3438 113.189C46.1393 112.766 50.3385 123.997 59.9414 146.881C62.3177 144.895 66.9401 143.105 73.8086 141.51L76.7871 151.959C71.6764 153.163 67.347 154.986 63.7988 157.428C66.0124 164.524 67.2982 168.788 67.6563 170.221C67.9818 171.62 67.6888 172.857 66.7773 173.932C65.8333 175.006 65.0846 175.527 64.5313 175.494C63.9779 175.462 63.457 175.25 62.9688 174.859C62.4479 174.469 61.276 172.874 59.4531 170.074C57.5977 167.275 55.8561 164.475 54.2285 161.676C47.2624 164.801 35.8203 173.59 19.9023 188.043L13.7012 181.109ZM27.373 168.512C29.7493 165.224 36.6667 160.016 48.125 152.887C43.4701 143.935 40.3451 138.938 38.75 137.896C37.1549 136.855 35.918 139.068 35.0391 144.537C34.1602 150.006 31.6048 157.997 27.373 168.512ZM18.2422 50.2988L52.5195 69.3906C29.5378 70.0742 21.2044 73.1341 27.5195 78.5703C33.8346 84.0065 38.3594 87.5547 41.0938 89.2148C43.7956 90.875 46.0091 90.6634 47.7344 88.5801C49.4596 86.4967 51.5592 81.2233 54.0332 72.7598C56.4746 64.2637 61.5365 50.1198 69.2188 30.3281C76.8685 10.5039 84.3229 2.70768 91.582 6.93945C98.8086 11.1387 103.089 30.3444 104.424 64.5566C105.791 98.7363 101.331 115.777 91.0449 115.68C80.7259 115.582 71.8555 101.943 64.4336 74.7617C75.1432 78.668 82.5977 80.6211 86.7969 80.6211C90.9635 80.5885 93.6165 80.556 94.7559 80.5234C95.8952 80.4909 95.2116 81.6302 92.7051 83.9414C90.166 86.2201 86.9108 87.3105 82.9395 87.2129C78.9681 87.1152 76.7708 86.6432 76.3477 85.7969C83.151 101.324 88.3105 107.281 91.8262 103.668C95.3092 100.022 96.2207 84.6087 94.5605 57.4277C92.9004 30.2142 90.0521 17.9095 86.0156 20.5137C81.9466 23.1178 78.0078 29.7747 74.1992 40.4844C70.3581 51.1615 66.6471 62.8965 63.0664 75.6895C59.4531 88.4499 55.2865 96.4902 50.5664 99.8105C45.8464 103.131 36.4063 98.248 22.2461 85.1621C8.05339 72.0436 11.3574 65.1426 32.1582 64.459L21.5137 60.5527L18.2422 50.2988Z" fill="white"/>
</svg>
