<svg width="18" height="13" viewBox="0 0 18 13" fill="none" xmlns="http://www.w3.org/2000/svg">
<path d="M6.00015 10.17L2.53015 6.70002C2.34317 6.51304 2.08957 6.408 1.82515 6.408C1.56072 6.408 1.30712 6.51304 1.12015 6.70002C0.933168 6.88699 0.828125 7.14059 0.828125 7.40502C0.828125 7.53595 0.853914 7.6656 0.904019 7.78656C0.954124 7.90752 1.02756 8.01743 1.12015 8.11002L5.30015 12.29C5.69015 12.68 6.32015 12.68 6.71015 12.29L17.2901 1.71002C17.4771 1.52304 17.5822 1.26944 17.5822 1.00502C17.5822 0.74059 17.4771 0.486994 17.2901 0.300016C17.1032 0.113039 16.8496 0.00799561 16.5851 0.00799561C16.3207 0.00799561 16.0671 0.113039 15.8801 0.300016L6.00015 10.17Z" fill="white"/>
</svg>
