<svg width="278" height="53" viewBox="0 0 278 53" fill="none" xmlns="http://www.w3.org/2000/svg">
<path d="M19.8306 12.4907C20.1382 12.4175 20.4385 12.3809 20.7314 12.3809C21.0391 12.3809 21.354 12.4102 21.6763 12.4688C22.0132 12.5273 22.416 12.6372 22.8848 12.7983C23.3682 12.9448 23.6978 13.0693 23.8735 13.1719C24.064 13.2598 24.4668 13.5527 25.082 14.0508C25.7119 14.5488 26.0928 14.8857 26.2246 15.0615C26.3564 15.2227 26.459 15.4277 26.5322 15.6768C26.6055 15.9258 26.6567 16.3066 26.686 16.8193C26.7153 17.332 26.7153 17.7129 26.686 17.9619C26.6714 18.2109 26.6274 18.4966 26.5542 18.8188C26.4956 19.1265 26.4077 19.5513 26.2905 20.0933C26.1733 20.6353 25.8877 21.3384 25.4336 22.2026C24.9795 23.0669 24.7158 23.5942 24.6426 23.7847C24.5693 23.9604 24.4521 24.1729 24.291 24.4219C24.1299 24.6562 23.3169 25.6523 21.8521 27.4102C20.3872 29.168 18.9663 30.6768 17.5894 31.9365C16.2124 33.1963 15.3408 33.9653 14.9746 34.2437C14.623 34.5073 14.374 34.7124 14.2275 34.8589C14.0811 35.0054 13.8979 35.1592 13.6782 35.3203C13.4731 35.4668 13.1875 35.6865 12.8213 35.9795C12.4697 36.2725 11.9058 36.6753 11.1294 37.188C10.353 37.7007 9.86963 38.0303 9.6792 38.1768C9.50342 38.3086 9.29834 38.4404 9.06396 38.5723C8.82959 38.7041 8.69043 38.7847 8.64648 38.814C8.60254 38.8433 9.71582 38.8579 11.9863 38.8579C14.2568 38.8433 16.5566 38.9385 18.8857 39.1436C21.2295 39.3486 22.8921 39.5977 23.8735 39.8906C24.8696 40.1836 25.4629 40.374 25.6533 40.4619C25.8584 40.5352 26.1147 40.6084 26.4224 40.6816C26.73 40.7402 27.8066 41.1431 29.6523 41.8901C31.5127 42.6226 32.3477 42.9229 32.1572 42.791C31.9668 42.6738 31.6006 42.249 31.0586 41.5166C30.5166 40.7842 30.0332 39.9858 29.6084 39.1216C29.1982 38.2573 28.9419 37.7227 28.8394 37.5176C28.7368 37.3125 28.6489 37.0562 28.5757 36.7485C28.5024 36.4409 28.4731 36.1406 28.4878 35.8477L28.6416 35.2983L30.8608 34.771C31.4321 34.9761 31.7471 35.2104 31.8057 35.4741C31.8789 35.7231 32.1938 36.3018 32.7505 37.21C33.3071 38.1035 33.644 38.6382 33.7612 38.814C33.8931 38.9751 34.0176 39.1802 34.1348 39.4292C34.252 39.6782 34.6401 40.3228 35.2993 41.3628C35.9731 42.3882 36.4712 43.062 36.7935 43.3843C37.1304 43.7212 37.3354 44.0215 37.4087 44.2852C37.4966 44.5635 37.5479 44.8345 37.5625 45.0981C37.5771 45.3618 37.1597 45.8086 36.3101 46.4385C35.4604 47.083 34.8892 47.4492 34.5962 47.5371C34.3032 47.6396 33.959 47.5664 33.5635 47.3174C33.1826 47.083 32.897 46.9072 32.7065 46.79C32.5161 46.6875 32.2891 46.585 32.0254 46.4824C31.7617 46.3799 30.9048 46.0796 29.4546 45.5815C28.0044 45.0981 27.1694 44.8271 26.9497 44.7686C26.73 44.7246 26.4883 44.6514 26.2246 44.5488C25.9756 44.4609 25.0527 44.1973 23.4561 43.7578C21.8594 43.333 20.9072 43.0913 20.5996 43.0327C20.292 42.9888 19.6182 42.9302 18.5781 42.8569C17.5381 42.7983 16.9009 42.7471 16.6665 42.7031C16.4468 42.6592 16.1758 42.6299 15.8535 42.6152C15.5459 42.6006 15.2529 42.564 14.9746 42.5054C14.7109 42.4614 13.019 42.4688 9.89893 42.5273C6.79346 42.5859 5.12354 42.6152 4.88916 42.6152C4.65479 42.6299 4.39844 42.6738 4.12012 42.7471C3.85645 42.8203 3.48291 42.8862 2.99951 42.9448C2.53076 43.0034 2.11328 42.813 1.74707 42.3735C1.38086 41.9487 1.18311 41.707 1.15381 41.6484C1.12451 41.5898 1.06592 41.5312 0.978027 41.4727C0.875488 41.4141 0.838867 41.3115 0.868164 41.165C0.897461 41.0186 0.941406 40.8721 1 40.7256C1.07324 40.5645 2.41357 39.5464 5.021 37.6714C7.64307 35.7964 9.96484 33.9067 11.9863 32.0024C14.0225 30.0835 15.1211 29.0581 15.2822 28.9263C15.458 28.7798 15.6265 28.6113 15.7876 28.4209C15.9487 28.2305 16.1099 28.062 16.271 27.9155C16.4321 27.7544 16.5786 27.5713 16.7104 27.3662C16.8569 27.1611 17.4062 26.5093 18.3584 25.4106C19.3252 24.2974 20.1089 23.1621 20.7095 22.0049C21.3101 20.833 21.6323 20.1152 21.6763 19.8516C21.7349 19.5732 21.7935 19.2437 21.8521 18.8628C21.9253 18.4673 21.9619 18.1597 21.9619 17.9399C21.9619 17.7056 21.8667 17.4126 21.6763 17.061C21.4858 16.6948 21.2661 16.4751 21.0171 16.4019C20.7827 16.3286 20.5044 16.2847 20.1821 16.27C19.8599 16.2554 19.6108 16.2627 19.4351 16.292C19.2739 16.3213 18.9663 16.4312 18.5122 16.6216C18.0728 16.7974 17.7358 16.9146 17.5015 16.9731C17.2671 17.0171 16.9961 17.1636 16.6885 17.4126C16.3955 17.6616 16.1465 17.8228 15.9414 17.896C15.7363 17.9692 15.5239 18.0938 15.3042 18.2695C15.0991 18.4307 14.6084 18.8115 13.832 19.4121C13.0703 20.0127 12.5503 20.5107 12.272 20.9062C12.0083 21.2871 11.5688 21.1113 10.9536 20.3789C10.353 19.6465 9.93555 19.207 9.70117 19.0605C9.4668 18.9141 9.36426 18.7383 9.39355 18.5332C9.42285 18.3135 9.52539 18.1304 9.70117 17.9839C9.8916 17.8374 10.5215 17.3174 11.5908 16.4238C12.6748 15.5156 13.312 15.0103 13.5024 14.9077C13.6929 14.7905 13.9126 14.688 14.1616 14.6001C14.4253 14.4976 14.6377 14.3804 14.7988 14.2485C14.9746 14.1167 15.187 13.9995 15.436 13.897C15.6851 13.7798 16.2856 13.5454 17.2378 13.1938C18.2046 12.8276 18.8052 12.6372 19.0396 12.6226C19.2739 12.6079 19.5376 12.564 19.8306 12.4907ZM50.5483 39.2754C50.314 39.4512 49.4644 39.5317 47.9995 39.5171C46.5347 39.4878 45.0552 39.5757 43.561 39.7808C42.0669 39.9712 41.3711 39.5977 41.4736 38.6602L42.0889 36.397C43.7148 35.6646 45.4507 35.3643 47.2964 35.4961C49.1421 35.6133 50.1968 35.7524 50.4604 35.9136C50.7388 36.0747 50.8706 36.4702 50.856 37.1001C50.8413 37.73 50.8486 38.2061 50.8779 38.5283C50.9072 38.8359 50.7974 39.085 50.5483 39.2754ZM65.6216 38.792C71.0708 34.0752 73.8394 28.9849 73.9272 23.521C74.0298 18.0571 72.1987 17.127 68.4341 20.7305C64.6694 24.3193 61.9009 29.4097 60.1284 36.0015C58.356 42.5786 60.187 43.5088 65.6216 38.792ZM67.8848 15.5229C74.0078 9.98584 77.3403 11.6265 77.8823 20.4448C78.439 29.2632 74.4473 36.7778 65.9072 42.9888C57.3672 49.2144 54.0273 47.5737 55.8877 38.0669C57.7627 28.5601 61.7617 21.0454 67.8848 15.5229ZM88.4292 38.792C93.8784 34.0752 96.647 28.9849 96.7349 23.521C96.8374 18.0571 95.0063 17.127 91.2417 20.7305C87.4771 24.3193 84.7085 29.4097 82.936 36.0015C81.1636 42.5786 82.9946 43.5088 88.4292 38.792ZM90.6924 15.5229C96.8154 9.98584 100.148 11.6265 100.69 20.4448C101.247 29.2632 97.2549 36.7778 88.7148 42.9888C80.1748 49.2144 76.835 47.5737 78.6953 38.0669C80.5703 28.5601 84.5693 21.0454 90.6924 15.5229ZM111.237 38.792C116.686 34.0752 119.455 28.9849 119.542 23.521C119.645 18.0571 117.814 17.127 114.049 20.7305C110.285 24.3193 107.516 29.4097 105.744 36.0015C103.971 42.5786 105.802 43.5088 111.237 38.792ZM113.5 15.5229C119.623 9.98584 122.956 11.6265 123.498 20.4448C124.054 29.2632 120.062 36.7778 111.522 42.9888C102.982 49.2144 99.6426 47.5737 101.503 38.0669C103.378 28.5601 107.377 21.0454 113.5 15.5229ZM136.813 39.2754C136.579 39.4512 135.729 39.5317 134.264 39.5171C132.799 39.4878 131.32 39.5757 129.826 39.7808C128.332 39.9712 127.636 39.5977 127.738 38.6602L128.354 36.397C129.979 35.6646 131.715 35.3643 133.561 35.4961C135.407 35.6133 136.461 35.7524 136.725 35.9136C137.003 36.0747 137.135 36.4702 137.121 37.1001C137.106 37.73 137.113 38.2061 137.143 38.5283C137.172 38.8359 137.062 39.085 136.813 39.2754ZM151.886 38.792C157.335 34.0752 160.104 28.9849 160.192 23.521C160.294 18.0571 158.463 17.127 154.699 20.7305C150.934 24.3193 148.166 29.4097 146.393 36.0015C144.621 42.5786 146.452 43.5088 151.886 38.792ZM154.149 15.5229C160.272 9.98584 163.605 11.6265 164.147 20.4448C164.704 29.2632 160.712 36.7778 152.172 42.9888C143.632 49.2144 140.292 47.5737 142.152 38.0669C144.027 28.5601 148.026 21.0454 154.149 15.5229ZM174.694 38.792C180.143 34.0752 182.912 28.9849 183 23.521C183.102 18.0571 181.271 17.127 177.506 20.7305C173.742 24.3193 170.973 29.4097 169.201 36.0015C167.428 42.5786 169.259 43.5088 174.694 38.792ZM176.957 15.5229C183.08 9.98584 186.413 11.6265 186.955 20.4448C187.511 29.2632 183.52 36.7778 174.979 42.9888C166.439 49.2144 163.1 47.5737 164.96 38.0669C166.835 28.5601 170.834 21.0454 176.957 15.5229ZM197.501 38.792C202.951 34.0752 205.719 28.9849 205.807 23.521C205.91 18.0571 204.079 17.127 200.314 20.7305C196.549 24.3193 193.781 29.4097 192.008 36.0015C190.236 42.5786 192.067 43.5088 197.501 38.792ZM199.765 15.5229C205.888 9.98584 209.22 11.6265 209.762 20.4448C210.319 29.2632 206.327 36.7778 197.787 42.9888C189.247 49.2144 185.907 47.5737 187.768 38.0669C189.643 28.5601 193.642 21.0454 199.765 15.5229ZM248.192 38.9897C248.383 37.1587 248.632 34.9834 248.939 32.4639C248.983 32.0244 249.035 31.5923 249.093 31.1675C242.487 34.5073 239.989 36.7046 241.601 37.7593C242.523 38.3892 244.721 38.7993 248.192 38.9897ZM252.301 39.1436C254.411 39.1582 256.82 39.1289 259.53 39.0557C266.254 38.6748 269.345 37.5322 268.803 35.6279C268.275 33.7236 263.332 30.5083 253.971 25.9819L253.532 27.542L254.718 27.0806L253.312 30.0029L253.114 32.5957C252.807 35.1006 252.536 37.2832 252.301 39.1436ZM252.279 11.1284C250.492 12.8423 249.328 14.2632 248.786 15.3911C248.112 16.7974 248.192 17.9326 249.027 18.7969C249.379 19.1631 249.928 19.5513 250.675 19.9614C251.159 16.9585 251.693 14.0142 252.279 11.1284ZM258.124 4.69043C259.237 5.80371 259.955 8.74072 260.277 13.5015L257.443 15.8965L256.894 10.4253C256 14.3804 255.253 18.1377 254.652 21.6973C269.989 29.4756 276.713 34.8296 274.823 37.7593C272.934 40.689 267.162 42.2637 257.509 42.4834C255.458 42.542 253.561 42.5566 251.818 42.5273C251.525 44.5635 251.283 45.8965 251.093 46.5264C250.697 47.8594 250.177 48.4014 249.533 48.1523C248.888 47.918 248.39 47.8228 248.039 47.8667C247.687 47.9253 247.526 47.3027 247.555 45.999C247.555 45.4131 247.65 44.2119 247.841 42.3955C240.062 41.9268 236.298 40.3594 236.547 37.6934C236.854 34.4268 241.146 31.3433 249.423 28.4429C249.613 27.022 249.811 25.6157 250.016 24.2241C246.969 22.686 244.926 21.1333 243.886 19.5659C242.538 17.5444 244.911 13.5527 251.005 7.59082C251.928 6.68262 252.77 5.9502 253.532 5.39355C254.396 1.95117 255.062 0.347168 255.531 0.581543L258.212 2.18555C258.373 2.41992 258.344 3.25488 258.124 4.69043Z" fill="white"/>
</svg>
