<svg width="126" height="110" viewBox="0 0 126 110" fill="none" xmlns="http://www.w3.org/2000/svg">
<path d="M125.2 1.14834L115.268 4.96567C101.777 10.1512 89.1194 17.2881 77.6999 26.1483V26.1483L62.3494 41.1856C56.524 46.8922 53.386 54.7977 53.7119 62.946L53.8274 65.8329C54.0655 71.7874 56.7067 77.3912 61.1478 81.3648L62.9345 82.9634C69.043 88.429 77.993 89.2953 85.0364 85.1028V85.1028C90.7184 81.7207 94.1999 75.5967 94.1999 68.9843V66.1483V66.1483C94.1999 54.7115 87.1284 44.466 76.435 40.4099L66.8233 36.7641C56.4852 32.8427 45.0245 33.1127 34.8824 37.5165L30.679 39.3416C19.1233 44.3593 9.89492 53.5647 4.8486 65.108V65.108C-1.3645 79.3202 -0.639525 95.6096 6.81158 109.214L6.95156 109.469" stroke="#414648"/>
</svg>
