<svg width="1440" height="152" viewBox="0 0 1440 152" fill="none" xmlns="http://www.w3.org/2000/svg">
<path d="M576.783 0H885.275L932 152H531L576.783 0Z" fill="url(#paint0_linear_2028_2)"/>
<path d="M393 0H577.5L534 152H303L393 0Z" fill="white"/>
<path d="M196 0H389.5L302 152H71L196 0Z" fill="url(#paint1_linear_2028_2)"/>
<path d="M1243.5 0H1050L1137.5 152H1368.5L1243.5 0Z" fill="url(#paint2_linear_2028_2)"/>
<path d="M655.225 68.1558C658.603 68.0355 661.294 68.2542 663.297 68.812C658.556 61.194 655.776 55.1204 654.955 50.5913C654.663 53.8402 653.138 55.8959 650.379 56.7584C647.621 57.6209 645.187 55.7222 643.077 51.0623C641.39 55.2675 639.066 59.0594 636.107 62.4379C637.733 62.0921 639.367 61.8731 641.01 61.7806L640.072 65.1477C634.786 65.5721 629.482 66.9771 624.161 69.3629C634.389 60.055 640.488 50.3639 642.459 40.2898C645.681 49.6852 648.123 53.9951 649.784 53.2194C651.444 52.4311 652.972 46.3001 654.368 34.8262C657.649 51.6264 663.665 64.5073 672.414 73.4687C664.6 71.7338 658.296 71.0501 653.5 71.4176L655.225 68.1558ZM677.747 51.1554C676.458 48.9363 674.991 45.9365 673.345 42.156C672.846 45.5287 672.167 48.684 671.309 51.6217C674.481 51.2582 676.627 51.1028 677.747 51.1554ZM678.922 53.9616C677.227 53.8381 674.469 54.0489 670.65 54.5937C669.347 57.7155 668.096 59.7938 666.896 60.8286L660.766 61.9064C662.907 60.3397 664.712 58.0029 666.18 54.8959L660.985 55.7392L661.973 53.1322L667.28 51.9677C668.855 47.799 670.583 41.5249 672.463 33.1456C675.392 40.6007 678.42 46.5762 681.546 51.0723L684.98 51.2121C684.881 46.857 685.447 43.3269 686.675 40.6218C686.447 45.9852 687.219 50.5517 688.991 54.3212L682.696 54.0679C686.76 60.0824 691.477 64.8524 696.847 68.3779C702.217 71.9035 696.039 73.6957 678.311 73.7548C660.585 73.8265 659.421 69.6599 674.82 61.255C665.368 67.5228 666.445 70.6758 678.053 70.7138C689.673 70.752 693.547 69.4865 689.673 66.9171C685.799 64.3477 682.215 60.0292 678.922 53.9616ZM711.804 38.2739L705.242 51.5154C704.383 42.5686 702.975 39.3101 701.018 41.7398C699.061 44.1696 697.794 45.9123 697.217 46.9679C696.639 48.0108 696.779 48.8733 697.636 49.5553C698.493 50.2373 700.603 51.0813 703.967 52.0872C707.344 53.0806 712.99 55.1227 720.906 58.2132C728.834 61.2913 732.066 64.232 730.603 67.0352C729.152 69.826 721.773 71.3937 708.465 71.7384C695.172 72.096 688.411 70.2736 688.184 66.2711C687.956 62.256 693.046 58.8737 703.455 56.1243C702.208 60.272 701.638 63.1628 701.746 64.797C701.866 66.4186 701.948 67.4511 701.99 67.8947C702.032 68.3382 701.57 68.0664 700.604 67.0792C699.65 66.0795 699.141 64.8072 699.076 63.2622C699.012 61.7173 699.139 60.8646 699.459 60.7043C693.579 63.2725 691.389 65.2499 692.888 66.6364C694.4 68.0105 700.434 68.4439 710.991 67.9366C721.561 67.4295 726.286 66.3839 725.166 64.7998C724.046 63.203 721.348 61.6363 717.074 60.0995C712.811 58.5502 708.139 57.0462 703.058 55.5875C697.988 54.1163 694.746 52.4538 693.329 50.6C691.913 48.7463 693.573 45.0976 698.311 39.654C703.061 34.198 705.838 35.5189 706.64 43.617L707.889 39.4946L711.804 38.2739ZM735.517 41.8497C736.85 41.8672 737.992 41.8695 738.942 41.8566C743.146 41.7471 745.527 41.7023 746.087 41.7223C746.645 41.7296 747.235 41.7247 747.855 41.7075C748.474 41.6776 748.932 41.7849 749.227 42.0292C749.522 42.2735 749.631 43.0597 749.554 44.3876C749.489 45.703 748.915 47.3662 747.83 49.377C746.758 51.3754 746.885 52.8136 748.211 53.6916C749.538 54.5696 749.999 55.1135 749.594 55.3234L746.565 55.8343C746.275 55.8558 745.569 55.3466 744.447 54.3068C743.325 53.2669 743.273 51.7095 744.29 49.6344C745.306 47.5594 745.422 46.5294 744.637 46.5444C743.863 46.547 741.945 46.5915 738.881 46.6779C737.932 46.7035 736.758 46.7008 735.361 46.6698C735.359 47.4039 735.365 48.1697 735.38 48.9672C735.452 52.55 735.938 56.7267 736.838 61.4973C737.75 66.2681 738.402 69.5041 738.794 71.2052C739.198 72.9065 739.195 73.9126 738.784 74.2237C738.387 74.5476 737.982 74.7511 737.569 74.8343C737.17 74.9303 736.585 74.91 735.815 74.7733C735.045 74.6367 734.538 74.3516 734.293 73.9181C734.062 73.4974 733.191 68.7714 731.68 59.7402C731.142 54.3035 730.799 49.7996 730.652 46.2285C730.382 46.187 730.113 46.1455 729.844 46.104C726.884 45.6476 724.814 45.2155 723.632 44.8077C725.016 47.8887 725.343 49.8547 724.613 50.7058C723.883 51.5569 723.147 51.9333 722.405 51.835L720.294 51.5605C719.603 51.2857 719.777 50.7501 720.815 49.9536C721.852 49.1445 721.802 47.8086 720.664 45.9459C719.512 44.0703 718.701 42.2624 718.231 40.5223C718.135 39.4579 719.187 39.1616 721.387 39.6334C723.586 40.0925 726.011 40.6052 728.661 41.1714C729.266 41.2933 729.913 41.403 730.605 41.5006C730.72 37.5027 731.305 35.7068 732.36 36.1129L734.629 36.4844C735.606 36.687 735.954 37.9193 735.673 40.1811C735.619 40.6993 735.567 41.2555 735.517 41.8497ZM762.592 34.7051C762.937 34.5578 763.539 34.553 764.398 34.6908C765.256 34.816 765.898 35.1155 766.322 35.5893C766.76 36.0633 767.041 36.7631 767.165 37.6887C767.29 38.6142 767.384 39.2609 767.446 39.6288C767.508 39.9967 767.448 41.0021 767.265 42.645C767.095 44.2881 766.988 45.2486 766.943 45.5265C766.91 45.8045 766.848 46.1138 766.757 46.4543C766.677 46.7823 766.614 47.1802 766.569 47.6479C766.537 48.1158 766.454 48.3931 766.32 48.48C766.199 48.567 765.616 48.5783 764.572 48.5141C763.528 48.4498 762.928 48.2964 762.772 48.0538C762.616 47.7987 762.672 46.6287 762.939 44.5438C763.219 42.4465 763.374 41.2398 763.403 40.9238C763.432 40.5951 763.428 40.2407 763.39 39.8605C763.351 39.4676 763.253 39.1373 763.096 38.8694C762.939 38.6016 762.688 38.4591 762.345 38.4419C762.013 38.4123 761.342 38.625 760.332 39.08C759.323 39.5351 758.434 40.1057 757.668 40.7918C756.901 41.4652 756.328 42.0082 755.95 42.421C755.571 42.8337 755.149 43.4546 754.684 44.2839C754.232 45.1133 753.971 45.6794 753.903 45.9823C753.846 46.2726 753.83 46.6078 753.855 46.9879C753.88 47.3679 753.965 47.6917 754.11 47.9594C754.253 48.2144 754.47 48.4198 754.759 48.5754C755.061 48.7186 755.474 48.9329 756 49.2182C756.539 49.491 758.17 49.8921 760.893 50.4213C763.63 50.9508 765.359 51.3025 766.081 51.4765C766.802 51.6378 767.271 51.8211 767.487 52.0264C767.716 52.2319 767.924 52.5954 768.111 53.1167C768.298 53.6381 768.263 53.9731 768.007 54.1216C767.763 54.2703 767.463 54.4309 767.106 54.6034C766.75 54.7759 766.148 54.9705 765.3 55.1873C764.464 55.4041 763.718 55.5399 763.063 55.5946C762.407 55.6493 762.004 55.701 761.855 55.7497C761.719 55.7985 761.392 55.8449 760.875 55.8887C760.358 55.9326 760.044 55.9791 759.933 56.0283C759.835 56.0776 759.004 56.168 757.44 56.2994C755.876 56.4308 754.998 56.4889 754.807 56.4738C754.615 56.4459 754.463 56.4566 754.352 56.5058C754.254 56.5551 753.985 56.6022 753.544 56.6471C753.115 56.6794 752.785 56.6878 752.556 56.6721C752.326 56.6438 752.174 56.6545 752.102 56.7041C752.041 56.7413 751.897 56.7711 751.67 56.7934C751.456 56.8159 751.37 56.8591 751.412 56.9229C751.454 56.9868 751.515 57.0382 751.594 57.0772C751.685 57.1164 752.044 57.3679 752.671 57.8317C753.31 58.283 753.838 58.695 754.256 59.0675C754.686 59.4275 755.093 59.9328 755.479 60.5833C755.877 61.234 756.286 62.1443 756.706 63.3142C757.126 64.4841 757.347 65.24 757.37 65.5821C757.404 65.9116 757.435 66.2854 757.463 66.7034C757.504 67.1216 757.568 67.7173 757.658 68.4905C757.76 69.2639 757.837 69.7585 757.889 69.9744C757.942 70.2029 758.025 70.5014 758.139 70.8699C758.253 71.2511 758.484 71.5895 758.834 71.8852C759.183 72.1809 759.524 72.3436 759.855 72.3732C760.188 72.4155 760.562 72.4204 760.979 72.3879C761.396 72.3681 761.967 72.268 762.69 72.0876C763.427 71.9074 764.012 71.6556 764.448 71.3322C764.884 71.0215 765.231 70.8046 765.489 70.6814C765.747 70.5582 766.003 70.4033 766.257 70.2168C766.512 70.0429 766.966 69.7135 767.618 69.2284C768.285 68.7562 769.009 68.2088 769.793 67.5862C770.575 66.951 771.049 66.5395 771.214 66.3518C771.378 66.1515 771.586 65.9454 771.839 65.7335C772.09 65.509 772.393 65.1902 772.746 64.7772C773.111 64.3516 773.418 64.0076 773.667 63.745C773.927 63.47 774.097 63.2571 774.176 63.1062C774.254 62.9427 774.142 62.878 773.84 62.912C773.549 62.9335 773.089 62.9718 772.458 63.0268C771.84 63.0693 771.454 63.0832 771.301 63.0686C771.147 63.0413 770.793 63.0556 770.238 63.1116C769.696 63.1552 769.379 63.1637 769.289 63.1372C769.21 63.0982 769.115 63.1033 769.004 63.1524C768.905 63.1891 768.717 63.2119 768.438 63.221C768.172 63.2175 767.85 63.15 767.473 63.0185C767.109 62.8745 767.327 62.4407 768.129 61.7171C768.944 60.9937 769.727 60.561 770.478 60.4189C771.243 60.2771 772.367 60.2158 773.853 60.2353C775.351 60.2549 776.253 60.2857 776.56 60.3277C776.867 60.3697 777.248 60.4632 777.701 60.6084C778.168 60.7537 778.477 61.2198 778.631 62.0065C778.796 62.7807 778.615 63.5757 778.085 64.3914C777.556 65.2072 777.189 65.696 776.984 65.8578C776.778 66.007 776.631 66.1823 776.543 66.3836C776.467 66.5725 776.197 66.9043 775.734 67.3792C775.27 67.8414 774.713 68.3341 774.062 68.8571C773.411 69.3675 772.976 69.6972 772.758 69.8463C772.552 69.9955 772.324 70.1823 772.072 70.4068C771.833 70.6315 771.229 71.0793 770.259 71.75C769.289 72.4208 768.688 72.8369 768.458 72.9984C768.241 73.1728 767.972 73.3275 767.652 73.4625C767.332 73.6102 767.045 73.7899 766.793 74.0018C766.542 74.2263 766.3 74.4067 766.068 74.5429C765.837 74.6917 765.561 74.8273 765.239 74.9497C764.931 75.0849 764.207 75.3602 763.068 75.7756C761.928 76.191 761.234 76.4287 760.984 76.4887C760.734 76.5487 760.379 76.5377 759.917 76.4558C759.455 76.3864 759.083 76.3183 758.8 76.2513C758.516 76.1843 758.074 76.014 757.472 75.7403C756.87 75.4666 756.314 75.105 755.802 74.6553C755.303 74.2058 754.957 73.676 754.765 73.066C754.586 72.4688 754.332 71.4149 754.003 69.9045C753.689 68.4069 753.522 67.5251 753.505 67.2591C753.5 66.9932 753.467 66.6954 753.408 66.3655C753.36 66.0358 753.307 65.801 753.247 65.661C753.186 65.5083 753.114 65.2922 753.033 65.0127C752.951 64.7332 752.798 64.2439 752.574 63.5449C752.362 62.8333 752.062 62.2345 751.675 61.7485C751.299 61.25 750.883 60.8016 750.425 60.4032C749.979 59.9924 749.458 59.5932 748.862 59.2057C748.265 58.8182 747.396 58.4271 746.254 58.0325C745.111 57.6251 744.311 57.4185 743.854 57.4125C743.384 57.4064 742.983 57.3885 742.652 57.3588C742.319 57.3165 742.033 56.7369 741.794 55.62C741.555 54.4904 741.48 53.8376 741.57 53.6616C741.659 53.4729 741.872 53.3491 742.211 53.2903C742.536 53.2186 742.863 53.1786 743.192 53.1702C743.509 53.1617 743.769 53.1588 743.972 53.1615C744.174 53.1514 744.46 53.1679 744.831 53.2107C745.188 53.2407 745.581 53.2395 746.01 53.2071C746.427 53.1746 747.546 53.2272 749.369 53.365C751.204 53.4903 754.174 53.4216 758.278 53.1589C757.628 52.9226 757.15 52.7897 756.844 52.7604C756.537 52.7184 756.19 52.6506 755.803 52.5569C755.416 52.4633 755.076 52.4019 754.783 52.3727C754.488 52.3309 754.178 52.2446 753.852 52.1137C753.526 51.9702 753.239 51.8526 752.992 51.7607C752.757 51.6564 752.416 51.4874 751.969 51.2537C751.521 51.0074 751.092 50.6601 750.682 50.2117C750.285 49.7635 750.024 49.2729 749.9 48.7396C749.788 48.1939 749.752 47.7505 749.793 47.4093C749.834 47.0681 749.943 46.6076 750.12 46.0277C750.297 45.4478 750.444 44.9878 750.561 44.6476C750.678 44.3074 751.017 43.6853 751.579 42.7814C752.152 41.865 752.502 41.3063 752.628 41.1055C752.754 40.892 752.942 40.6666 753.192 40.4294C753.443 40.1922 754.199 39.5376 755.459 38.4657C756.732 37.3812 758.009 36.5499 759.289 35.9719C760.57 35.3938 761.354 35.075 761.642 35.0154C761.93 34.9559 762.247 34.8525 762.592 34.7051ZM771.267 37.2867C772.545 37.8097 774.281 38.4589 776.476 39.2344C778.683 40.01 780.516 40.6859 781.975 41.2618C783.433 41.8252 784.51 42.1936 785.206 42.3673C785.903 42.5409 786.592 42.7082 787.275 42.869C787.958 43.0298 788.975 43.252 790.325 43.5354C791.676 43.8189 792.691 44.1106 793.37 44.4106C794.062 44.7108 794.436 45.1776 794.49 45.8112C794.545 46.4447 794.176 47.098 793.384 47.7711C792.59 48.4315 791.689 49.0019 790.681 49.4823C793.275 48.4278 794.811 47.7771 795.289 47.5303C795.767 47.2707 796.11 47.0917 796.319 46.9932C796.541 46.8948 796.912 46.7541 797.432 46.5711C797.965 46.3756 798.723 46.0438 799.707 45.5757C800.703 45.1078 801.409 44.7563 801.825 44.5213C802.252 44.2738 802.966 43.9414 803.965 43.5241C804.964 43.0942 805.696 42.9393 806.16 43.0593C806.624 43.1666 807.112 43.8248 807.623 45.0338C808.146 46.2304 808.244 47.0354 807.916 47.4488C807.588 47.8621 807.342 48.169 807.178 48.3694C807.013 48.557 806.75 48.7941 806.388 49.0804C806.027 49.3668 805.25 50.2806 804.058 51.8217C802.867 53.3629 801.913 54.9515 801.197 56.5874C800.48 58.2107 799.902 59.7283 799.463 61.1401C799.023 62.5392 798.715 63.7312 798.539 64.7161C798.364 65.701 798.283 66.3961 798.297 66.8013C798.311 67.2065 798.327 67.6307 798.343 68.0739C798.36 68.5171 798.413 69.0367 798.504 69.6327C798.607 70.2416 798.764 71.079 798.974 72.1449C799.185 73.2235 799.433 73.9988 799.718 74.4708C800.017 74.9556 799.518 75.2782 798.222 75.4384C796.939 75.5988 796.221 75.5704 796.067 75.3532C795.926 75.1489 795.79 74.913 795.658 74.6455C795.527 74.3779 795.28 73.9128 794.919 73.2499C794.558 72.587 794.242 71.6463 793.971 70.4277C793.7 69.2091 793.554 68.0492 793.531 66.9477C793.508 65.8337 793.639 64.4621 793.925 62.8332C794.21 61.2042 794.75 59.3065 795.545 57.14C796.353 54.9736 797.034 53.4764 797.588 52.6483C798.142 51.8202 798.486 51.1792 798.621 50.7254C798.755 50.2588 794.484 51.8356 785.807 55.4557C786.643 56.3906 787.46 58.1985 788.259 60.8795L784.261 61.9852C783.66 59.9903 782.837 58.2962 781.794 56.903C779.083 57.7281 777.453 58.2067 776.904 58.3388C776.367 58.4583 775.877 58.338 775.434 57.9778C774.991 57.605 774.769 57.311 774.767 57.0958C774.766 56.8806 774.835 56.679 774.974 56.491C775.113 56.2903 775.705 55.8424 776.75 55.1473C777.794 54.4395 778.841 53.7761 779.89 53.157C778.492 50.4302 774.77 45.9327 768.723 39.6645L771.267 37.2867ZM776.532 42.6714C777.876 43.6129 780.085 46.3314 783.16 50.8267C786.531 49.061 788.399 47.8704 788.764 47.255C789.129 46.6396 788.234 46.1469 786.079 45.777C783.924 45.4071 780.741 44.3719 776.532 42.6714ZM822.396 39.7216L815.834 52.9631C814.975 44.0163 813.567 40.7578 811.61 43.1876C809.653 45.6173 808.386 47.36 807.809 48.4156C807.231 49.4585 807.371 50.321 808.228 51.003C809.085 51.685 811.195 52.529 814.559 53.5349C817.936 54.5284 823.582 56.5704 831.498 59.661C839.426 62.739 842.658 65.6797 841.195 68.483C839.744 71.2737 832.365 72.8415 819.057 73.1862C805.764 73.5437 799.003 71.7213 798.776 67.7188C798.548 63.7037 803.639 60.3214 814.047 57.572C812.8 61.7197 812.23 64.6106 812.338 66.2447C812.459 67.8663 812.54 68.8989 812.582 69.3424C812.624 69.7859 812.162 69.5141 811.196 68.5269C810.242 67.5272 809.733 66.2549 809.668 64.7099C809.604 63.165 809.732 62.3123 810.051 62.152C804.171 64.7202 801.981 66.6976 803.481 68.0842C804.992 69.4582 811.026 69.8916 821.583 69.3843C832.153 68.8772 836.878 67.8316 835.758 66.2475C834.638 64.6508 831.94 63.084 827.666 61.5472C823.403 59.998 818.731 58.494 813.65 57.0352C808.581 55.564 805.338 53.9015 803.921 52.0478C802.505 50.194 804.166 46.5453 808.904 41.1018C813.653 35.6457 816.43 36.9667 817.233 45.0647L818.482 40.9424L822.396 39.7216Z" fill="white"/>
<path d="M95.8307 35.3693C91.5021 32.537 86.5112 30.2824 81.0251 28.6997C80.9744 28.6927 80.9201 28.6963 80.8658 28.7102C80.8116 28.7242 80.7588 28.7481 80.7111 28.7805C79.556 29.9158 78.1464 31.4054 77.1471 32.5574C71.279 31.01 64.9756 30.3318 58.4473 30.5454C58.3695 29.2393 58.1291 27.6103 57.8428 26.3199C57.8314 26.2424 57.7282 26.1931 57.6114 26.1805C51.4101 26.5057 45.2201 27.5573 39.1469 29.2703C39.108 29.2661 39.0553 29.2986 39.0025 29.3311C22.8077 43.1234 14.439 57.338 10.4885 71.8752C10.461 71.9486 10.4724 72.0262 10.5366 72.0712C15.7334 77.6687 21.3727 81.329 27.3055 83.9903C27.4086 84.0396 27.5392 84.0155 27.6057 83.9463C29.9205 82.0961 32.1208 80.119 34.1676 78.0109C34.3005 77.8725 34.2776 77.7174 34.1355 77.6639C32.2175 76.6178 30.4714 75.4376 28.8193 74.1147C28.691 74.0246 28.7735 73.8045 28.9317 73.707C29.4702 73.4596 30.0226 73.1755 30.5611 72.9281C30.6666 72.8631 30.7834 72.8756 30.8476 72.9207C42.0896 80.1229 56.543 81.678 71.9482 77.343C72.0399 77.3147 72.1568 77.3273 72.2072 77.409C72.5119 77.7853 72.8304 78.125 73.1352 78.5013C73.2497 78.6281 73.1672 78.8482 72.9449 78.9007C70.4927 79.8201 68.0061 80.5067 65.4829 81.075C65.3133 81.0949 65.2056 81.2742 65.2033 81.3884C65.6109 83.7606 66.2156 86.0395 66.9784 88.2208C67.0816 88.2701 67.1847 88.3194 67.3153 88.2953C74.7451 87.0717 82.5852 84.8618 91.4133 80.7733C91.5049 80.745 91.5714 80.6758 91.5989 80.6024C99.544 64.1667 100.392 49.2574 95.9591 35.4594C95.9339 35.4185 95.9087 35.3777 95.8307 35.3693ZM40.7738 66.0114C36.7611 65.5796 34.7174 61.7337 36.3267 57.441C37.9361 53.1484 42.5153 50.015 46.6058 50.4552C50.7354 50.8995 52.6874 54.7738 51.0528 59.0255C49.4435 63.3182 44.8643 66.4515 40.7738 66.0114ZM67.9274 68.933C63.9148 68.5013 61.8711 64.6553 63.4804 60.3627C65.0898 56.0701 69.6689 52.9367 73.7595 53.3768C77.8891 53.8211 79.8411 57.6954 78.2065 61.9472C76.5972 66.2398 72.057 69.3774 67.9274 68.933Z" fill="url(#paint3_linear_2028_2)"/>
<path d="M1342.91 37.0909C1347.11 34.0654 1351.99 31.5869 1357.4 29.7572C1357.45 29.7478 1357.5 29.7489 1357.56 29.7604C1357.61 29.7719 1357.67 29.7934 1357.72 29.8236C1358.92 30.9053 1360.4 32.3295 1361.45 33.4351C1367.24 31.6233 1373.51 30.66 1380.04 30.5775C1380.05 29.2692 1380.22 27.631 1380.45 26.329C1380.46 26.251 1380.56 26.1971 1380.67 26.1792C1386.88 26.223 1393.11 26.9929 1399.26 28.4289C1399.3 28.423 1399.35 28.4531 1399.41 28.4831C1416.21 41.5272 1425.21 55.3478 1429.82 69.6911C1429.85 69.7631 1429.84 69.8412 1429.78 69.8891C1424.84 75.7164 1419.37 79.6285 1413.57 82.556C1413.47 82.6099 1413.34 82.5917 1413.27 82.5256C1410.87 80.7822 1408.58 78.9069 1406.44 76.8938C1406.3 76.7615 1406.32 76.6055 1406.46 76.5457C1408.33 75.4137 1410.02 74.1555 1411.61 72.7592C1411.73 72.6633 1411.64 72.4471 1411.48 72.3569C1410.93 72.1342 1410.36 71.8754 1409.82 71.6527C1409.71 71.5925 1409.59 71.6104 1409.53 71.6583C1398.62 79.3626 1384.26 81.5713 1368.67 77.939C1368.58 77.9149 1368.46 77.9327 1368.41 78.0167C1368.13 78.4064 1367.82 78.7601 1367.54 79.1499C1367.43 79.2818 1367.52 79.4979 1367.75 79.5402C1370.24 80.3475 1372.75 80.9208 1375.3 81.3741C1375.47 81.3863 1375.58 81.5605 1375.59 81.6745C1375.29 84.0627 1374.79 86.3667 1374.13 88.5804C1374.03 88.6343 1373.93 88.6882 1373.8 88.67C1366.32 87.7845 1358.39 85.9321 1349.38 82.248C1349.29 82.2239 1349.22 82.1578 1349.19 82.0858C1340.51 66.027 1338.98 51.1715 1342.79 37.1868C1342.81 37.1448 1342.83 37.1028 1342.91 37.0909ZM1399.3 65.206C1403.29 64.5928 1405.16 60.6582 1403.35 56.4429C1401.55 52.2276 1396.83 49.305 1392.77 49.9301C1388.66 50.5612 1386.89 54.5199 1388.71 58.6932C1390.52 62.9085 1395.23 65.8311 1399.3 65.206ZM1372.31 69.3554C1376.3 68.7422 1378.16 64.8076 1376.36 60.5923C1374.56 56.377 1369.84 53.4544 1365.77 54.0795C1361.67 54.7106 1359.9 58.6693 1361.72 62.8426C1363.52 67.0579 1368.2 69.9865 1372.31 69.3554Z" fill="url(#paint4_linear_2028_2)"/>
<path d="M1020.11 23.0948C1013.39 20.7256 1006.41 19.085 999.444 18.2483C999.386 18.2487 999.332 18.2612 999.286 18.2849C999.24 18.3086 999.203 18.3428 999.178 18.3853C998.848 19.7941 998.526 21.6256 998.372 23.0277C991.029 22.2897 983.903 22.5589 977.233 23.8264C976.14 22.4291 974.627 20.7092 973.327 19.362C973.255 19.2801 973.109 19.2433 972.977 19.2483C966.736 20.5843 961.069 22.7024 956.037 25.5159C955.993 25.5175 955.962 25.561 955.932 25.6044C949.658 43.0623 951.906 59.7329 959.029 76.0499C959.057 76.1335 959.129 76.2154 959.231 76.2538C969.008 81.4695 977.748 84.5243 986.022 86.4542C986.168 86.491 986.286 86.4442 986.302 86.359C987.293 83.9944 988.065 81.5111 988.575 78.9108C988.607 78.7404 988.463 78.5766 988.273 78.5414C985.455 77.7171 982.712 76.7206 979.958 75.5553C979.753 75.4784 979.669 75.2277 979.759 75.0974C980.132 74.7448 980.49 74.3505 980.862 73.9979C980.922 73.911 981.054 73.906 981.157 73.9445C998.506 79.9319 1014.84 79.3146 1027.62 72.189C1027.69 72.1439 1027.82 72.1389 1027.94 72.2192C1028.55 72.5769 1029.15 72.8928 1029.76 73.2506C1029.98 73.3693 1030.06 73.62 1029.87 73.7118C1028.01 75.0936 1025.94 76.2297 1023.74 77.2437C1023.58 77.2922 1023.6 77.5028 1023.69 77.6264C1025.95 80.1219 1028.35 82.4854 1030.84 84.7185C1030.99 84.7553 1031.13 84.7921 1031.25 84.7453C1038.08 82.2446 1044.58 78.6142 1050.66 72.7994C1050.73 72.7543 1050.75 72.6691 1050.72 72.5855C1046.31 53.585 1035.65 37.3593 1020.32 23.1717C1020.26 23.1316 1020.2 23.0915 1020.11 23.0948ZM986.198 64.9108C981.662 65.0822 976.543 61.256 974.904 56.3675C973.264 51.479 975.632 47.3699 980.256 47.1952C984.924 47.0188 989.969 50.8902 991.55 55.7385C993.19 60.6271 990.822 64.7361 986.198 64.9108ZM1016.89 63.7511C1012.36 63.9225 1007.24 60.0963 1005.6 55.2077C1003.96 50.3192 1006.33 46.2102 1010.95 46.0354C1015.62 45.8591 1020.66 49.7304 1022.25 54.5788C1023.89 59.4673 1021.56 63.5747 1016.89 63.7511Z" fill="url(#paint5_linear_2028_2)"/>
<path d="M436.237 22.1832C442.888 19.6105 449.807 17.7586 456.749 16.7101C456.807 16.7088 456.862 16.7196 456.909 16.7419C456.955 16.7642 456.993 16.7973 457.019 16.839C457.392 18.237 457.77 20.058 457.966 21.4547C465.283 20.4937 472.414 20.546 479.119 21.61C480.17 20.1801 481.63 18.4149 482.888 17.0288C482.957 16.9448 483.102 16.9035 483.234 16.9045C489.513 18.0499 495.242 19.9947 500.358 22.6538C500.402 22.6541 500.433 22.6966 500.464 22.7391C507.267 39.9981 505.528 56.7292 498.904 73.2554C498.878 73.3398 498.809 73.4239 498.708 73.4654C489.094 78.9762 480.451 82.2954 472.24 84.4761C472.095 84.5173 471.976 84.4741 471.957 84.3894C470.895 82.0561 470.047 79.5975 469.458 77.0139C469.421 76.8445 469.56 76.6764 469.749 76.6355C472.541 75.7258 475.252 74.6463 477.97 73.3978C478.172 73.3147 478.248 73.0616 478.154 72.934C477.771 72.593 477.401 72.2097 477.018 71.8686C476.956 71.7836 476.824 71.7826 476.723 71.8242C459.563 78.3366 443.213 78.2167 430.23 71.483C430.154 71.4402 430.022 71.4392 429.909 71.5229C429.309 71.8991 428.723 72.233 428.123 72.6092C427.909 72.7344 427.832 72.9876 428.027 73.0736C429.924 74.3982 432.029 75.4708 434.261 76.4174C434.424 76.4608 434.405 76.6721 434.322 76.7984C432.135 79.3616 429.81 81.7969 427.391 84.1047C427.246 84.1459 427.101 84.1871 426.981 84.144C420.077 81.8523 413.472 78.4212 407.221 72.794C407.145 72.7512 407.127 72.6665 407.152 72.5821C410.983 53.4562 421.146 36.9137 436.035 22.2663C436.092 22.2244 436.149 22.1826 436.237 22.1832ZM471.408 62.9481C475.947 62.9814 480.948 59.0013 482.438 54.0651C483.928 49.129 481.437 45.0939 476.809 45.0599C472.138 45.0256 467.213 49.0486 465.78 53.9429C464.289 58.879 466.781 62.9141 471.408 62.9481ZM440.692 62.7227C445.231 62.756 450.231 58.7758 451.722 53.8397C453.212 48.9036 450.72 44.8684 446.093 44.8345C441.422 44.8002 436.497 48.8232 435.064 53.7175C433.573 58.6536 436.021 62.6884 440.692 62.7227Z" fill="url(#paint6_linear_2028_2)"/>
<path d="M177.242 67.9711C180.068 67.8508 182.216 67.9992 183.686 68.4165C182.261 62.5377 181.95 57.8427 182.752 54.3317C181.45 56.8573 179.521 58.466 176.965 59.1579C174.408 59.8497 173.02 58.3945 172.8 54.7921C170.036 58.0715 166.882 61.035 163.338 63.6825C164.792 63.4011 166.212 63.2179 167.597 63.133L165.725 65.7555C161.226 66.1273 156.393 67.2607 151.225 69.156C162.699 61.8455 170.892 54.2704 175.805 46.4305C175.397 53.7018 176.005 57.0297 177.628 56.4141C179.254 55.7886 182.516 51.0147 187.412 42.0923C184.636 55.1142 185.394 65.0703 189.686 71.9606C183.807 70.6753 178.83 70.1945 174.755 70.5182L177.242 67.9711ZM201.367 54.5883C201.028 52.8751 200.797 50.557 200.673 47.6339C199.161 50.2573 197.571 52.7133 195.905 55.0017C198.64 54.6942 200.46 54.5564 201.367 54.5883ZM201.42 56.7584C200.063 56.676 197.719 56.8616 194.391 57.3152C192.298 59.7501 190.588 61.3742 189.26 62.1874L183.852 63.0734C186.129 61.8395 188.38 60.0102 190.605 57.5855L186.045 58.2818L187.711 56.2492L192.468 55.3025C195.128 52.0523 198.601 47.1658 202.886 40.643C202.869 46.4097 203.417 51.0265 204.528 54.4935L207.315 54.5748C208.655 51.1931 210.273 48.4469 212.169 46.3362C210.231 50.5036 209.377 54.044 209.608 56.9575L204.499 56.8109C205.888 61.4497 208.222 65.1168 211.501 67.8121C214.78 70.5075 209.099 71.9487 194.458 72.1357C179.813 72.3326 180.212 69.1059 195.657 62.4555C185.815 67.3988 185.675 69.8389 195.237 69.776C204.809 69.7132 208.417 68.6994 206.061 66.7347C203.704 64.7701 202.157 61.4446 201.42 56.7584ZM233.663 44.3126L223.929 54.6489C226.14 47.7072 226.042 45.1876 223.635 47.0903C221.228 48.993 219.614 50.3565 218.794 51.181C217.977 51.9956 217.81 52.6643 218.295 53.1872C218.779 53.71 220.244 54.3487 222.691 55.1032C225.152 55.8478 229.143 57.3888 234.664 59.7261C240.198 62.0535 241.905 64.3117 239.783 66.5005C237.676 68.6795 231.077 69.9559 219.988 70.3296C208.906 70.7132 203.925 69.3516 205.043 66.2449C206.166 63.1283 211.468 60.4609 220.951 58.2427C218.568 61.4739 217.155 63.7237 216.711 64.992C216.281 66.2504 216.011 67.0517 215.901 67.3959C215.791 67.74 215.499 67.5326 215.024 66.7735C214.563 66.0047 214.559 65.0206 215.01 63.8212C215.461 62.6219 215.844 61.9586 216.16 61.8316C210.472 63.873 208.02 65.4262 208.805 66.4911C209.603 67.5463 214.439 67.8348 223.312 67.3567C232.196 66.8787 236.435 66.029 236.028 64.8076C235.625 63.5764 233.911 62.3811 230.887 61.2216C227.876 60.0523 224.514 58.9214 220.798 57.8289C217.097 56.7267 214.965 55.4613 214.401 54.0329C213.838 52.6044 216.399 49.7574 222.083 45.4919C227.782 41.2166 229.641 42.2204 227.66 48.5034L230.036 45.2919L233.663 44.3126ZM252.056 46.9009C253.15 46.9038 254.091 46.8965 254.879 46.879C258.382 46.7604 260.361 46.7067 260.816 46.7178C261.274 46.719 261.762 46.7105 262.279 46.6922C262.8 46.664 263.142 46.7437 263.306 46.9311C263.47 47.1185 263.303 47.7282 262.806 48.7602C262.323 49.7823 261.307 51.0786 259.756 52.649C258.219 54.2095 257.855 55.3255 258.662 55.9968C259.47 56.6682 259.672 57.087 259.27 57.2532L256.605 57.6741C256.358 57.6931 255.942 57.3033 255.356 56.5046C254.771 55.7059 255.236 54.4967 256.751 52.8771C258.267 51.2574 258.699 50.4565 258.046 50.4745C257.407 50.4826 255.81 50.5324 253.255 50.624C252.463 50.6514 251.496 50.6586 250.354 50.6457C250.113 51.2158 249.868 51.8105 249.62 52.4299C248.511 55.2118 247.548 58.4518 246.733 62.1498C245.929 65.8478 245.411 68.3558 245.179 69.6739C244.957 70.992 244.626 71.7734 244.186 72.0183C243.753 72.273 243.352 72.4343 242.984 72.5022C242.623 72.5799 242.148 72.5688 241.557 72.4688C240.966 72.3688 240.641 72.1515 240.581 71.8167C240.528 71.4918 241.352 67.8283 243.052 60.8262C244.383 56.608 245.57 53.1128 246.614 50.3404C246.405 50.3104 246.197 50.2803 245.988 50.2502C243.696 49.9193 242.129 49.6002 241.287 49.2929C241.423 51.6747 241.051 53.199 240.171 53.8659C239.292 54.5327 238.562 54.8309 237.981 54.7604L236.33 54.5641C235.85 54.3561 236.168 53.9388 237.284 53.3119C238.404 52.6753 238.798 51.6381 238.467 50.2005C238.13 48.753 238.051 47.3554 238.23 46.0076C238.499 45.1817 239.463 44.9432 241.124 45.2921C242.788 45.6312 244.621 46.01 246.622 46.4287C247.081 46.5185 247.579 46.5986 248.118 46.6689C249.518 43.563 250.587 42.1635 251.324 42.4705L253.074 42.7409C253.814 42.8905 253.699 43.8448 252.729 45.6037C252.515 46.0066 252.291 46.439 252.056 46.9009ZM276.72 41.1364C277.053 41.0192 277.551 41.0107 278.215 41.1109C278.882 41.2012 279.313 41.4287 279.509 41.7934C279.715 42.158 279.718 42.6993 279.519 43.4171C279.32 44.135 279.186 44.6365 279.117 44.9217C279.049 45.2069 278.671 45.9883 277.984 47.2657C277.307 48.5432 276.905 49.29 276.777 49.5062C276.66 49.7224 276.508 49.9631 276.321 50.2283C276.148 50.4837 275.967 50.7932 275.777 51.1568C275.598 51.5204 275.439 51.7365 275.3 51.805C275.172 51.8735 274.687 51.887 273.847 51.8454C273.007 51.8038 272.562 51.6894 272.513 51.5023C272.467 51.3054 272.895 50.3962 273.796 48.7749C274.711 47.1438 275.232 46.2054 275.36 45.9597C275.491 45.7042 275.603 45.4289 275.696 45.134C275.792 44.8291 275.819 44.5734 275.777 44.3666C275.735 44.1598 275.575 44.0511 275.297 44.0405C275.033 44.0202 274.41 44.1907 273.429 44.5522C272.447 44.9137 271.528 45.3639 270.672 45.9028C269.82 46.4319 269.17 46.8583 268.723 47.1818C268.276 47.5054 267.726 47.991 267.072 48.6388C266.428 49.2865 266.028 49.7283 265.873 49.9641C265.731 50.19 265.608 50.4505 265.505 50.7454C265.402 51.0404 265.366 51.2912 265.398 51.498C265.433 51.6949 265.545 51.8526 265.733 51.9712C265.935 52.08 266.206 52.2431 266.547 52.4605C266.902 52.6681 268.116 52.9666 270.19 53.356C272.275 53.7454 273.586 54.0048 274.125 54.1341C274.667 54.2537 274.994 54.3923 275.105 54.5501C275.227 54.7079 275.28 54.9885 275.264 55.3919C275.248 55.7953 275.11 56.0557 274.85 56.1731C274.6 56.2906 274.3 56.4177 273.95 56.5545C273.6 56.6914 273.04 56.8473 272.269 57.0224C271.509 57.1975 270.85 57.3089 270.291 57.3566C269.732 57.4043 269.384 57.4476 269.245 57.4866C269.116 57.5256 268.832 57.5642 268.391 57.6024C267.95 57.6406 267.676 57.6792 267.568 57.7183C267.471 57.7574 266.756 57.8342 265.423 57.9487C264.09 58.0632 263.347 58.1154 263.195 58.1051C263.045 58.085 262.917 58.0945 262.809 58.1336C262.712 58.1727 262.475 58.2114 262.096 58.2498C261.732 58.2783 261.457 58.2874 261.273 58.2771C261.093 58.2569 260.964 58.2664 260.888 58.3056C260.826 58.3349 260.697 58.3592 260.503 58.3783C260.319 58.3975 260.234 58.4318 260.248 58.481C260.262 58.5302 260.295 58.5697 260.347 58.5994C260.41 58.629 260.624 58.8215 260.99 59.1768C261.369 59.5222 261.671 59.8379 261.894 60.1239C262.131 60.4001 262.302 60.7893 262.408 61.2914C262.524 61.7936 262.564 62.4974 262.529 63.4026C262.493 64.3079 262.429 64.8933 262.336 65.1587C262.257 65.4144 262.161 65.7044 262.047 66.0289C261.944 66.3533 261.803 66.8155 261.624 67.4153C261.456 68.0151 261.358 68.3987 261.331 68.5659C261.3 68.7429 261.272 68.9741 261.245 69.2594C261.214 69.5546 261.295 69.8156 261.487 70.0424C261.678 70.2693 261.906 70.3929 262.17 70.4133C262.431 70.4435 262.738 70.4443 263.092 70.4158C263.443 70.397 263.946 70.3147 264.602 70.1689C265.268 70.023 265.833 69.8228 266.298 69.5682C266.759 69.3234 267.116 69.1522 267.369 69.0544C267.622 68.9567 267.884 68.8344 268.154 68.6875C268.421 68.5505 268.903 68.291 269.6 67.909C270.304 67.537 271.08 67.1061 271.929 66.6163C272.782 66.1167 273.307 65.7934 273.504 65.6463C273.705 65.4894 273.944 65.3276 274.222 65.1611C274.502 64.9847 274.856 64.7347 275.282 64.4111C275.722 64.0777 276.087 63.8081 276.378 63.6022C276.683 63.3865 276.893 63.2198 277.007 63.102C277.124 62.9744 277.053 62.925 276.793 62.9538C276.546 62.9728 276.154 63.0062 275.616 63.054C275.092 63.0919 274.769 63.1058 274.647 63.0957C274.529 63.0757 274.232 63.0896 273.757 63.1375C273.295 63.1757 273.031 63.1848 272.965 63.1649C272.913 63.1353 272.833 63.14 272.726 63.1791C272.632 63.2083 272.469 63.2276 272.236 63.2368C272.018 63.2362 271.774 63.1863 271.507 63.0872C271.253 62.9783 271.575 62.6396 272.472 62.0713C273.38 61.5029 274.168 61.1606 274.834 61.0443C275.511 60.9281 276.458 60.8716 277.677 60.8748C278.906 60.8781 279.641 60.8949 279.88 60.925C280.12 60.9552 280.403 61.0248 280.73 61.134C281.067 61.2431 281.171 61.6026 281.04 62.2124C280.924 62.8124 280.515 63.4312 279.812 64.069C279.109 64.7068 278.647 65.0893 278.425 65.2167C278.206 65.3342 278.028 65.4715 277.89 65.6285C277.765 65.7758 277.434 66.0357 276.897 66.4082C276.364 66.7709 275.743 67.158 275.036 67.5694C274.333 67.971 273.866 68.2305 273.638 68.348C273.419 68.4655 273.17 68.6124 272.889 68.7888C272.619 68.9652 271.974 69.3177 270.955 69.8464C269.936 70.3751 269.305 70.7031 269.062 70.8303C268.826 70.9675 268.554 71.0898 268.245 71.1972C267.933 71.3144 267.639 71.4563 267.361 71.6229C267.081 71.7993 266.822 71.9413 266.587 72.0489C266.347 72.1663 266.075 72.2739 265.77 72.3714C265.472 72.4789 264.785 72.6985 263.71 73.0302C262.634 73.3619 261.984 73.552 261.758 73.6006C261.533 73.6492 261.243 73.6435 260.888 73.5835C260.531 73.5334 260.246 73.4834 260.034 73.4336C259.822 73.3839 259.512 73.2551 259.105 73.0473C258.699 72.8396 258.357 72.5631 258.082 72.218C257.817 71.8728 257.705 71.4641 257.745 70.9919C257.792 70.5295 257.927 69.713 258.149 68.5426C258.378 67.382 258.529 66.6984 258.601 66.492C258.684 66.2855 258.754 66.0545 258.812 65.7987C258.881 65.5431 258.913 65.3611 258.91 65.2528C258.909 65.1348 258.921 64.9675 258.944 64.7511C258.968 64.5346 259.002 64.1558 259.045 63.6147C259.102 63.0638 259.051 62.6011 258.89 62.2267C258.743 61.8425 258.545 61.4976 258.298 61.1918C258.064 60.8763 257.765 60.5704 257.399 60.2742C257.034 59.978 256.444 59.6812 255.631 59.3838C254.821 59.0766 254.229 58.9224 253.854 58.9214C253.468 58.9204 253.143 58.9097 252.879 58.8893C252.619 58.8591 252.572 58.4112 252.74 57.5456C252.911 56.6703 253.062 56.1639 253.194 56.0264C253.329 55.8792 253.545 55.7814 253.844 55.733C254.135 55.6747 254.418 55.641 254.692 55.6319C254.956 55.6228 255.171 55.6184 255.338 55.6189C255.508 55.6095 255.739 55.62 256.031 55.6503C256.316 55.6707 256.64 55.6667 257.005 55.6381C257.359 55.6095 258.265 55.6415 259.724 55.734C261.196 55.8167 263.668 55.7397 267.14 55.5029C266.681 55.3246 266.33 55.2252 266.087 55.2049C265.847 55.1747 265.583 55.1248 265.295 55.0552C265.006 54.9855 264.746 54.9405 264.513 54.9202C264.284 54.8901 264.056 54.8255 263.83 54.7265C263.607 54.6176 263.409 54.5285 263.235 54.4592C263.076 54.38 262.849 54.2515 262.557 54.0736C262.268 53.8858 262.028 53.6195 261.836 53.2745C261.654 52.9296 261.599 52.5506 261.671 52.1375C261.757 51.7145 261.872 51.3704 262.017 51.1051C262.162 50.8398 262.402 50.4812 262.737 50.0294C263.073 49.5777 263.344 49.2192 263.552 48.9541C263.759 48.6889 264.242 48.2031 265 47.4966C265.772 46.7803 266.243 46.3436 266.413 46.1866C266.586 46.0198 266.815 45.8433 267.099 45.657C267.383 45.4708 268.22 44.9564 269.61 44.1138C271.013 43.2615 272.338 42.6057 273.583 42.1465C274.828 41.6873 275.579 41.4335 275.836 41.385C276.092 41.3364 276.387 41.2536 276.72 41.1364ZM283.033 43.0723C283.917 43.4683 285.137 43.9587 286.694 44.5435C288.262 45.1283 289.553 45.6386 290.569 46.0743C291.587 46.5002 292.355 46.7778 292.873 46.9071C293.391 47.0365 293.905 47.1608 294.416 47.2803C294.927 47.3998 295.693 47.5642 296.714 47.7736C297.736 47.983 298.478 48.2015 298.94 48.4291C299.413 48.6567 299.569 49.0163 299.407 49.5079C299.246 49.9995 298.728 50.5098 297.855 51.0389C296.985 51.5581 296.056 52.0083 295.067 52.3895C297.551 51.5498 299.03 51.0322 299.505 50.8367C299.984 50.6313 300.325 50.4895 300.53 50.4114C300.745 50.3332 301.097 50.221 301.586 50.0747C302.089 49.9186 302.823 49.6548 303.787 49.2835C304.761 48.9121 305.458 48.6335 305.878 48.4477C306.311 48.252 307.008 47.9882 307.969 47.6562C308.933 47.3144 309.587 47.1882 309.931 47.2777C310.279 47.3573 310.466 47.8646 310.493 48.7996C310.535 49.7247 310.352 50.3492 309.947 50.6728C309.542 50.9965 309.239 51.2368 309.038 51.3937C308.84 51.5408 308.546 51.7269 308.154 51.9522C307.763 52.1775 306.824 52.8934 305.338 54.0998C303.852 55.3063 302.547 56.5476 301.422 57.8239C300.301 59.0904 299.329 60.2736 298.506 61.3736C297.687 62.4637 297.044 63.3919 296.578 64.1583C296.111 64.9246 295.818 65.4651 295.697 65.7797C295.577 66.0943 295.451 66.4236 295.32 66.7677C295.189 67.1117 295.064 67.5149 294.944 67.9771C294.83 68.4491 294.687 69.0982 294.512 69.9244C294.334 70.7604 294.286 71.3606 294.367 71.7249C294.455 72.0991 293.938 72.3536 292.817 72.4883C291.706 72.6231 291.123 72.6068 291.067 72.4393C291.018 72.2818 290.982 72.0996 290.961 71.8929C290.939 71.6862 290.888 71.3268 290.807 70.8149C290.725 70.303 290.771 69.5749 290.946 68.6306C291.12 67.6863 291.377 66.7866 291.719 65.9314C292.063 65.0663 292.619 64 293.386 62.7326C294.153 61.4652 295.217 59.987 296.58 58.2981C297.954 56.6091 299.004 55.4409 299.731 54.7933C300.458 54.1458 300.951 53.6452 301.211 53.2916C301.473 52.9282 297.436 54.1869 289.097 57.0675C289.482 57.787 289.566 59.1846 289.35 61.2604L285.691 62.151C285.846 60.6064 285.721 59.2973 285.315 58.2235C282.81 58.886 281.309 59.2707 280.813 59.3776C280.331 59.4747 279.966 59.3852 279.718 59.1089C279.474 58.8229 279.387 58.5963 279.456 58.4292C279.525 58.2621 279.648 58.105 279.824 57.9579C280.004 57.8009 280.639 57.4483 281.727 56.9001C282.819 56.3421 283.899 55.8186 284.967 55.3294C284.704 53.2227 283.101 49.7594 280.159 44.9393L283.033 43.0723ZM285.619 47.2124C286.42 47.9329 287.355 50.0266 288.425 53.4935C291.782 52.0953 293.711 51.1557 294.213 50.6749C294.715 50.194 294.137 49.8185 292.48 49.5484C290.823 49.2782 288.536 48.4996 285.619 47.2124ZM324.412 44.5562L314.679 54.8925C316.89 47.9508 316.792 45.4312 314.385 47.3339C311.977 49.2366 310.364 50.6001 309.543 51.4246C308.726 52.2392 308.56 52.9079 309.044 53.4308C309.528 53.9536 310.994 54.5923 313.441 55.3468C315.901 56.0914 319.892 57.6324 325.413 59.9697C330.948 62.2971 332.655 64.5553 330.533 66.7441C328.425 68.9231 321.827 70.1995 310.738 70.5732C299.656 70.9567 294.674 69.5952 295.793 66.4885C296.915 63.3719 302.218 60.7045 311.7 58.4863C309.318 61.7175 307.905 63.9673 307.461 65.2356C307.031 66.494 306.761 67.2953 306.651 67.6395C306.541 67.9836 306.248 67.7762 305.774 67.0171C305.313 66.2483 305.308 65.2642 305.759 64.0648C306.211 62.8655 306.594 62.2022 306.91 62.0752C301.221 64.1166 298.77 65.6698 299.554 66.7347C300.353 67.7899 305.189 68.0784 314.062 67.6003C322.946 67.1223 327.184 66.2726 326.778 65.0512C326.375 63.82 324.661 62.6247 321.637 61.4652C318.626 60.2959 315.263 59.165 311.548 58.0725C307.847 56.9703 305.715 55.7049 305.151 54.2765C304.588 52.848 307.148 50.001 312.833 45.7355C318.531 41.4602 320.39 42.464 318.41 48.747L320.785 45.5355L324.412 44.5562Z" fill="white"/>
<path d="M1124.24 67.9711C1127.07 67.8508 1129.22 67.9992 1130.69 68.4165C1129.26 62.5377 1128.95 57.8427 1129.75 54.3317C1128.45 56.8573 1126.52 58.466 1123.96 59.1579C1121.41 59.8497 1120.02 58.3945 1119.8 54.7921C1117.04 58.0715 1113.88 61.035 1110.34 63.6825C1111.79 63.4011 1113.21 63.2179 1114.6 63.133L1112.72 65.7555C1108.23 66.1273 1103.39 67.2607 1098.22 69.156C1109.7 61.8455 1117.89 54.2704 1122.81 46.4305C1122.4 53.7018 1123 57.0297 1124.63 56.4141C1126.25 55.7886 1129.52 51.0147 1134.41 42.0923C1131.64 55.1142 1132.39 65.0703 1136.69 71.9606C1130.81 70.6753 1125.83 70.1945 1121.75 70.5182L1124.24 67.9711ZM1148.37 54.5883C1148.03 52.8751 1147.8 50.557 1147.67 47.6339C1146.16 50.2573 1144.57 52.7133 1142.9 55.0017C1145.64 54.6942 1147.46 54.5564 1148.37 54.5883ZM1148.42 56.7584C1147.06 56.676 1144.72 56.8616 1141.39 57.3152C1139.3 59.7501 1137.59 61.3742 1136.26 62.1874L1130.85 63.0734C1133.13 61.8395 1135.38 60.0102 1137.61 57.5855L1133.04 58.2818L1134.71 56.2492L1139.47 55.3025C1142.13 52.0523 1145.6 47.1658 1149.89 40.643C1149.87 46.4097 1150.42 51.0265 1151.53 54.4935L1154.31 54.5748C1155.65 51.1931 1157.27 48.4469 1159.17 46.3362C1157.23 50.5036 1156.38 54.044 1156.61 56.9575L1151.5 56.8109C1152.89 61.4497 1155.22 65.1168 1158.5 67.8121C1161.78 70.5075 1156.1 71.9487 1141.46 72.1357C1126.81 72.3326 1127.21 69.1059 1142.66 62.4555C1132.81 67.3988 1132.67 69.8389 1142.24 69.776C1151.81 69.7132 1155.42 68.6994 1153.06 66.7347C1150.7 64.7701 1149.16 61.4446 1148.42 56.7584ZM1180.66 44.3126L1170.93 54.6489C1173.14 47.7072 1173.04 45.1876 1170.63 47.0903C1168.23 48.993 1166.61 50.3565 1165.79 51.181C1164.98 51.9956 1164.81 52.6643 1165.29 53.1872C1165.78 53.71 1167.24 54.3487 1169.69 55.1032C1172.15 55.8478 1176.14 57.3888 1181.66 59.7261C1187.2 62.0535 1188.9 64.3117 1186.78 66.5005C1184.68 68.6795 1178.08 69.9559 1166.99 70.3296C1155.91 70.7132 1150.92 69.3516 1152.04 66.2449C1153.17 63.1283 1158.47 60.4609 1167.95 58.2427C1165.57 61.4739 1164.15 63.7237 1163.71 64.992C1163.28 66.2504 1163.01 67.0517 1162.9 67.3959C1162.79 67.74 1162.5 67.5326 1162.02 66.7735C1161.56 66.0047 1161.56 65.0206 1162.01 63.8212C1162.46 62.6219 1162.84 61.9586 1163.16 61.8316C1157.47 63.873 1155.02 65.4262 1155.8 66.4911C1156.6 67.5463 1161.44 67.8348 1170.31 67.3567C1179.2 66.8787 1183.43 66.029 1183.03 64.8076C1182.62 63.5764 1180.91 62.3811 1177.89 61.2216C1174.88 60.0523 1171.51 58.9214 1167.8 57.8289C1164.1 56.7267 1161.96 55.4613 1161.4 54.0329C1160.84 52.6044 1163.4 49.7574 1169.08 45.4919C1174.78 41.2166 1176.64 42.2204 1174.66 48.5034L1177.04 45.2919L1180.66 44.3126ZM1199.06 46.9009C1200.15 46.9038 1201.09 46.8965 1201.88 46.879C1205.38 46.7604 1207.36 46.7067 1207.82 46.7178C1208.27 46.719 1208.76 46.7105 1209.28 46.6922C1209.8 46.664 1210.14 46.7437 1210.31 46.9311C1210.47 47.1185 1210.3 47.7282 1209.81 48.7602C1209.32 49.7823 1208.31 51.0786 1206.76 52.649C1205.22 54.2095 1204.85 55.3255 1205.66 55.9968C1206.47 56.6682 1206.67 57.087 1206.27 57.2532L1203.6 57.6741C1203.36 57.6931 1202.94 57.3033 1202.36 56.5046C1201.77 55.7059 1202.24 54.4967 1203.75 52.8771C1205.27 51.2574 1205.7 50.4565 1205.05 50.4745C1204.41 50.4826 1202.81 50.5324 1200.25 50.624C1199.46 50.6514 1198.5 50.6586 1197.35 50.6457C1197.11 51.2158 1196.87 51.8105 1196.62 52.4299C1195.51 55.2118 1194.55 58.4518 1193.73 62.1498C1192.93 65.8478 1192.41 68.3558 1192.18 69.6739C1191.96 70.992 1191.63 71.7734 1191.19 72.0183C1190.75 72.273 1190.35 72.4343 1189.98 72.5022C1189.62 72.5799 1189.15 72.5688 1188.56 72.4688C1187.97 72.3688 1187.64 72.1515 1187.58 71.8167C1187.53 71.4918 1188.35 67.8283 1190.05 60.8262C1191.38 56.608 1192.57 53.1128 1193.61 50.3404C1193.4 50.3104 1193.2 50.2803 1192.99 50.2502C1190.7 49.9193 1189.13 49.6002 1188.29 49.2929C1188.42 51.6747 1188.05 53.199 1187.17 53.8659C1186.29 54.5327 1185.56 54.8309 1184.98 54.7604L1183.33 54.5641C1182.85 54.3561 1183.17 53.9388 1184.28 53.3119C1185.4 52.6753 1185.8 51.6381 1185.47 50.2005C1185.13 48.753 1185.05 47.3554 1185.23 46.0076C1185.5 45.1817 1186.46 44.9432 1188.12 45.2921C1189.79 45.6312 1191.62 46.01 1193.62 46.4287C1194.08 46.5185 1194.58 46.5986 1195.12 46.6689C1196.52 43.563 1197.59 42.1635 1198.32 42.4705L1200.07 42.7409C1200.81 42.8905 1200.7 43.8448 1199.73 45.6037C1199.51 46.0066 1199.29 46.439 1199.06 46.9009ZM1223.72 41.1364C1224.05 41.0192 1224.55 41.0107 1225.21 41.1109C1225.88 41.2012 1226.31 41.4287 1226.51 41.7934C1226.71 42.158 1226.72 42.6993 1226.52 43.4171C1226.32 44.135 1226.19 44.6365 1226.12 44.9217C1226.05 45.2069 1225.67 45.9883 1224.98 47.2657C1224.31 48.5432 1223.9 49.29 1223.78 49.5062C1223.66 49.7224 1223.51 49.9631 1223.32 50.2283C1223.15 50.4837 1222.97 50.7932 1222.78 51.1568C1222.6 51.5204 1222.44 51.7365 1222.3 51.805C1222.17 51.8735 1221.69 51.887 1220.85 51.8454C1220.01 51.8038 1219.56 51.6894 1219.51 51.5023C1219.47 51.3054 1219.89 50.3962 1220.8 48.7749C1221.71 47.1438 1222.23 46.2054 1222.36 45.9597C1222.49 45.7042 1222.6 45.4289 1222.7 45.134C1222.79 44.8291 1222.82 44.5734 1222.78 44.3666C1222.73 44.1598 1222.57 44.0511 1222.3 44.0405C1222.03 44.0202 1221.41 44.1907 1220.43 44.5522C1219.45 44.9137 1218.53 45.3639 1217.67 45.9028C1216.82 46.4319 1216.17 46.8583 1215.72 47.1818C1215.28 47.5054 1214.73 47.991 1214.07 48.6388C1213.43 49.2865 1213.03 49.7283 1212.87 49.9641C1212.73 50.19 1212.61 50.4505 1212.5 50.7454C1212.4 51.0404 1212.37 51.2912 1212.4 51.498C1212.43 51.6949 1212.54 51.8526 1212.73 51.9712C1212.93 52.08 1213.21 52.2431 1213.55 52.4605C1213.9 52.6681 1215.12 52.9666 1217.19 53.356C1219.27 53.7454 1220.59 54.0048 1221.12 54.1341C1221.67 54.2537 1221.99 54.3923 1222.11 54.5501C1222.23 54.7079 1222.28 54.9885 1222.26 55.3919C1222.25 55.7953 1222.11 56.0557 1221.85 56.1731C1221.6 56.2906 1221.3 56.4177 1220.95 56.5545C1220.6 56.6914 1220.04 56.8473 1219.27 57.0224C1218.51 57.1975 1217.85 57.3089 1217.29 57.3566C1216.73 57.4043 1216.38 57.4476 1216.24 57.4866C1216.12 57.5256 1215.83 57.5642 1215.39 57.6024C1214.95 57.6406 1214.68 57.6792 1214.57 57.7183C1214.47 57.7574 1213.76 57.8342 1212.42 57.9487C1211.09 58.0632 1210.35 58.1154 1210.19 58.1051C1210.04 58.085 1209.92 58.0945 1209.81 58.1336C1209.71 58.1727 1209.47 58.2114 1209.1 58.2498C1208.73 58.2783 1208.46 58.2874 1208.27 58.2771C1208.09 58.2569 1207.96 58.2664 1207.89 58.3056C1207.83 58.3349 1207.7 58.3592 1207.5 58.3783C1207.32 58.3975 1207.23 58.4318 1207.25 58.481C1207.26 58.5302 1207.29 58.5697 1207.35 58.5994C1207.41 58.629 1207.62 58.8215 1207.99 59.1768C1208.37 59.5222 1208.67 59.8379 1208.89 60.1239C1209.13 60.4001 1209.3 60.7893 1209.41 61.2914C1209.52 61.7936 1209.56 62.4974 1209.53 63.4026C1209.49 64.3079 1209.43 64.8933 1209.34 65.1587C1209.26 65.4144 1209.16 65.7044 1209.05 66.0289C1208.94 66.3533 1208.8 66.8155 1208.62 67.4153C1208.46 68.0151 1208.36 68.3987 1208.33 68.5659C1208.3 68.7429 1208.27 68.9741 1208.24 69.2594C1208.21 69.5546 1208.29 69.8156 1208.49 70.0424C1208.68 70.2693 1208.91 70.3929 1209.17 70.4133C1209.43 70.4435 1209.74 70.4443 1210.09 70.4158C1210.44 70.397 1210.95 70.3147 1211.6 70.1689C1212.27 70.023 1212.83 69.8228 1213.3 69.5682C1213.76 69.3234 1214.12 69.1522 1214.37 69.0544C1214.62 68.9567 1214.88 68.8344 1215.15 68.6875C1215.42 68.5505 1215.9 68.291 1216.6 67.909C1217.3 67.537 1218.08 67.1061 1218.93 66.6163C1219.78 66.1167 1220.31 65.7934 1220.5 65.6463C1220.7 65.4894 1220.94 65.3276 1221.22 65.1611C1221.5 64.9847 1221.86 64.7347 1222.28 64.4111C1222.72 64.0777 1223.09 63.8081 1223.38 63.6022C1223.68 63.3865 1223.89 63.2198 1224.01 63.102C1224.12 62.9744 1224.05 62.925 1223.79 62.9538C1223.55 62.9728 1223.15 63.0062 1222.62 63.054C1222.09 63.0919 1221.77 63.1058 1221.65 63.0957C1221.53 63.0757 1221.23 63.0896 1220.76 63.1375C1220.29 63.1757 1220.03 63.1848 1219.97 63.1649C1219.91 63.1353 1219.83 63.14 1219.73 63.1791C1219.63 63.2083 1219.47 63.2276 1219.24 63.2368C1219.02 63.2362 1218.77 63.1863 1218.51 63.0872C1218.25 62.9783 1218.57 62.6396 1219.47 62.0713C1220.38 61.5029 1221.17 61.1606 1221.83 61.0443C1222.51 60.9281 1223.46 60.8716 1224.68 60.8748C1225.91 60.8781 1226.64 60.8949 1226.88 60.925C1227.12 60.9552 1227.4 61.0248 1227.73 61.134C1228.07 61.2431 1228.17 61.6026 1228.04 62.2124C1227.92 62.8124 1227.51 63.4312 1226.81 64.069C1226.11 64.7068 1225.65 65.0893 1225.42 65.2167C1225.21 65.3342 1225.03 65.4715 1224.89 65.6285C1224.76 65.7758 1224.43 66.0357 1223.9 66.4082C1223.36 66.7709 1222.74 67.158 1222.04 67.5694C1221.33 67.971 1220.87 68.2305 1220.64 68.348C1220.42 68.4655 1220.17 68.6124 1219.89 68.7888C1219.62 68.9652 1218.97 69.3177 1217.95 69.8464C1216.94 70.3751 1216.3 70.7031 1216.06 70.8303C1215.83 70.9675 1215.55 71.0898 1215.25 71.1972C1214.93 71.3144 1214.64 71.4563 1214.36 71.6229C1214.08 71.7993 1213.82 71.9413 1213.59 72.0489C1213.35 72.1663 1213.07 72.2739 1212.77 72.3714C1212.47 72.4789 1211.78 72.6985 1210.71 73.0302C1209.63 73.3619 1208.98 73.552 1208.76 73.6006C1208.53 73.6492 1208.24 73.6435 1207.89 73.5835C1207.53 73.5334 1207.25 73.4834 1207.03 73.4336C1206.82 73.3839 1206.51 73.2551 1206.11 73.0473C1205.7 72.8396 1205.36 72.5631 1205.08 72.218C1204.82 71.8728 1204.7 71.4641 1204.74 70.9919C1204.79 70.5295 1204.93 69.713 1205.15 68.5426C1205.38 67.382 1205.53 66.6984 1205.6 66.492C1205.68 66.2855 1205.75 66.0545 1205.81 65.7987C1205.88 65.5431 1205.91 65.3611 1205.91 65.2528C1205.91 65.1348 1205.92 64.9675 1205.94 64.7511C1205.97 64.5346 1206 64.1558 1206.04 63.6147C1206.1 63.0638 1206.05 62.6011 1205.89 62.2267C1205.74 61.8425 1205.55 61.4976 1205.3 61.1918C1205.06 60.8763 1204.76 60.5704 1204.4 60.2742C1204.03 59.978 1203.44 59.6812 1202.63 59.3838C1201.82 59.0766 1201.23 58.9224 1200.85 58.9214C1200.47 58.9204 1200.14 58.9097 1199.88 58.8893C1199.62 58.8591 1199.57 58.4112 1199.74 57.5456C1199.91 56.6703 1200.06 56.1639 1200.19 56.0264C1200.33 55.8792 1200.54 55.7814 1200.84 55.733C1201.13 55.6747 1201.42 55.641 1201.69 55.6319C1201.96 55.6228 1202.17 55.6184 1202.34 55.6189C1202.51 55.6095 1202.74 55.62 1203.03 55.6503C1203.32 55.6707 1203.64 55.6667 1204 55.6381C1204.36 55.6095 1205.26 55.6415 1206.72 55.734C1208.2 55.8167 1210.67 55.7397 1214.14 55.5029C1213.68 55.3246 1213.33 55.2252 1213.09 55.2049C1212.85 55.1747 1212.58 55.1248 1212.29 55.0552C1212.01 54.9855 1211.75 54.9405 1211.51 54.9202C1211.28 54.8901 1211.06 54.8255 1210.83 54.7265C1210.61 54.6176 1210.41 54.5285 1210.24 54.4592C1210.08 54.38 1209.85 54.2515 1209.56 54.0736C1209.27 53.8858 1209.03 53.6195 1208.84 53.2745C1208.65 52.9296 1208.6 52.5506 1208.67 52.1375C1208.76 51.7145 1208.87 51.3704 1209.02 51.1051C1209.16 50.8398 1209.4 50.4812 1209.74 50.0294C1210.07 49.5777 1210.34 49.2192 1210.55 48.9541C1210.76 48.6889 1211.24 48.2031 1212 47.4966C1212.77 46.7803 1213.24 46.3436 1213.41 46.1866C1213.59 46.0198 1213.81 45.8433 1214.1 45.657C1214.38 45.4708 1215.22 44.9564 1216.61 44.1138C1218.01 43.2615 1219.34 42.6057 1220.58 42.1465C1221.83 41.6873 1222.58 41.4335 1222.84 41.385C1223.09 41.3364 1223.39 41.2536 1223.72 41.1364ZM1230.03 43.0723C1230.92 43.4683 1232.14 43.9587 1233.69 44.5435C1235.26 45.1283 1236.55 45.6386 1237.57 46.0743C1238.59 46.5002 1239.36 46.7778 1239.87 46.9071C1240.39 47.0365 1240.9 47.1608 1241.42 47.2803C1241.93 47.3998 1242.69 47.5642 1243.71 47.7736C1244.74 47.983 1245.48 48.2015 1245.94 48.4291C1246.41 48.6567 1246.57 49.0163 1246.41 49.5079C1246.25 49.9995 1245.73 50.5098 1244.85 51.0389C1243.98 51.5581 1243.06 52.0083 1242.07 52.3895C1244.55 51.5498 1246.03 51.0322 1246.5 50.8367C1246.98 50.6313 1247.32 50.4895 1247.53 50.4114C1247.74 50.3332 1248.1 50.221 1248.59 50.0747C1249.09 49.9186 1249.82 49.6548 1250.79 49.2835C1251.76 48.9121 1252.46 48.6335 1252.88 48.4477C1253.31 48.252 1254.01 47.9882 1254.97 47.6562C1255.93 47.3144 1256.59 47.1882 1256.93 47.2777C1257.28 47.3573 1257.47 47.8646 1257.49 48.7996C1257.53 49.7247 1257.35 50.3492 1256.95 50.6728C1256.54 50.9965 1256.24 51.2368 1256.04 51.3937C1255.84 51.5408 1255.55 51.7269 1255.15 51.9522C1254.76 52.1775 1253.82 52.8934 1252.34 54.0998C1250.85 55.3063 1249.55 56.5476 1248.42 57.8239C1247.3 59.0904 1246.33 60.2736 1245.51 61.3736C1244.69 62.4637 1244.04 63.3919 1243.58 64.1583C1243.11 64.9246 1242.82 65.4651 1242.7 65.7797C1242.58 66.0943 1242.45 66.4236 1242.32 66.7677C1242.19 67.1117 1242.06 67.5149 1241.94 67.9771C1241.83 68.4491 1241.69 69.0982 1241.51 69.9244C1241.33 70.7604 1241.29 71.3606 1241.37 71.7249C1241.45 72.0991 1240.94 72.3536 1239.82 72.4883C1238.71 72.6231 1238.12 72.6068 1238.07 72.4393C1238.02 72.2818 1237.98 72.0996 1237.96 71.8929C1237.94 71.6862 1237.89 71.3268 1237.81 70.8149C1237.72 70.303 1237.77 69.5749 1237.95 68.6306C1238.12 67.6863 1238.38 66.7866 1238.72 65.9314C1239.06 65.0663 1239.62 64 1240.39 62.7326C1241.15 61.4652 1242.22 59.987 1243.58 58.2981C1244.95 56.6091 1246 55.4409 1246.73 54.7933C1247.46 54.1458 1247.95 53.6452 1248.21 53.2916C1248.47 52.9282 1244.44 54.1869 1236.1 57.0675C1236.48 57.787 1236.57 59.1846 1236.35 61.2604L1232.69 62.151C1232.85 60.6064 1232.72 59.2973 1232.31 58.2235C1229.81 58.886 1228.31 59.2707 1227.81 59.3776C1227.33 59.4747 1226.97 59.3852 1226.72 59.1089C1226.47 58.8229 1226.39 58.5963 1226.46 58.4292C1226.52 58.2621 1226.65 58.105 1226.82 57.9579C1227 57.8009 1227.64 57.4483 1228.73 56.9001C1229.82 56.3421 1230.9 55.8186 1231.97 55.3294C1231.7 53.2227 1230.1 49.7594 1227.16 44.9393L1230.03 43.0723ZM1232.62 47.2124C1233.42 47.9329 1234.35 50.0266 1235.42 53.4935C1238.78 52.0953 1240.71 51.1557 1241.21 50.6749C1241.71 50.194 1241.14 49.8185 1239.48 49.5484C1237.82 49.2782 1235.54 48.4996 1232.62 47.2124ZM1271.41 44.5562L1261.68 54.8925C1263.89 47.9508 1263.79 45.4312 1261.38 47.3339C1258.98 49.2366 1257.36 50.6001 1256.54 51.4246C1255.73 52.2392 1255.56 52.9079 1256.04 53.4308C1256.53 53.9536 1257.99 54.5923 1260.44 55.3468C1262.9 56.0914 1266.89 57.6324 1272.41 59.9697C1277.95 62.2971 1279.65 64.5553 1277.53 66.7441C1275.42 68.9231 1268.83 70.1995 1257.74 70.5732C1246.66 70.9567 1241.67 69.5952 1242.79 66.4885C1243.92 63.3719 1249.22 60.7045 1258.7 58.4863C1256.32 61.7175 1254.9 63.9673 1254.46 65.2356C1254.03 66.494 1253.76 67.2953 1253.65 67.6395C1253.54 67.9836 1253.25 67.7762 1252.77 67.0171C1252.31 66.2483 1252.31 65.2642 1252.76 64.0648C1253.21 62.8655 1253.59 62.2022 1253.91 62.0752C1248.22 64.1166 1245.77 65.6698 1246.55 66.7347C1247.35 67.7899 1252.19 68.0784 1261.06 67.6003C1269.95 67.1223 1274.18 66.2726 1273.78 65.0512C1273.37 63.82 1271.66 62.6247 1268.64 61.4652C1265.63 60.2959 1262.26 59.165 1258.55 58.0725C1254.85 56.9703 1252.71 55.7049 1252.15 54.2765C1251.59 52.848 1254.15 50.001 1259.83 45.7355C1265.53 41.4602 1267.39 42.464 1265.41 48.747L1267.79 45.5355L1271.41 44.5562Z" fill="white"/>
<g style="mix-blend-mode:difference">
<rect y="105" width="1440" height="47" fill="white"/>
</g>
<defs>
<linearGradient id="paint0_linear_2028_2" x1="731.5" y1="0" x2="731.5" y2="152" gradientUnits="userSpaceOnUse">
<stop/>
<stop offset="1" stop-opacity="0.8"/>
</linearGradient>
<linearGradient id="paint1_linear_2028_2" x1="271.5" y1="0" x2="271.5" y2="152" gradientUnits="userSpaceOnUse">
<stop/>
<stop offset="1" stop-opacity="0.8"/>
</linearGradient>
<linearGradient id="paint2_linear_2028_2" x1="1168" y1="0" x2="1168" y2="152" gradientUnits="userSpaceOnUse">
<stop/>
<stop offset="1" stop-opacity="0.8"/>
</linearGradient>
<linearGradient id="paint3_linear_2028_2" x1="69.3438" y1="27.4427" x2="62.8463" y2="87.8302" gradientUnits="userSpaceOnUse">
<stop/>
<stop offset="1" stop-color="#666666"/>
</linearGradient>
<linearGradient id="paint4_linear_2028_2" x1="1369.01" y1="27.9719" x2="1378.24" y2="88.0029" gradientUnits="userSpaceOnUse">
<stop/>
<stop offset="1" stop-color="#666666"/>
</linearGradient>
<linearGradient id="paint5_linear_2028_2" x1="986.239" y1="18.747" x2="988.794" y2="86.3669" gradientUnits="userSpaceOnUse">
<stop/>
<stop offset="1" stop-color="#666666"/>
</linearGradient>
<linearGradient id="paint6_linear_2028_2" x1="469.963" y1="16.8069" x2="469.466" y2="84.4732" gradientUnits="userSpaceOnUse">
<stop/>
<stop offset="1" stop-color="#666666"/>
</linearGradient>
</defs>
</svg>
