<svg width="565" height="116" viewBox="0 0 565 116" fill="none" xmlns="http://www.w3.org/2000/svg">
<path d="M80.8145 97.002C89.5059 96.5788 96.3743 97.0508 101.42 98.418C90.5475 78.9844 84.444 63.457 83.1094 51.8359C81.8073 60.2018 77.543 65.5404 70.3164 67.8516C63.0898 70.1628 57.1654 65.3613 52.543 53.4473C47.4974 64.3197 40.8893 74.1504 32.7188 82.9395C36.9505 81.9954 41.1823 81.377 45.4141 81.084L42.4355 89.7754C28.7962 91.0449 14.9453 94.8372 0.882813 101.152C28.7148 76.8685 46.0163 51.7383 52.7871 25.7617C59.4603 49.8177 64.9941 60.8203 69.3887 58.7695C73.7832 56.6862 78.7474 40.8659 84.2812 11.3086C89.8477 54.4076 103.096 87.334 124.027 110.088C104.268 105.889 88.2038 104.342 75.834 105.449L80.8145 97.002ZM141.508 52.5195C138.578 46.8555 135.323 39.1895 131.742 29.5215C129.887 38.2129 127.608 46.3509 124.906 53.9355C133.109 52.8939 138.643 52.4219 141.508 52.5195ZM144.047 59.6973C139.717 59.4368 132.605 60.0716 122.709 61.6016C118.835 69.6745 115.271 75.0618 112.016 77.7637L96.0977 80.7422C101.859 76.6406 106.889 70.5697 111.186 62.5293L97.709 64.873L100.688 58.1348L114.506 54.9609C119.258 44.1862 124.76 27.9915 131.01 6.37695C137.26 25.4525 144.014 40.7194 151.273 52.1777L160.062 52.4219C160.551 41.224 162.602 32.1257 166.215 25.127C164.717 38.929 165.922 50.6478 169.828 60.2832L153.715 59.8437C163.122 75.1758 174.418 87.2852 187.602 96.1719C200.785 105.059 184.623 109.876 139.115 110.625C93.6074 111.406 91.3288 100.729 132.279 78.5938C106.954 95.0326 109.184 103.105 138.969 102.812C168.786 102.52 178.943 99.1341 169.438 92.6562C159.932 86.1784 151.469 75.1921 144.047 59.6973ZM231.107 18.2422L212.016 52.5195C211.332 29.5378 208.272 21.2044 202.836 27.5195C197.4 33.8346 193.852 38.3594 192.191 41.0937C190.531 43.7956 190.743 46.0091 192.826 47.7344C194.91 49.4596 200.183 51.5592 208.646 54.0332C217.143 56.4746 231.286 61.5365 251.078 69.2187C270.902 76.8685 278.699 84.3229 274.467 91.582C270.268 98.8086 251.062 103.089 216.85 104.424C182.67 105.791 165.629 101.331 165.727 91.0449C165.824 80.7259 179.464 71.8555 206.645 64.4336C202.738 75.1432 200.785 82.5977 200.785 86.7969C200.818 90.9635 200.85 93.6165 200.883 94.7559C200.915 95.8952 199.776 95.2116 197.465 92.7051C195.186 90.166 194.096 86.9108 194.193 82.9395C194.291 78.9681 194.763 76.7708 195.609 76.3477C180.082 83.151 174.125 88.3105 177.738 91.8262C181.384 95.3092 196.798 96.2207 223.979 94.5605C251.192 92.9004 263.497 90.0521 260.893 86.0156C258.288 81.9466 251.632 78.0078 240.922 74.1992C230.245 70.3581 218.51 66.6471 205.717 63.0664C192.956 59.4531 184.916 55.2865 181.596 50.5664C178.275 45.8464 183.158 36.4062 196.244 22.2461C209.363 8.05339 216.264 11.3574 216.947 32.1582L220.854 21.5137L231.107 18.2422ZM291.361 26.6406C294.779 26.6406 297.709 26.6081 300.15 26.543C310.958 26.1198 317.077 25.9245 318.51 25.957C319.942 25.957 321.456 25.9245 323.051 25.8594C324.646 25.7617 325.801 26.0221 326.518 26.6406C327.234 27.2591 327.38 29.2773 326.957 32.6953C326.566 36.0807 324.809 40.3776 321.684 45.5859C318.591 50.7617 318.673 54.4564 321.928 56.6699C325.183 58.8835 326.273 60.2669 325.199 60.8203L317.338 62.2363C316.589 62.3014 314.864 61.0156 312.162 58.3789C309.46 55.7422 309.59 51.7383 312.553 46.3672C315.515 40.9961 315.987 38.3431 313.969 38.4082C311.983 38.4408 307.051 38.6198 299.174 38.9453C296.732 39.043 293.721 39.0755 290.141 39.043C290.01 40.931 289.896 42.9004 289.799 44.9512C289.376 54.1634 289.913 64.8893 291.41 77.1289C292.94 89.3685 294.063 97.6693 294.779 102.031C295.528 106.393 295.349 108.981 294.242 109.795C293.168 110.641 292.094 111.178 291.02 111.406C289.978 111.667 288.48 111.634 286.527 111.309C284.574 110.983 283.321 110.267 282.768 109.16C282.247 108.086 280.814 95.9603 278.471 72.7832C278.015 58.8184 277.901 47.2461 278.129 38.0664C277.445 37.9687 276.762 37.8711 276.078 37.7734C268.559 36.6992 263.318 35.6576 260.355 34.6484C263.383 42.526 263.887 47.5716 261.869 49.7852C259.851 51.9987 257.898 52.9915 256.01 52.7637L250.639 52.1289C248.913 51.4453 249.451 50.0618 252.25 47.9785C255.049 45.8626 255.147 42.4284 252.543 37.6758C249.906 32.8906 248.132 28.2682 247.221 23.8086C247.156 21.0742 249.906 20.2767 255.473 21.416C261.039 22.5228 267.175 23.7598 273.881 25.127C275.411 25.4199 277.055 25.6803 278.812 25.9082C279.789 15.6217 281.596 10.9831 284.232 11.9922L289.994 12.8711C292.468 13.3594 293.152 16.5169 292.045 22.3437C291.817 23.6784 291.589 25.1107 291.361 26.6406ZM362.064 7.35352C362.976 6.96289 364.522 6.93034 366.703 7.25586C368.884 7.54883 370.479 8.29753 371.488 9.50195C372.53 10.7064 373.132 12.4967 373.295 14.873C373.458 17.2493 373.588 18.9095 373.686 19.8535C373.783 20.7975 373.458 23.3854 372.709 27.6172C371.993 31.849 371.553 34.3229 371.391 35.0391C371.26 35.7552 371.049 36.5527 370.756 37.4316C370.495 38.278 370.268 39.3034 370.072 40.5078C369.91 41.7122 369.649 42.4284 369.291 42.6562C368.965 42.8841 367.468 42.9329 364.799 42.8027C362.13 42.6725 360.616 42.2982 360.258 41.6797C359.9 41.0286 360.242 38.0176 361.283 32.6465C362.357 27.2428 362.96 24.1341 363.09 23.3203C363.22 22.474 363.269 21.5625 363.236 20.5859C363.204 19.5768 363.008 18.7305 362.65 18.0469C362.292 17.3633 361.674 17.0052 360.795 16.9727C359.949 16.9076 358.191 17.4772 355.521 18.6816C352.852 19.8861 350.476 21.3835 348.393 23.1738C346.309 24.9316 344.747 26.3477 343.705 27.4219C342.663 28.4961 341.475 30.1074 340.141 32.2559C338.839 34.4043 338.074 35.8691 337.846 36.6504C337.65 37.3991 337.553 38.2617 337.553 39.2383C337.553 40.2148 337.715 41.0449 338.041 41.7285C338.367 42.3796 338.887 42.9004 339.604 43.291C340.352 43.6491 341.378 44.1862 342.68 44.9023C344.014 45.5859 348.132 46.5625 355.033 47.832C361.967 49.1016 366.345 49.9479 368.168 50.3711C369.991 50.7617 371.163 51.2174 371.684 51.7383C372.237 52.2591 372.709 53.1868 373.1 54.5215C373.49 55.8561 373.344 56.7187 372.66 57.1094C372.009 57.5 371.212 57.9232 370.268 58.3789C369.324 58.8346 367.745 59.3555 365.531 59.9414C363.35 60.5273 361.413 60.9017 359.721 61.0645C358.028 61.2272 356.986 61.3737 356.596 61.5039C356.238 61.6341 355.391 61.7643 354.057 61.8945C352.722 62.0247 351.908 62.1549 351.615 62.2852C351.355 62.4154 349.206 62.6758 345.17 63.0664C341.133 63.457 338.871 63.6361 338.383 63.6035C337.895 63.5384 337.504 63.571 337.211 63.7012C336.951 63.8314 336.251 63.9616 335.111 64.0918C334.005 64.1895 333.158 64.222 332.572 64.1895C331.986 64.1243 331.596 64.1569 331.4 64.2871C331.238 64.3848 330.863 64.4661 330.277 64.5312C329.724 64.5964 329.496 64.7103 329.594 64.873C329.691 65.0358 329.838 65.166 330.033 65.2637C330.261 65.3613 331.14 65.9961 332.67 67.168C334.232 68.3073 335.518 69.349 336.527 70.293C337.569 71.2044 338.529 72.4902 339.408 74.1504C340.32 75.8105 341.215 78.138 342.094 81.1328C342.973 84.1276 343.412 86.0645 343.412 86.9434C343.445 87.7897 343.461 88.75 343.461 89.8242C343.493 90.8984 343.559 92.4284 343.656 94.4141C343.786 96.3997 343.9 97.6693 343.998 98.2227C344.096 98.8086 344.258 99.5736 344.486 100.518C344.714 101.494 345.251 102.357 346.098 103.105C346.944 103.854 347.79 104.261 348.637 104.326C349.483 104.424 350.443 104.424 351.518 104.326C352.592 104.261 354.073 103.984 355.961 103.496C357.882 103.008 359.428 102.34 360.6 101.494C361.771 100.68 362.699 100.111 363.383 99.7852C364.066 99.4596 364.75 99.0527 365.434 98.5645C366.117 98.1087 367.338 97.2461 369.096 95.9766C370.886 94.7396 372.839 93.3073 374.955 91.6797C377.071 90.0195 378.357 88.9453 378.812 88.457C379.268 87.9362 379.838 87.3991 380.521 86.8457C381.205 86.2598 382.035 85.4297 383.012 84.3555C384.021 83.2487 384.867 82.3535 385.551 81.6699C386.267 80.9538 386.739 80.4004 386.967 80.0098C387.195 79.5866 386.918 79.4238 386.137 79.5215C385.388 79.5866 384.2 79.7005 382.572 79.8633C380.977 79.9935 379.984 80.0423 379.594 80.0098C379.203 79.9447 378.292 79.9935 376.859 80.1562C375.46 80.2865 374.646 80.319 374.418 80.2539C374.223 80.1562 373.979 80.1725 373.686 80.3027C373.425 80.4004 372.937 80.4655 372.221 80.498C371.537 80.498 370.723 80.3353 369.779 80.0098C368.868 79.6517 369.503 78.5286 371.684 76.6406C373.897 74.7526 375.98 73.6133 377.934 73.2227C379.919 72.832 382.816 72.6367 386.625 72.6367C390.466 72.6367 392.777 72.6855 393.559 72.7832C394.34 72.8809 395.3 73.1087 396.439 73.4668C397.611 73.8249 398.327 75.013 398.588 77.0312C398.881 79.0169 398.279 81.0677 396.781 83.1836C395.284 85.2995 394.258 86.569 393.705 86.9922C393.152 87.3828 392.745 87.8385 392.484 88.3594C392.257 88.8477 391.508 89.7103 390.238 90.9473C388.969 92.1517 387.455 93.4375 385.697 94.8047C383.939 96.1393 382.768 97.002 382.182 97.3926C381.628 97.7832 381.01 98.2715 380.326 98.8574C379.675 99.4434 378.048 100.615 375.443 102.373C372.839 104.131 371.228 105.221 370.609 105.645C370.023 106.1 369.307 106.507 368.461 106.865C367.615 107.256 366.85 107.728 366.166 108.281C365.482 108.867 364.831 109.339 364.213 109.697C363.594 110.088 362.862 110.446 362.016 110.771C361.202 111.13 359.298 111.862 356.303 112.969C353.308 114.076 351.485 114.71 350.834 114.873C350.183 115.036 349.271 115.02 348.1 114.824C346.928 114.661 345.984 114.499 345.268 114.336C344.551 114.173 343.445 113.75 341.947 113.066C340.45 112.383 339.083 111.471 337.846 110.332C336.641 109.193 335.844 107.842 335.453 106.279C335.095 104.749 334.623 102.048 334.037 98.1738C333.484 94.3327 333.207 92.0703 333.207 91.3867C333.24 90.7031 333.207 89.9382 333.109 89.0918C333.044 88.2454 332.947 87.6432 332.816 87.2852C332.686 86.8945 332.54 86.3411 332.377 85.625C332.214 84.9089 331.905 83.6556 331.449 81.8652C331.026 80.0423 330.359 78.5124 329.447 77.2754C328.568 76.0059 327.576 74.8665 326.469 73.8574C325.395 72.8158 324.125 71.8066 322.66 70.8301C321.195 69.8535 319.031 68.877 316.166 67.9004C313.301 66.8913 311.283 66.3867 310.111 66.3867C308.907 66.3867 307.882 66.3542 307.035 66.2891C306.189 66.1914 305.554 64.7103 305.131 61.8457C304.708 58.9486 304.626 57.2721 304.887 56.8164C305.147 56.3281 305.717 56.0026 306.596 55.8398C307.442 55.6445 308.288 55.5306 309.135 55.498C309.949 55.4655 310.616 55.4492 311.137 55.4492C311.658 55.4167 312.39 55.4492 313.334 55.5469C314.245 55.612 315.255 55.5957 316.361 55.498C317.436 55.4004 320.3 55.498 324.955 55.791C329.643 56.0514 337.276 55.7747 347.855 54.9609C346.228 54.375 345.023 54.0495 344.242 53.9844C343.461 53.8867 342.582 53.724 341.605 53.4961C340.629 53.2682 339.766 53.1217 339.018 53.0566C338.269 52.959 337.488 52.7474 336.674 52.4219C335.86 52.0638 335.144 51.7708 334.525 51.543C333.939 51.2826 333.093 50.8594 331.986 50.2734C330.88 49.6549 329.838 48.776 328.861 47.6367C327.917 46.4974 327.331 45.2441 327.104 43.877C326.908 42.4772 326.892 41.3379 327.055 40.459C327.217 39.5801 327.576 38.3919 328.129 36.8945C328.682 35.3971 329.138 34.209 329.496 33.3301C329.854 32.4512 330.831 30.8398 332.426 28.4961C334.053 26.1198 335.046 24.6712 335.404 24.1504C335.762 23.597 336.283 23.0111 336.967 22.3926C337.65 21.7741 339.701 20.0651 343.119 17.2656C346.57 14.4336 349.988 12.2526 353.373 10.7227C356.758 9.19271 358.826 8.34635 359.574 8.18359C360.323 8.02083 361.153 7.74414 362.064 7.35352ZM383.891 13.7012C387.081 15.0033 391.426 16.6146 396.928 18.5352C402.462 20.4557 407.051 22.1322 410.697 23.5645C414.343 24.9642 417.045 25.8757 418.803 26.2988C420.561 26.722 422.302 27.1289 424.027 27.5195C425.753 27.9102 428.324 28.4473 431.742 29.1309C435.16 29.8145 437.715 30.5306 439.408 31.2793C441.133 32.028 442.012 33.2161 442.045 34.8437C442.077 36.4714 441.02 38.1641 438.871 39.9219C436.723 41.6471 434.314 43.1445 431.645 44.4141C438.48 41.6146 442.533 39.8893 443.803 39.2383C445.072 38.5547 445.984 38.0827 446.537 37.8223C447.123 37.5618 448.1 37.1875 449.467 36.6992C450.867 36.1784 452.868 35.2995 455.473 34.0625C458.109 32.8255 459.981 31.8978 461.088 31.2793C462.227 30.6283 464.115 29.7493 466.752 28.6426C469.389 27.5033 471.293 27.0801 472.465 27.373C473.637 27.6335 474.776 29.3099 475.883 32.4023C477.022 35.4622 477.136 37.5293 476.225 38.6035C475.313 39.6777 474.63 40.4753 474.174 40.9961C473.718 41.4844 473.002 42.1029 472.025 42.8516C471.049 43.6003 468.9 45.9766 465.58 49.9805C462.26 53.9844 459.542 58.1022 457.426 62.334C455.31 66.5332 453.568 70.4557 452.201 74.1016C450.834 77.7148 449.841 80.791 449.223 83.3301C448.604 85.8691 448.279 87.6595 448.246 88.7012C448.214 89.7428 448.181 90.8333 448.148 91.9727C448.116 93.112 448.165 94.4466 448.295 95.9766C448.458 97.5391 448.718 99.6875 449.076 102.422C449.434 105.189 449.939 107.174 450.59 108.379C451.273 109.616 449.939 110.462 446.586 110.918C443.266 111.374 441.426 111.325 441.068 110.771C440.743 110.251 440.434 109.648 440.141 108.965C439.848 108.281 439.294 107.093 438.48 105.4C437.667 103.708 437.016 101.299 436.527 98.1738C436.039 95.0488 435.86 92.0703 435.99 89.2383C436.12 86.3737 436.69 82.8418 437.699 78.6426C438.708 74.4434 440.417 69.5443 442.826 63.9453C445.268 58.3464 447.27 54.4727 448.832 52.3242C450.395 50.1758 451.387 48.5156 451.811 47.3437C452.234 46.1393 441.003 50.3385 418.119 59.9414C420.105 62.3177 421.895 66.9401 423.49 73.8086L413.041 76.7871C411.837 71.6764 410.014 67.347 407.572 63.7988C400.476 66.0124 396.212 67.2982 394.779 67.6562C393.38 67.9818 392.143 67.6888 391.068 66.7773C389.994 65.8333 389.473 65.0846 389.506 64.5312C389.538 63.9779 389.75 63.457 390.141 62.9687C390.531 62.4479 392.126 61.276 394.926 59.4531C397.725 57.5977 400.525 55.8561 403.324 54.2285C400.199 47.2624 391.41 35.8203 376.957 19.9023L383.891 13.7012ZM396.488 27.373C399.776 29.7493 404.984 36.6667 412.113 48.125C421.065 43.4701 426.062 40.3451 427.104 38.75C428.145 37.1549 425.932 35.918 420.463 35.0391C414.994 34.1602 407.003 31.6048 396.488 27.373ZM514.701 18.2422L495.609 52.5195C494.926 29.5378 491.866 21.2044 486.43 27.5195C480.993 33.8346 477.445 38.3594 475.785 41.0937C474.125 43.7956 474.337 46.0091 476.42 47.7344C478.503 49.4596 483.777 51.5592 492.24 54.0332C500.736 56.4746 514.88 61.5365 534.672 69.2187C554.496 76.8685 562.292 84.3229 558.061 91.582C553.861 98.8086 534.656 103.089 500.443 104.424C466.264 105.791 449.223 101.331 449.32 91.0449C449.418 80.7259 463.057 71.8555 490.238 64.4336C486.332 75.1432 484.379 82.5977 484.379 86.7969C484.411 90.9635 484.444 93.6165 484.477 94.7559C484.509 95.8952 483.37 95.2116 481.059 92.7051C478.78 90.166 477.689 86.9108 477.787 82.9395C477.885 78.9681 478.357 76.7708 479.203 76.3477C463.676 83.151 457.719 88.3105 461.332 91.8262C464.978 95.3092 480.391 96.2207 507.572 94.5605C534.786 92.9004 547.09 90.0521 544.486 86.0156C541.882 81.9466 535.225 78.0078 524.516 74.1992C513.839 70.3581 502.104 66.6471 489.311 63.0664C476.55 59.4531 468.51 55.2865 465.189 50.5664C461.869 45.8464 466.752 36.4062 479.838 22.2461C492.956 8.05339 499.857 11.3574 500.541 32.1582L504.447 21.5137L514.701 18.2422Z" fill="black" fill-opacity="0.2"/>
</svg>
