<svg width="404" height="356" viewBox="0 0 404 356" fill="none" xmlns="http://www.w3.org/2000/svg">
<path d="M320.258 343.008C355.023 341.315 382.497 343.203 402.68 348.672C359.19 270.938 334.776 208.828 329.438 162.344C324.229 195.807 307.172 217.161 278.266 226.406C249.359 235.651 225.661 216.445 207.172 168.789C186.99 212.279 160.557 251.602 127.875 286.758C144.802 282.982 161.729 280.508 178.656 279.336L166.742 314.102C112.185 319.18 56.7813 334.349 0.53125 359.609C111.859 262.474 181.065 161.953 208.148 58.0469C234.841 154.271 256.977 198.281 274.555 190.078C292.133 181.745 311.99 118.464 334.125 0.234375C356.391 172.63 409.385 304.336 493.109 395.352C414.073 378.555 349.815 372.37 300.336 376.797L320.258 343.008Z" fill="black"/>
</svg>
