<svg width="67" height="45" viewBox="0 0 67 45" fill="none" xmlns="http://www.w3.org/2000/svg">
<path d="M66.7172 0.93162L59.8492 1.79916C52.4238 2.7371 45.2277 5.0031 38.6047 8.48891L33.3897 11.2336C31.489 12.234 29.7439 13.5058 28.2095 15.0089L24.675 18.4713C22.4556 20.6454 21.2601 23.6573 21.3842 26.7617L21.4282 27.8615C21.519 30.1301 22.5252 32.2651 24.2172 33.779L24.8979 34.3881C27.2252 36.4704 30.635 36.8004 33.3185 35.2031V35.2031C35.4833 33.9146 36.8097 31.5814 36.8097 29.0622L36.8097 27.9817V27.9817C36.8097 23.6245 34.1155 19.721 30.0415 18.1757L26.3795 16.7867C22.4408 15.2927 18.0744 15.3956 14.2104 17.0734L12.609 17.7687C8.20642 19.6804 4.69053 23.1875 2.76794 27.5854V27.5854C0.400829 33.0001 0.677036 39.2061 3.51581 44.3891L3.56914 44.4865" stroke="#414648"/>
</svg>
