<svg width="68" height="46" viewBox="0 0 68 46" fill="none" xmlns="http://www.w3.org/2000/svg">
<path d="M66.9613 1.40403L60.0933 2.27157C52.668 3.20951 45.4719 5.47551 38.8488 8.96132L33.6339 11.706C31.7331 12.7064 29.9881 13.9782 28.4536 15.4813L24.9192 18.9437C22.6997 21.1178 21.5042 24.1297 21.6284 27.2341L21.6724 28.334C21.7631 30.6026 22.7694 32.7375 24.4614 34.2514L25.1421 34.8605C27.4694 36.9428 30.8792 37.2729 33.5626 35.6756V35.6756C35.7274 34.387 37.0538 32.0539 37.0538 29.5346V28.4541V28.4541C37.0538 24.0969 34.3597 20.1935 30.2856 18.6481L26.6237 17.2591C22.685 15.7651 18.3186 15.868 14.4546 17.5458L12.8532 18.2411C8.45056 20.1528 4.93467 23.66 3.01208 28.0578V28.0578C0.64497 33.4725 0.921177 39.6785 3.75995 44.8615L3.81328 44.9589" stroke="white"/>
</svg>
