<svg width="1691" height="343" viewBox="0 0 1691 343" fill="none" xmlns="http://www.w3.org/2000/svg">
<path d="M239.85 288.462C265.924 287.192 286.529 288.608 301.666 292.71C269.049 234.409 250.738 187.827 246.734 152.964C242.828 178.062 230.035 194.077 208.355 201.011C186.676 207.944 168.902 193.54 155.035 157.798C139.898 190.415 120.074 219.907 95.5625 246.274C108.258 243.442 120.953 241.587 133.648 240.708L124.713 266.782C83.7949 270.591 42.2422 281.968 0.0546911 300.913C83.5508 228.062 135.455 152.671 155.768 74.7412C175.787 146.909 192.389 179.917 205.572 173.765C218.756 167.515 233.648 120.054 250.25 31.3818C266.949 160.679 306.695 259.458 369.488 327.72C310.211 315.122 262.018 310.483 224.908 313.804L239.85 288.462ZM421.93 155.015C413.141 138.022 403.375 115.024 392.633 86.0205C387.066 112.095 380.23 136.509 372.125 159.263C396.734 156.138 413.336 154.722 421.93 155.015ZM429.547 176.548C416.559 175.767 395.221 177.671 365.533 182.261C353.912 206.479 343.219 222.642 333.453 230.747L285.699 239.683C302.984 227.378 318.072 209.165 330.963 185.044L290.533 192.075L299.469 171.86L340.924 162.339C355.182 130.015 371.686 81.4307 390.436 16.5869C409.186 73.8135 429.449 119.614 451.227 153.989L477.594 154.722C479.059 121.128 485.211 93.833 496.051 72.8369C491.559 114.243 495.172 149.399 506.891 178.306L458.551 176.987C486.773 222.983 520.66 259.312 560.211 285.972C599.762 312.632 551.275 327.085 414.752 329.331C278.229 331.675 271.393 299.644 394.244 233.237C318.268 282.554 324.957 306.772 414.312 305.894C503.766 305.015 534.234 294.858 505.719 275.425C477.203 255.991 451.812 223.032 429.547 176.548ZM690.728 52.1826L633.453 155.015C631.402 86.0693 622.223 61.0693 605.914 80.0146C589.605 98.96 578.961 112.534 573.98 120.737C569 128.843 569.635 135.483 575.885 140.659C582.135 145.835 597.955 152.134 623.346 159.556C648.834 166.88 691.266 182.065 750.641 205.112C810.113 228.062 833.502 250.425 820.807 272.202C808.209 293.882 750.592 306.724 647.955 310.728C545.416 314.829 494.293 301.45 494.586 270.591C494.879 239.634 535.797 213.022 617.34 190.757C605.621 222.886 599.762 245.249 599.762 257.847C599.859 270.347 599.957 278.306 600.055 281.724C600.152 285.142 596.734 283.091 589.801 275.571C582.965 267.954 579.693 258.188 579.986 246.274C580.279 234.36 581.695 227.769 584.234 226.499C537.652 246.909 519.781 262.388 530.621 272.935C541.559 283.384 587.799 286.118 669.342 281.138C750.982 276.157 787.896 267.612 780.084 255.503C772.271 243.296 752.301 231.479 720.172 220.054C688.141 208.53 652.936 197.397 614.557 186.655C576.275 175.815 552.154 163.315 542.193 149.155C532.232 134.995 546.881 106.675 586.139 64.1943C625.494 21.6162 646.197 31.5283 648.248 93.9307L659.967 61.9971L690.728 52.1826ZM871.49 77.3779C881.744 77.3779 890.533 77.2803 897.857 77.085C930.279 75.8154 948.639 75.2295 952.935 75.3271C957.232 75.3271 961.773 75.2295 966.559 75.0342C971.344 74.7412 974.81 75.5225 976.959 77.3779C979.107 79.2334 979.547 85.2881 978.277 95.542C977.105 105.698 971.832 118.589 962.457 134.214C953.18 149.741 953.424 160.825 963.189 167.466C972.955 174.106 976.227 178.257 973.004 179.917L949.42 184.165C947.174 184.36 941.998 180.503 933.893 172.593C925.787 164.683 926.178 152.671 935.064 136.558C943.951 120.444 945.367 112.485 939.312 112.681C933.355 112.778 918.56 113.315 894.928 114.292C887.603 114.585 878.57 114.683 867.828 114.585C867.437 120.249 867.096 126.157 866.803 132.31C865.533 159.946 867.144 192.124 871.637 228.843C876.227 265.562 879.596 290.464 881.744 303.55C883.99 316.636 883.453 324.399 880.133 326.841C876.91 329.38 873.687 330.991 870.465 331.675C867.34 332.456 862.848 332.358 856.988 331.382C851.129 330.405 847.369 328.257 845.709 324.937C844.146 321.714 839.85 285.337 832.818 215.806C831.451 173.911 831.109 139.194 831.793 111.655C829.742 111.362 827.691 111.069 825.641 110.776C803.082 107.554 787.359 104.429 778.473 101.401C787.555 125.034 789.068 140.171 783.014 146.812C776.959 153.452 771.1 156.431 765.436 155.747L749.322 153.843C744.146 151.792 745.758 147.642 754.156 141.392C762.555 135.044 762.848 124.741 755.035 110.483C747.125 96.1279 741.803 82.2607 739.068 68.8818C738.873 60.6787 747.125 58.2861 763.824 61.7041C780.523 65.0244 798.932 68.7353 819.049 72.8369C823.639 73.7158 828.57 74.4971 833.844 75.1807C836.773 44.3213 842.193 30.4053 850.103 33.4326L867.389 36.0693C874.81 37.5342 876.861 47.0068 873.541 64.4873C872.857 68.4912 872.174 72.7881 871.49 77.3779ZM1083.6 19.5166C1086.33 18.3447 1090.97 18.2471 1097.52 19.2236C1104.06 20.1025 1108.84 22.3486 1111.87 25.9619C1115 29.5752 1116.8 34.9463 1117.29 42.0752C1117.78 49.2041 1118.17 54.1846 1118.46 57.0166C1118.76 59.8486 1117.78 67.6123 1115.53 80.3076C1113.38 93.0029 1112.07 100.425 1111.58 102.573C1111.19 104.722 1110.55 107.114 1109.67 109.751C1108.89 112.29 1108.21 115.366 1107.62 118.979C1107.13 122.593 1106.35 124.741 1105.28 125.425C1104.3 126.108 1099.81 126.255 1091.8 125.864C1083.79 125.474 1079.25 124.351 1078.18 122.495C1077.11 120.542 1078.13 111.509 1081.26 95.3955C1084.48 79.1846 1086.29 69.8584 1086.68 67.417C1087.07 64.8779 1087.21 62.1436 1087.12 59.2139C1087.02 56.1865 1086.43 53.6475 1085.36 51.5967C1084.28 49.5459 1082.43 48.4717 1079.79 48.374C1077.25 48.1787 1071.98 49.8877 1063.97 53.501C1055.96 57.1143 1048.83 61.6064 1042.58 66.9775C1036.33 72.251 1031.65 76.499 1028.52 79.7217C1025.4 82.9443 1021.83 87.7783 1017.83 94.2236C1013.92 100.669 1011.63 105.063 1010.94 107.407C1010.36 109.653 1010.06 112.241 1010.06 115.171C1010.06 118.101 1010.55 120.591 1011.53 122.642C1012.51 124.595 1014.07 126.157 1016.22 127.329C1018.46 128.403 1021.54 130.015 1025.45 132.163C1029.45 134.214 1041.8 137.144 1062.51 140.952C1083.31 144.761 1096.44 147.3 1101.91 148.569C1107.38 149.741 1110.89 151.108 1112.46 152.671C1114.12 154.233 1115.53 157.017 1116.71 161.02C1117.88 165.024 1117.44 167.612 1115.39 168.784C1113.43 169.956 1111.04 171.226 1108.21 172.593C1105.38 173.96 1100.64 175.522 1094 177.28C1087.46 179.038 1081.65 180.161 1076.57 180.649C1071.49 181.138 1068.37 181.577 1067.19 181.968C1066.12 182.358 1063.58 182.749 1059.58 183.14C1055.57 183.53 1053.13 183.921 1052.25 184.312C1051.47 184.702 1045.03 185.483 1032.92 186.655C1020.81 187.827 1014.02 188.364 1012.55 188.267C1011.09 188.071 1009.92 188.169 1009.04 188.56C1008.26 188.95 1006.16 189.341 1002.74 189.731C999.42 190.024 996.881 190.122 995.123 190.024C993.365 189.829 992.193 189.927 991.607 190.317C991.119 190.61 989.996 190.854 988.238 191.05C986.578 191.245 985.894 191.587 986.187 192.075C986.48 192.563 986.92 192.954 987.506 193.247C988.189 193.54 990.826 195.444 995.416 198.96C1000.1 202.378 1003.96 205.503 1006.99 208.335C1010.11 211.069 1012.99 214.927 1015.63 219.907C1018.37 224.888 1021.05 231.87 1023.69 240.854C1026.32 249.839 1027.64 255.649 1027.64 258.286C1027.74 260.825 1027.79 263.706 1027.79 266.929C1027.89 270.151 1028.08 274.741 1028.37 280.698C1028.77 286.655 1029.11 290.464 1029.4 292.124C1029.69 293.882 1030.18 296.177 1030.87 299.009C1031.55 301.938 1033.16 304.526 1035.7 306.772C1038.24 309.019 1040.78 310.239 1043.32 310.435C1045.86 310.728 1048.74 310.728 1051.96 310.435C1055.18 310.239 1059.62 309.409 1065.29 307.944C1071.05 306.479 1075.69 304.478 1079.21 301.938C1082.72 299.497 1085.5 297.788 1087.55 296.812C1089.61 295.835 1091.66 294.614 1093.71 293.149C1095.76 291.782 1099.42 289.194 1104.69 285.386C1110.06 281.675 1115.92 277.378 1122.27 272.495C1128.62 267.515 1132.48 264.292 1133.84 262.827C1135.21 261.265 1136.92 259.653 1138.97 257.993C1141.02 256.235 1143.51 253.745 1146.44 250.522C1149.47 247.202 1152.01 244.517 1154.06 242.466C1156.21 240.317 1157.62 238.657 1158.31 237.485C1158.99 236.216 1158.16 235.728 1155.82 236.02C1153.57 236.216 1150.01 236.558 1145.12 237.046C1140.34 237.437 1137.36 237.583 1136.19 237.485C1135.02 237.29 1132.28 237.437 1127.98 237.925C1123.79 238.315 1121.34 238.413 1120.66 238.218C1120.07 237.925 1119.34 237.974 1118.46 238.364C1117.68 238.657 1116.22 238.853 1114.07 238.95C1112.02 238.95 1109.58 238.462 1106.74 237.485C1104.01 236.411 1105.91 233.042 1112.46 227.378C1119.1 221.714 1125.35 218.296 1131.21 217.124C1137.16 215.952 1145.86 215.366 1157.28 215.366C1168.8 215.366 1175.74 215.513 1178.08 215.806C1180.43 216.099 1183.31 216.782 1186.72 217.856C1190.24 218.931 1192.39 222.495 1193.17 228.55C1194.05 234.507 1192.24 240.659 1187.75 247.007C1183.26 253.354 1180.18 257.163 1178.52 258.433C1176.86 259.604 1175.64 260.972 1174.86 262.534C1174.18 263.999 1171.93 266.587 1168.12 270.298C1164.31 273.911 1159.77 277.769 1154.5 281.87C1149.22 285.874 1145.71 288.462 1143.95 289.634C1142.29 290.806 1140.44 292.27 1138.38 294.028C1136.43 295.786 1131.55 299.302 1123.74 304.575C1115.92 309.849 1111.09 313.12 1109.23 314.39C1107.48 315.757 1105.33 316.978 1102.79 318.052C1100.25 319.224 1097.96 320.64 1095.9 322.3C1093.85 324.058 1091.9 325.474 1090.04 326.548C1088.19 327.72 1085.99 328.794 1083.45 329.77C1081.01 330.845 1075.3 333.042 1066.31 336.362C1057.33 339.683 1051.86 341.587 1049.91 342.075C1047.96 342.563 1045.22 342.515 1041.71 341.929C1038.19 341.44 1035.36 340.952 1033.21 340.464C1031.06 339.976 1027.74 338.706 1023.25 336.655C1018.76 334.604 1014.65 331.87 1010.94 328.452C1007.33 325.034 1004.94 320.981 1003.77 316.294C1002.69 311.704 1001.28 303.599 999.518 291.978C997.857 280.454 997.027 273.667 997.027 271.616C997.125 269.565 997.027 267.27 996.734 264.731C996.539 262.192 996.246 260.386 995.855 259.312C995.465 258.14 995.025 256.479 994.537 254.331C994.049 252.183 993.121 248.423 991.754 243.052C990.484 237.583 988.482 232.993 985.748 229.282C983.111 225.474 980.133 222.056 976.812 219.028C973.59 215.903 969.781 212.876 965.387 209.946C960.992 207.017 954.498 204.087 945.904 201.157C937.31 198.13 931.256 196.616 927.74 196.616C924.127 196.616 921.051 196.519 918.512 196.323C915.973 196.03 914.068 191.587 912.799 182.993C911.529 174.302 911.285 169.272 912.066 167.905C912.848 166.44 914.557 165.464 917.193 164.976C919.732 164.39 922.271 164.048 924.81 163.95C927.252 163.853 929.254 163.804 930.816 163.804C932.379 163.706 934.576 163.804 937.408 164.097C940.143 164.292 943.17 164.243 946.49 163.95C949.713 163.657 958.307 163.95 972.271 164.829C986.334 165.61 1009.23 164.78 1040.97 162.339C1036.09 160.581 1032.48 159.604 1030.13 159.409C1027.79 159.116 1025.15 158.628 1022.22 157.944C1019.29 157.261 1016.71 156.821 1014.46 156.626C1012.21 156.333 1009.87 155.698 1007.43 154.722C1004.99 153.647 1002.84 152.769 1000.98 152.085C999.225 151.304 996.685 150.034 993.365 148.276C990.045 146.421 986.92 143.784 983.99 140.366C981.158 136.948 979.4 133.188 978.717 129.087C978.131 124.888 978.082 121.47 978.57 118.833C979.059 116.196 980.133 112.632 981.793 108.14C983.453 103.647 984.82 100.083 985.894 97.4463C986.969 94.8096 989.898 89.9756 994.684 82.9443C999.566 75.8154 1002.54 71.4697 1003.62 69.9072C1004.69 68.2471 1006.26 66.4893 1008.31 64.6338C1010.36 62.7783 1016.51 57.6514 1026.76 49.2529C1037.12 40.7568 1047.37 34.2139 1057.53 29.624C1067.68 25.0342 1073.88 22.4951 1076.13 22.0068C1078.37 21.5186 1080.87 20.6885 1083.6 19.5166ZM1149.08 38.5596C1158.65 42.4658 1171.69 47.2998 1188.19 53.0615C1204.79 58.8232 1218.56 63.8525 1229.5 68.1494C1240.44 72.3486 1248.54 75.083 1253.81 76.3525C1259.09 77.6221 1264.31 78.8428 1269.49 80.0146C1274.66 81.1865 1282.38 82.7978 1292.63 84.8486C1302.89 86.8994 1310.55 89.0478 1315.63 91.2939C1320.81 93.54 1323.44 97.1045 1323.54 101.987C1323.64 106.87 1320.46 111.948 1314.02 117.222C1307.57 122.397 1300.35 126.89 1292.34 130.698C1312.85 122.3 1325.01 117.124 1328.81 115.171C1332.62 113.12 1335.36 111.704 1337.02 110.923C1338.78 110.142 1341.71 109.019 1345.81 107.554C1350.01 105.991 1356.01 103.354 1363.82 99.6435C1371.73 95.9326 1377.35 93.1494 1380.67 91.2939C1384.09 89.3408 1389.75 86.7041 1397.66 83.3838C1405.57 79.9658 1411.29 78.6963 1414.8 79.5752C1418.32 80.3564 1421.73 85.3857 1425.05 94.6631C1428.47 103.843 1428.81 110.044 1426.08 113.267C1423.35 116.489 1421.29 118.882 1419.93 120.444C1418.56 121.909 1416.41 123.765 1413.48 126.011C1410.55 128.257 1404.11 135.386 1394.15 147.397C1384.19 159.409 1376.03 171.763 1369.68 184.458C1363.34 197.056 1358.11 208.823 1354.01 219.761C1349.91 230.601 1346.93 239.829 1345.07 247.446C1343.22 255.063 1342.24 260.435 1342.14 263.56C1342.05 266.685 1341.95 269.956 1341.85 273.374C1341.75 276.792 1341.9 280.796 1342.29 285.386C1342.78 290.073 1343.56 296.519 1344.63 304.722C1345.71 313.022 1347.22 318.979 1349.18 322.593C1351.23 326.304 1347.22 328.843 1337.16 330.21C1327.2 331.577 1321.69 331.431 1320.61 329.77C1319.63 328.208 1318.71 326.401 1317.83 324.351C1316.95 322.3 1315.29 318.735 1312.85 313.657C1310.41 308.579 1308.45 301.353 1306.99 291.978C1305.52 282.603 1304.99 273.667 1305.38 265.171C1305.77 256.577 1307.48 245.981 1310.5 233.384C1313.53 220.786 1318.66 206.089 1325.88 189.292C1333.21 172.495 1339.21 160.874 1343.9 154.429C1348.59 147.983 1351.57 143.003 1352.84 139.487C1354.11 135.874 1320.42 148.472 1251.76 177.28C1257.72 184.409 1263.09 198.276 1267.88 218.882L1236.53 227.817C1232.92 212.485 1227.45 199.497 1220.12 188.853C1198.83 195.493 1186.04 199.351 1181.74 200.425C1177.54 201.401 1173.83 200.522 1170.61 197.788C1167.39 194.956 1165.83 192.71 1165.92 191.05C1166.02 189.39 1166.66 187.827 1167.83 186.362C1169 184.8 1173.79 181.284 1182.18 175.815C1190.58 170.249 1198.98 165.024 1207.38 160.142C1198 139.243 1171.64 104.917 1128.28 57.1631L1149.08 38.5596ZM1186.87 79.5752C1196.73 86.7041 1212.36 107.456 1233.75 141.831C1260.6 127.866 1275.59 118.491 1278.72 113.706C1281.84 108.921 1275.2 105.21 1258.79 102.573C1242.39 99.9365 1218.41 92.2705 1186.87 79.5752ZM1541.51 52.1826L1484.23 155.015C1482.18 86.0693 1473 61.0693 1456.7 80.0146C1440.39 98.96 1429.74 112.534 1424.76 120.737C1419.78 128.843 1420.42 135.483 1426.67 140.659C1432.92 145.835 1448.74 152.134 1474.13 159.556C1499.62 166.88 1542.05 182.065 1601.42 205.112C1660.89 228.062 1684.28 250.425 1671.59 272.202C1658.99 293.882 1601.37 306.724 1498.74 310.728C1396.2 314.829 1345.07 301.45 1345.37 270.591C1345.66 239.634 1386.58 213.022 1468.12 190.757C1456.4 222.886 1450.54 245.249 1450.54 257.847C1450.64 270.347 1450.74 278.306 1450.84 281.724C1450.93 285.142 1447.52 283.091 1440.58 275.571C1433.75 267.954 1430.47 258.188 1430.77 246.274C1431.06 234.36 1432.48 227.769 1435.02 226.499C1388.43 246.909 1370.56 262.388 1381.4 272.935C1392.34 283.384 1438.58 286.118 1520.12 281.138C1601.76 276.157 1638.68 267.612 1630.87 255.503C1623.05 243.296 1603.08 231.479 1570.95 220.054C1538.92 208.53 1503.72 197.397 1465.34 186.655C1427.06 175.815 1402.94 163.315 1392.97 149.155C1383.01 134.995 1397.66 106.675 1436.92 64.1943C1476.28 21.6162 1496.98 31.5283 1499.03 93.9307L1510.75 61.9971L1541.51 52.1826Z" fill="white" fill-opacity="0.1"/>
</svg>
