<svg width="20" height="19" viewBox="0 0 20 19" fill="none" xmlns="http://www.w3.org/2000/svg">
<path d="M19.9617 3.79797L12.9467 10.813C12.1645 11.5932 11.1048 12.0313 10 12.0313C8.89521 12.0313 7.83552 11.5932 7.05333 10.813L0.0383333 3.79797C0.0266667 3.92964 0 4.04881 0 4.17964V12.7109C0.00132321 13.8156 0.440735 14.8746 1.22185 15.6557C2.00296 16.4368 3.062 16.8762 4.16667 16.8776H15.8333C16.938 16.8762 17.997 16.4368 18.7782 15.6557C19.5593 14.8746 19.9987 13.8156 20 12.7109V4.17964C20 4.04881 19.9733 3.92964 19.9617 3.79797Z" fill="#81BD52"/>
<path d="M11.7685 9.63473L19.3801 2.02223C19.0114 1.41083 18.4913 0.904759 17.8701 0.552837C17.2489 0.200914 16.5474 0.0150121 15.8335 0.0130615H4.16678C3.4528 0.0150121 2.75137 0.200914 2.13014 0.552837C1.50891 0.904759 0.988849 1.41083 0.620117 2.02223L8.23178 9.63473C8.70143 10.1025 9.33727 10.3651 10.0001 10.3651C10.663 10.3651 11.2988 10.1025 11.7685 9.63473Z" fill="#81BD52"/>
</svg>
