<svg width="25" height="25" viewBox="0 0 25 25" fill="none" xmlns="http://www.w3.org/2000/svg">
<g clip-path="url(#clip0_73_908)">
<path d="M15.6253 25H9.37533C6.50345 25 4.16699 22.6635 4.16699 19.7917V5.20833C4.16699 2.33646 6.50345 0 9.37533 0H15.6253C18.4972 0 20.8337 2.33646 20.8337 5.20833V19.7917C20.8337 22.6635 18.4972 25 15.6253 25ZM9.37533 2.08333C7.65241 2.08333 6.25033 3.48542 6.25033 5.20833V19.7917C6.25033 21.5146 7.65241 22.9167 9.37533 22.9167H15.6253C17.3482 22.9167 18.7503 21.5146 18.7503 19.7917V5.20833C18.7503 3.48542 17.3482 2.08333 15.6253 2.08333H9.37533ZM14.5837 19.7917C14.5837 19.2167 14.117 18.75 13.542 18.75H11.4587C10.8837 18.75 10.417 19.2167 10.417 19.7917C10.417 20.3667 10.8837 20.8333 11.4587 20.8333H13.542C14.117 20.8333 14.5837 20.3667 14.5837 19.7917Z" fill="#81BD52"/>
<rect x="4" width="17" height="25" rx="5" fill="#81BD52"/>
<rect x="10" y="21" width="5" height="1" rx="0.5" fill="white"/>
</g>
<defs>
<clipPath id="clip0_73_908">
<rect width="25" height="25" fill="white"/>
</clipPath>
</defs>
</svg>
