<svg width="25" height="25" viewBox="0 0 25 25" fill="none" xmlns="http://www.w3.org/2000/svg">
<g clip-path="url(#clip0_164_2165)">
<path d="M12.5515 20.024C8.3984 20.024 6.50153 17.9084 6.50153 16.3563C6.50049 15.9865 6.65257 15.6323 6.92132 15.3771C7.19007 15.1229 7.55153 14.9896 7.92132 15.0104C9.69944 15.0104 9.23382 17.6771 12.5515 17.6771C14.2474 17.6771 15.2432 16.6563 15.2432 15.6969C15.2432 15.1209 14.914 14.4625 13.7942 14.199L10.0901 13.2646C7.11403 12.5073 6.59528 10.8531 6.59528 9.31773C6.59528 6.13231 9.50882 4.97919 12.2838 4.97919C14.8401 4.97919 17.8776 6.39065 17.8776 8.30107C17.8776 9.12398 17.1901 9.56461 16.3922 9.56461C14.8734 9.56461 15.1286 7.43232 12.0744 7.43232C10.5557 7.43232 9.75674 8.14481 9.75674 9.14065C9.75674 10.1365 10.938 10.474 11.9755 10.7011L14.7088 11.3188C17.7057 11.9938 18.5036 13.7511 18.5036 15.4344C18.5036 18.0229 16.4994 20.024 12.5484 20.024M24.0182 14.5459C24.1369 13.8667 24.1963 13.1781 24.1953 12.4875C24.2099 9.0219 22.6869 5.72919 20.038 3.49586C17.389 1.26252 13.8859 0.317731 10.4724 0.917731C9.4234 0.313565 8.23382 -0.00310209 7.0234 2.29069e-05C4.53903 0.0156479 2.2484 1.3469 1.00674 3.49898C-0.235973 5.65106 -0.243264 8.30002 0.985902 10.4594C0.300486 14.2281 1.50153 18.0938 4.20257 20.8094C6.90361 23.525 10.763 24.7479 14.5349 24.0823C15.5828 24.6854 16.7713 25.0021 17.9797 25C20.463 24.9844 22.7515 23.6532 23.9932 21.5021C25.2349 19.3511 25.2453 16.7042 24.0182 14.5459Z" fill="#81BD52"/>
</g>
<defs>
<clipPath id="clip0_164_2165">
<rect width="25" height="25" fill="white"/>
</clipPath>
</defs>
</svg>
