<svg width="25" height="25" viewBox="0 0 25 25" fill="none" xmlns="http://www.w3.org/2000/svg">
<g clip-path="url(#clip0_164_2169)">
<path d="M23.1393 5.7813C19.4184 5.30332e-05 11.8215 -1.7187 5.92998 1.87505C0.193547 5.4688 -1.66692 13.2813 2.05401 19.0626L2.36409 19.5313L1.12378 24.2188L5.77494 22.9688L6.24006 23.2813C8.25556 24.3751 10.4261 25.0001 12.5966 25.0001C14.9222 25.0001 17.2478 24.3751 19.2633 23.1251C24.9998 19.3751 26.7052 11.7188 23.1393 5.7813ZM19.8835 17.8126C19.2633 18.7501 18.4881 19.3751 17.4029 19.5313C16.7827 19.5313 16.0075 19.8438 12.9067 18.5938C10.2711 17.3438 8.10052 15.3126 6.55014 12.9688C5.6199 11.8751 5.15479 10.4688 4.99975 9.06255C4.99975 7.81255 5.46487 6.7188 6.24006 5.93755C6.55014 5.62505 6.86021 5.4688 7.17029 5.4688H7.94549C8.25556 5.4688 8.56564 5.4688 8.72068 6.0938C9.03076 6.87505 9.80595 8.75005 9.80595 8.9063C9.96099 9.06255 9.96099 9.37505 9.80595 9.5313C9.96099 9.8438 9.80595 10.1563 9.65091 10.3126C9.49587 10.4688 9.34083 10.7813 9.1858 10.9376C8.87572 11.0938 8.72068 11.4063 8.87572 11.7188C9.49587 12.6563 10.2711 13.5938 11.0463 14.3751C11.9765 15.1563 12.9067 15.7813 13.992 16.2501C14.3021 16.4063 14.6122 16.4063 14.7672 16.0938C14.9222 15.7813 15.6974 15.0001 16.0075 14.6876C16.3176 14.3751 16.4726 14.3751 16.7827 14.5313L19.2633 15.7813C19.5734 15.9376 19.8835 16.0938 20.0385 16.2501C20.1935 16.7188 20.1935 17.3438 19.8835 17.8126Z" fill="#81BD52"/>
</g>
<defs>
<clipPath id="clip0_164_2169">
<rect width="25" height="25" fill="white"/>
</clipPath>
</defs>
</svg>
