<svg width="126" height="126" viewBox="0 0 126 126" fill="none" xmlns="http://www.w3.org/2000/svg">
<circle cx="63" cy="63" r="63" fill="#81BD52"/>
<g clip-path="url(#clip0_2002_642)">
<path d="M53 83H49C47.4087 83 45.8826 82.3679 44.7574 81.2426C43.6321 80.1174 43 78.5913 43 77V49C43 47.4087 43.6321 45.8826 44.7574 44.7574C45.8826 43.6321 47.4087 43 49 43H53C53.5304 43 54.0391 42.7893 54.4142 42.4142C54.7893 42.0391 55 41.5304 55 41C55 40.4696 54.7893 39.9609 54.4142 39.5858C54.0391 39.2107 53.5304 39 53 39H49C46.3488 39.0032 43.8071 40.0578 41.9324 41.9324C40.0578 43.8071 39.0032 46.3488 39 49V77C39.0032 79.6512 40.0578 82.1929 41.9324 84.0676C43.8071 85.9422 46.3488 86.9968 49 87H53C53.5304 87 54.0391 86.7893 54.4142 86.4142C54.7893 86.0391 55 85.5304 55 85C55 84.4696 54.7893 83.9609 54.4142 83.5858C54.0391 83.2107 53.5304 83 53 83Z" fill="white"/>
<path d="M85.0001 61L53.4461 61.064C53.6215 60.7382 53.8409 60.438 54.0981 60.172L61.8561 52.414C62.0471 52.2295 62.1995 52.0088 62.3043 51.7648C62.4091 51.5208 62.4643 51.2584 62.4666 50.9928C62.4689 50.7272 62.4183 50.4639 62.3178 50.2181C62.2172 49.9723 62.0687 49.749 61.8809 49.5612C61.6931 49.3734 61.4698 49.2249 61.224 49.1244C60.9782 49.0238 60.7149 48.9732 60.4493 48.9755C60.1838 48.9778 59.9213 49.033 59.6773 49.1378C59.4333 49.2426 59.2126 49.395 59.0281 49.586L51.2661 57.344C49.7664 58.8442 48.9238 60.8787 48.9238 63C48.9238 65.1213 49.7664 67.1558 51.2661 68.656L59.0241 76.414C59.2086 76.605 59.4293 76.7574 59.6733 76.8622C59.9173 76.967 60.1798 77.0222 60.4453 77.0245C60.7109 77.0268 60.9742 76.9762 61.22 76.8756C61.4658 76.7751 61.6891 76.6266 61.8769 76.4388C62.0647 76.251 62.2132 76.0277 62.3138 75.7819C62.4143 75.5361 62.4649 75.2728 62.4626 75.0072C62.4603 74.7416 62.4051 74.4792 62.3003 74.2352C62.1955 73.9912 62.0431 73.7705 61.8521 73.586L54.0941 65.828C53.8703 65.5975 53.6749 65.341 53.5121 65.064L85.0001 65C85.5306 65 86.0393 64.7893 86.4143 64.4142C86.7894 64.0391 87.0001 63.5304 87.0001 63C87.0001 62.4696 86.7894 61.9609 86.4143 61.5858C86.0393 61.2107 85.5306 61 85.0001 61Z" fill="white"/>
</g>
<defs>
<clipPath id="clip0_2002_642">
<rect width="48" height="48" fill="white" transform="translate(39 39)"/>
</clipPath>
</defs>
</svg>
