<svg width="236" height="53" viewBox="0 0 236 53" fill="none" xmlns="http://www.w3.org/2000/svg">
<path d="M228.092 6.63184C229.228 6.63184 230.22 6.87984 231.068 7.37584C231.932 7.87184 232.572 8.49584 232.988 9.24784V6.84784H235.196V20.2878C235.196 21.4878 234.94 22.5518 234.428 23.4798C233.916 24.4238 233.18 25.1598 232.22 25.6878C231.276 26.2158 230.172 26.4798 228.908 26.4798C227.18 26.4798 225.74 26.0718 224.588 25.2558C223.436 24.4398 222.756 23.3278 222.548 21.9198H224.708C224.948 22.7198 225.444 23.3598 226.196 23.8398C226.948 24.3358 227.852 24.5838 228.908 24.5838C230.108 24.5838 231.084 24.2078 231.836 23.4558C232.604 22.7038 232.988 21.6478 232.988 20.2878V17.5278C232.556 18.2958 231.916 18.9358 231.068 19.4478C230.22 19.9598 229.228 20.2158 228.092 20.2158C226.924 20.2158 225.86 19.9278 224.9 19.3518C223.956 18.7758 223.212 17.9678 222.668 16.9278C222.124 15.8878 221.852 14.7038 221.852 13.3758C221.852 12.0318 222.124 10.8558 222.668 9.84784C223.212 8.82384 223.956 8.03184 224.9 7.47184C225.86 6.91184 226.924 6.63184 228.092 6.63184ZM232.988 13.3998C232.988 12.4078 232.788 11.5438 232.388 10.8078C231.988 10.0718 231.444 9.51184 230.756 9.12784C230.084 8.72784 229.34 8.52784 228.524 8.52784C227.708 8.52784 226.964 8.71984 226.292 9.10384C225.62 9.48784 225.084 10.0478 224.684 10.7838C224.284 11.5198 224.084 12.3838 224.084 13.3758C224.084 14.3838 224.284 15.2638 224.684 16.0158C225.084 16.7518 225.62 17.3198 226.292 17.7198C226.964 18.1038 227.708 18.2958 228.524 18.2958C229.34 18.2958 230.084 18.1038 230.756 17.7198C231.444 17.3198 231.988 16.7518 232.388 16.0158C232.788 15.2638 232.988 14.3918 232.988 13.3998Z" fill="white"/>
<path d="M213.053 20.2158C211.821 20.2158 210.701 19.9358 209.693 19.3758C208.701 18.8158 207.917 18.0238 207.341 16.9998C206.781 15.9598 206.501 14.7598 206.501 13.3998C206.501 12.0558 206.789 10.8718 207.365 9.84784C207.957 8.80784 208.757 8.01584 209.765 7.47184C210.773 6.91184 211.901 6.63184 213.149 6.63184C214.397 6.63184 215.525 6.91184 216.533 7.47184C217.541 8.01584 218.333 8.79984 218.909 9.82384C219.501 10.8478 219.797 12.0398 219.797 13.3998C219.797 14.7598 219.493 15.9598 218.885 16.9998C218.293 18.0238 217.485 18.8158 216.461 19.3758C215.437 19.9358 214.301 20.2158 213.053 20.2158ZM213.053 18.2958C213.837 18.2958 214.573 18.1118 215.261 17.7438C215.949 17.3758 216.501 16.8238 216.917 16.0878C217.349 15.3518 217.565 14.4558 217.565 13.3998C217.565 12.3438 217.357 11.4478 216.941 10.7118C216.525 9.97584 215.981 9.43184 215.309 9.07984C214.637 8.71184 213.909 8.52784 213.125 8.52784C212.325 8.52784 211.589 8.71184 210.917 9.07984C210.261 9.43184 209.733 9.97584 209.333 10.7118C208.933 11.4478 208.733 12.3438 208.733 13.3998C208.733 14.4718 208.925 15.3758 209.309 16.1118C209.709 16.8478 210.237 17.3998 210.893 17.7678C211.549 18.1198 212.269 18.2958 213.053 18.2958Z" fill="white"/>
<path d="M200.548 8.98391C200.932 8.23191 201.476 7.64791 202.18 7.23191C202.9 6.81591 203.772 6.60791 204.796 6.60791V8.86391H204.22C201.772 8.86391 200.548 10.1919 200.548 12.8479V19.9999H198.364V6.84791H200.548V8.98391Z" fill="white"/>
<path d="M195.726 3.27197V5.04797H188.454V10.688H194.358V12.464H188.454V20H186.27V3.27197H195.726Z" fill="white"/>
<path d="M183.387 12.9198C183.387 13.3358 183.363 13.7758 183.315 14.2398H172.803C172.883 15.5358 173.323 16.5518 174.123 17.2878C174.939 18.0078 175.923 18.3678 177.075 18.3678C178.019 18.3678 178.803 18.1518 179.427 17.7198C180.067 17.2718 180.515 16.6798 180.771 15.9438H183.123C182.771 17.2078 182.067 18.2398 181.011 19.0398C179.955 19.8238 178.643 20.2158 177.075 20.2158C175.827 20.2158 174.707 19.9358 173.715 19.3758C172.739 18.8158 171.971 18.0238 171.411 16.9998C170.851 15.9598 170.571 14.7598 170.571 13.3998C170.571 12.0398 170.843 10.8478 171.387 9.82384C171.931 8.79984 172.691 8.01584 173.667 7.47184C174.659 6.91184 175.795 6.63184 177.075 6.63184C178.323 6.63184 179.427 6.90384 180.387 7.44784C181.347 7.99184 182.083 8.74384 182.595 9.70384C183.123 10.6478 183.387 11.7198 183.387 12.9198ZM181.131 12.4638C181.131 11.6318 180.947 10.9198 180.579 10.3278C180.211 9.71984 179.707 9.26384 179.067 8.95984C178.443 8.63984 177.747 8.47984 176.979 8.47984C175.875 8.47984 174.931 8.83184 174.147 9.53584C173.379 10.2398 172.939 11.2158 172.827 12.4638H181.131Z" fill="white"/>
<path d="M160.592 6.63184C161.728 6.63184 162.72 6.87984 163.568 7.37584C164.432 7.87184 165.072 8.49584 165.488 9.24784V6.84784H167.696V20.2878C167.696 21.4878 167.44 22.5518 166.928 23.4798C166.416 24.4238 165.68 25.1598 164.72 25.6878C163.776 26.2158 162.672 26.4798 161.408 26.4798C159.68 26.4798 158.24 26.0718 157.088 25.2558C155.936 24.4398 155.256 23.3278 155.048 21.9198H157.208C157.448 22.7198 157.944 23.3598 158.696 23.8398C159.448 24.3358 160.352 24.5838 161.408 24.5838C162.608 24.5838 163.584 24.2078 164.336 23.4558C165.104 22.7038 165.488 21.6478 165.488 20.2878V17.5278C165.056 18.2958 164.416 18.9358 163.568 19.4478C162.72 19.9598 161.728 20.2158 160.592 20.2158C159.424 20.2158 158.36 19.9278 157.4 19.3518C156.456 18.7758 155.712 17.9678 155.168 16.9278C154.624 15.8878 154.352 14.7038 154.352 13.3758C154.352 12.0318 154.624 10.8558 155.168 9.84784C155.712 8.82384 156.456 8.03184 157.4 7.47184C158.36 6.91184 159.424 6.63184 160.592 6.63184ZM165.488 13.3998C165.488 12.4078 165.288 11.5438 164.888 10.8078C164.488 10.0718 163.944 9.51184 163.256 9.12784C162.584 8.72784 161.84 8.52784 161.024 8.52784C160.208 8.52784 159.464 8.71984 158.792 9.10384C158.12 9.48784 157.584 10.0478 157.184 10.7838C156.784 11.5198 156.584 12.3838 156.584 13.3758C156.584 14.3838 156.784 15.2638 157.184 16.0158C157.584 16.7518 158.12 17.3198 158.792 17.7198C159.464 18.1038 160.208 18.2958 161.024 18.2958C161.84 18.2958 162.584 18.1038 163.256 17.7198C163.944 17.3198 164.488 16.7518 164.888 16.0158C165.288 15.2638 165.488 14.3918 165.488 13.3998Z" fill="white"/>
<path d="M145.553 20.2158C144.321 20.2158 143.201 19.9358 142.193 19.3758C141.201 18.8158 140.417 18.0238 139.841 16.9998C139.281 15.9598 139.001 14.7598 139.001 13.3998C139.001 12.0558 139.289 10.8718 139.865 9.84784C140.457 8.80784 141.257 8.01584 142.265 7.47184C143.273 6.91184 144.401 6.63184 145.649 6.63184C146.897 6.63184 148.025 6.91184 149.033 7.47184C150.041 8.01584 150.833 8.79984 151.409 9.82384C152.001 10.8478 152.297 12.0398 152.297 13.3998C152.297 14.7598 151.993 15.9598 151.385 16.9998C150.793 18.0238 149.985 18.8158 148.961 19.3758C147.937 19.9358 146.801 20.2158 145.553 20.2158ZM145.553 18.2958C146.337 18.2958 147.073 18.1118 147.761 17.7438C148.449 17.3758 149.001 16.8238 149.417 16.0878C149.849 15.3518 150.065 14.4558 150.065 13.3998C150.065 12.3438 149.857 11.4478 149.441 10.7118C149.025 9.97584 148.481 9.43184 147.809 9.07984C147.137 8.71184 146.409 8.52784 145.625 8.52784C144.825 8.52784 144.089 8.71184 143.417 9.07984C142.761 9.43184 142.233 9.97584 141.833 10.7118C141.433 11.4478 141.233 12.3438 141.233 13.3998C141.233 14.4718 141.425 15.3758 141.809 16.1118C142.209 16.8478 142.737 17.3998 143.393 17.7678C144.049 18.1198 144.769 18.2958 145.553 18.2958Z" fill="white"/>
<path d="M130.201 20.2158C128.969 20.2158 127.849 19.9358 126.841 19.3758C125.849 18.8158 125.065 18.0238 124.489 16.9998C123.929 15.9598 123.649 14.7598 123.649 13.3998C123.649 12.0558 123.937 10.8718 124.513 9.84784C125.105 8.80784 125.905 8.01584 126.913 7.47184C127.921 6.91184 129.049 6.63184 130.297 6.63184C131.545 6.63184 132.673 6.91184 133.681 7.47184C134.689 8.01584 135.481 8.79984 136.057 9.82384C136.649 10.8478 136.945 12.0398 136.945 13.3998C136.945 14.7598 136.641 15.9598 136.033 16.9998C135.441 18.0238 134.633 18.8158 133.609 19.3758C132.585 19.9358 131.449 20.2158 130.201 20.2158ZM130.201 18.2958C130.985 18.2958 131.721 18.1118 132.409 17.7438C133.097 17.3758 133.649 16.8238 134.065 16.0878C134.497 15.3518 134.713 14.4558 134.713 13.3998C134.713 12.3438 134.505 11.4478 134.089 10.7118C133.673 9.97584 133.129 9.43184 132.457 9.07984C131.785 8.71184 131.057 8.52784 130.273 8.52784C129.473 8.52784 128.737 8.71184 128.065 9.07984C127.409 9.43184 126.881 9.97584 126.481 10.7118C126.081 11.4478 125.881 12.3438 125.881 13.3998C125.881 14.4718 126.073 15.3758 126.457 16.1118C126.857 16.8478 127.385 17.3998 128.041 17.7678C128.697 18.1198 129.417 18.2958 130.201 18.2958Z" fill="white"/>
<path d="M117.696 8.98391C118.08 8.23191 118.624 7.64791 119.328 7.23191C120.048 6.81591 120.92 6.60791 121.944 6.60791V8.86391H121.368C118.92 8.86391 117.696 10.1919 117.696 12.8479V19.9999H115.512V6.84791H117.696V8.98391Z" fill="white"/>
<path d="M100.118 13.3998C100.118 12.0398 100.39 10.8558 100.934 9.84784C101.478 8.82384 102.23 8.03184 103.19 7.47184C104.166 6.91184 105.278 6.63184 106.526 6.63184C108.142 6.63184 109.47 7.02384 110.51 7.80784C111.566 8.59184 112.262 9.67984 112.598 11.0718H110.246C110.022 10.2718 109.582 9.63984 108.926 9.17584C108.286 8.71184 107.486 8.47984 106.526 8.47984C105.278 8.47984 104.27 8.91184 103.502 9.77584C102.734 10.6238 102.35 11.8318 102.35 13.3998C102.35 14.9838 102.734 16.2078 103.502 17.0718C104.27 17.9358 105.278 18.3678 106.526 18.3678C107.486 18.3678 108.286 18.1438 108.926 17.6958C109.566 17.2478 110.006 16.6078 110.246 15.7758H112.598C112.246 17.1198 111.542 18.1998 110.486 19.0158C109.43 19.8158 108.11 20.2158 106.526 20.2158C105.278 20.2158 104.166 19.9358 103.19 19.3758C102.23 18.8158 101.478 18.0238 100.934 16.9998C100.39 15.9758 100.118 14.7758 100.118 13.3998Z" fill="white"/>
<path d="M92.1522 20.1679C91.0482 20.1679 90.0562 19.9759 89.1762 19.5919C88.3122 19.1919 87.6322 18.6479 87.1362 17.9599C86.6402 17.2559 86.3842 16.4479 86.3682 15.5359H88.6962C88.7762 16.3199 89.0962 16.9839 89.6562 17.5279C90.2322 18.0559 91.0642 18.3199 92.1522 18.3199C93.1922 18.3199 94.0082 18.0639 94.6002 17.5519C95.2082 17.0239 95.5122 16.3519 95.5122 15.5359C95.5122 14.8959 95.3362 14.3759 94.9842 13.9759C94.6322 13.5759 94.1922 13.2719 93.6642 13.0639C93.1362 12.8559 92.4242 12.6319 91.5282 12.3919C90.4242 12.1039 89.5362 11.8159 88.8642 11.5279C88.2082 11.2399 87.6402 10.7919 87.1602 10.1839C86.6962 9.55991 86.4642 8.72791 86.4642 7.68791C86.4642 6.77591 86.6962 5.96791 87.1602 5.26391C87.6242 4.55991 88.2722 4.01591 89.1042 3.63191C89.9522 3.24791 90.9202 3.05591 92.0082 3.05591C93.5762 3.05591 94.8562 3.44791 95.8482 4.23191C96.8562 5.01591 97.4242 6.05591 97.5522 7.35191H95.1522C95.0722 6.71191 94.7362 6.15191 94.1442 5.67191C93.5522 5.17591 92.7682 4.92791 91.7922 4.92791C90.8802 4.92791 90.1362 5.16791 89.5602 5.64791C88.9842 6.11191 88.6962 6.76791 88.6962 7.61591C88.6962 8.22391 88.8642 8.71991 89.2002 9.10391C89.5522 9.48791 89.9762 9.78391 90.4722 9.99191C90.9842 10.1839 91.6962 10.4079 92.6082 10.6639C93.7122 10.9679 94.6002 11.2719 95.2722 11.5759C95.9442 11.8639 96.5202 12.3199 97.0002 12.9439C97.4802 13.5519 97.7202 14.3839 97.7202 15.4399C97.7202 16.2559 97.5042 17.0239 97.0722 17.7439C96.6402 18.4639 96.0002 19.0479 95.1522 19.4959C94.3042 19.9439 93.3042 20.1679 92.1522 20.1679Z" fill="white"/>
<path d="M223.075 47L217.915 41.192V47H215.731V29.24H217.915V39.68L222.979 33.848H226.027L219.835 40.4L226.051 47H223.075Z" fill="#81BD52"/>
<path d="M208.962 35.9839C209.346 35.2319 209.89 34.6479 210.594 34.2319C211.314 33.8159 212.186 33.6079 213.21 33.6079V35.8639H212.634C210.186 35.8639 208.962 37.1919 208.962 39.8479V46.9999H206.778V33.8479H208.962V35.9839Z" fill="#81BD52"/>
<path d="M197.162 47.2161C195.93 47.2161 194.81 46.9361 193.802 46.3761C192.81 45.8161 192.026 45.0241 191.45 44.0001C190.89 42.9601 190.61 41.7601 190.61 40.4001C190.61 39.0561 190.898 37.8721 191.474 36.8481C192.066 35.8081 192.866 35.0161 193.874 34.4721C194.882 33.9121 196.01 33.6321 197.258 33.6321C198.506 33.6321 199.634 33.9121 200.642 34.4721C201.65 35.0161 202.442 35.8001 203.018 36.8241C203.61 37.8481 203.906 39.0401 203.906 40.4001C203.906 41.7601 203.602 42.9601 202.994 44.0001C202.402 45.0241 201.594 45.8161 200.57 46.3761C199.546 46.9361 198.41 47.2161 197.162 47.2161ZM197.162 45.2961C197.946 45.2961 198.682 45.1121 199.37 44.7441C200.058 44.3761 200.61 43.8241 201.026 43.0881C201.458 42.3521 201.674 41.4561 201.674 40.4001C201.674 39.3441 201.466 38.4481 201.05 37.7121C200.634 36.9761 200.09 36.4321 199.418 36.0801C198.746 35.7121 198.018 35.5281 197.234 35.5281C196.434 35.5281 195.698 35.7121 195.026 36.0801C194.37 36.4321 193.842 36.9761 193.442 37.7121C193.042 38.4481 192.842 39.3441 192.842 40.4001C192.842 41.4721 193.034 42.3761 193.418 43.1121C193.818 43.8481 194.346 44.4001 195.002 44.7681C195.658 45.1201 196.378 45.2961 197.162 45.2961Z" fill="#81BD52"/>
<path d="M189.259 33.8479L185.155 46.9999H182.899L179.731 36.5599L176.563 46.9999H174.307L170.179 33.8479H172.411L175.435 44.8879L178.699 33.8479H180.931L184.123 44.9119L187.099 33.8479H189.259Z" fill="#81BD52"/>
<path d="M165.66 35.6479V43.3999C165.66 44.0399 165.796 44.4959 166.068 44.7679C166.34 45.0239 166.812 45.1519 167.484 45.1519H169.092V46.9999H167.124C165.908 46.9999 164.996 46.7199 164.388 46.1599C163.78 45.5999 163.476 44.6799 163.476 43.3999V35.6479H161.772V33.8479H163.476V30.5359H165.66V33.8479H169.092V35.6479H165.66Z" fill="#81BD52"/>
<path d="M160.114 39.9201C160.114 40.3361 160.09 40.7761 160.042 41.2401H149.53C149.61 42.5361 150.05 43.5521 150.85 44.2881C151.666 45.0081 152.65 45.3681 153.802 45.3681C154.746 45.3681 155.53 45.1521 156.154 44.7201C156.794 44.2721 157.242 43.6801 157.498 42.9441H159.85C159.498 44.2081 158.794 45.2401 157.738 46.0401C156.682 46.8241 155.37 47.2161 153.802 47.2161C152.554 47.2161 151.434 46.9361 150.442 46.3761C149.466 45.8161 148.698 45.0241 148.138 44.0001C147.578 42.9601 147.298 41.7601 147.298 40.4001C147.298 39.0401 147.57 37.8481 148.114 36.8241C148.658 35.8001 149.418 35.0161 150.394 34.4721C151.386 33.9121 152.522 33.6321 153.802 33.6321C155.05 33.6321 156.154 33.9041 157.114 34.4481C158.074 34.9921 158.81 35.7441 159.322 36.7041C159.85 37.6481 160.114 38.7201 160.114 39.9201ZM157.858 39.4641C157.858 38.6321 157.674 37.9201 157.306 37.3281C156.938 36.7201 156.434 36.2641 155.794 35.9601C155.17 35.6401 154.474 35.4801 153.706 35.4801C152.602 35.4801 151.658 35.8321 150.874 36.5361C150.106 37.2401 149.666 38.2161 149.554 39.4641H157.858Z" fill="#81BD52"/>
<path d="M144.391 47H142.207L133.423 33.68V47H131.239V30.248H133.423L142.207 43.544V30.248H144.391V47Z" fill="#81BD52"/>
<path d="M114.204 40.376C114.204 39.032 114.476 37.856 115.02 36.848C115.564 35.824 116.308 35.032 117.252 34.472C118.212 33.912 119.284 33.632 120.468 33.632C121.492 33.632 122.444 33.872 123.324 34.352C124.204 34.816 124.876 35.432 125.34 36.2V29.24H127.548V47H125.34V44.528C124.908 45.312 124.268 45.96 123.42 46.472C122.572 46.968 121.58 47.216 120.444 47.216C119.276 47.216 118.212 46.928 117.252 46.352C116.308 45.776 115.564 44.968 115.02 43.928C114.476 42.888 114.204 41.704 114.204 40.376ZM125.34 40.4C125.34 39.408 125.14 38.544 124.74 37.808C124.34 37.072 123.796 36.512 123.108 36.128C122.436 35.728 121.692 35.528 120.876 35.528C120.06 35.528 119.316 35.72 118.644 36.104C117.972 36.488 117.436 37.048 117.036 37.784C116.636 38.52 116.436 39.384 116.436 40.376C116.436 41.384 116.636 42.264 117.036 43.016C117.436 43.752 117.972 44.32 118.644 44.72C119.316 45.104 120.06 45.296 120.876 45.296C121.692 45.296 122.436 45.104 123.108 44.72C123.796 44.32 124.34 43.752 124.74 43.016C125.14 42.264 125.34 41.392 125.34 40.4Z" fill="#81BD52"/>
<path d="M108.736 43.2799H101.44L100.096 46.9999H97.792L103.84 30.3679H106.36L112.384 46.9999H110.08L108.736 43.2799ZM108.112 41.5039L105.088 33.0559L102.064 41.5039H108.112Z" fill="#81BD52"/>
<path d="M4.7373 28.8916L33.6843 52.8917L13.1587 45.3127L4.7373 28.8916Z" fill="#3F7F1C"/>
<path d="M6.52686 27.1016L19.6843 31.5226L27.1583 44.5751L6.52686 27.1016Z" fill="#81BD52"/>
<path d="M0 11.3123C0.295439 12.7317 1.03237 14.0213 2.10531 14.9964C3.7895 16.3648 7.76318 16.2596 7.76318 16.2596L3.47371 12.7859L0 11.3123Z" fill="#3F7F1C"/>
<path d="M6 10.6804L9.5787 16.0489L11.5793 16.5755L11.8686 13.9698L6 10.6804Z" fill="#3F7F1C"/>
<path d="M13.4745 15.2065L13.2637 20.0492L20.6319 29.8387L20.3161 25.1019L13.4745 15.2065Z" fill="#3F7F1C"/>
<path d="M25.895 17.3119L34.9471 48.4702V1.83813L25.895 17.3119Z" fill="#3F7F1C"/>
<path d="M31.0526 1.94419L26.553 1.10181L24.7368 6.99602L25.0526 8.57498L31.0526 1.94419Z" fill="#3F7F1C"/>
<path d="M25.5261 0.864502L23.1577 2.20703L24.0265 5.60137L25.5261 0.864502Z" fill="#3F7F1C"/>
<path d="M11.4736 6.78589L10.0005 9.41721V11.7327L12.421 9.62801L11.4736 6.78589Z" fill="#81BD52"/>
<path d="M21.4072 24.8876L21.79 30.0486L26.211 23.207L25.1033 18.7214L21.4072 24.8876Z" fill="#3F7F1C"/>
<path d="M65.2634 28.8916L36.3164 52.8917L56.8428 45.3127L65.2634 28.8916Z" fill="#81BD52"/>
<path d="M63.474 27.1016L50.3158 31.5226L42.8418 44.5751L63.474 27.1016Z" fill="#3F7F1C"/>
<path d="M70 11.3123C69.7046 12.7317 68.9676 14.0213 67.8947 14.9964C66.2105 16.3648 62.2368 16.2596 62.2368 16.2596L66.5263 12.7859L70 11.3123Z" fill="#81BD52"/>
<path d="M63.9999 10.6804L60.4213 16.0489L58.4215 16.5755L58.1313 13.9698L63.9999 10.6804Z" fill="#3F7F1C"/>
<path d="M56.5264 15.2065L56.7364 20.0492L49.3682 29.8387L49.684 25.1019L56.5264 15.2065Z" fill="#3F7F1C"/>
<path d="M44.1049 17.3119L35.0527 48.4702V1.83813L44.1049 17.3119Z" fill="#81BD52"/>
<path d="M38.9473 1.94419L43.4469 1.10181L45.2631 6.99602L44.9473 8.57498L38.9473 1.94419Z" fill="#81BD52"/>
<path d="M44.4736 0.864502L46.8421 2.20703L45.9732 5.60137L44.4736 0.864502Z" fill="#81BD52"/>
<path d="M58.5265 6.78589L60.0004 9.41721V11.7327L57.5791 9.62801L58.5265 6.78589Z" fill="#3F7F1C"/>
<path d="M48.5929 24.8876L48.2101 30.0486L43.7891 23.207L44.8968 18.7214L48.5929 24.8876Z" fill="#81BD52"/>
</svg>
