<svg width="238" height="63" viewBox="0 0 238 63" fill="none" xmlns="http://www.w3.org/2000/svg">
<path d="M92.152 26.168C91.048 26.168 90.056 25.976 89.176 25.592C88.312 25.192 87.632 24.648 87.136 23.96C86.64 23.256 86.384 22.448 86.368 21.536H88.696C88.776 22.32 89.096 22.984 89.656 23.528C90.232 24.056 91.064 24.32 92.152 24.32C93.192 24.32 94.008 24.064 94.6 23.552C95.208 23.024 95.512 22.352 95.512 21.536C95.512 20.896 95.336 20.376 94.984 19.976C94.632 19.576 94.192 19.272 93.664 19.064C93.136 18.856 92.424 18.632 91.528 18.392C90.424 18.104 89.536 17.816 88.864 17.528C88.208 17.24 87.64 16.792 87.16 16.184C86.696 15.56 86.464 14.728 86.464 13.688C86.464 12.776 86.696 11.968 87.16 11.264C87.624 10.56 88.272 10.016 89.104 9.632C89.952 9.248 90.92 9.056 92.008 9.056C93.576 9.056 94.856 9.448 95.848 10.232C96.856 11.016 97.424 12.056 97.552 13.352H95.152C95.072 12.712 94.736 12.152 94.144 11.672C93.552 11.176 92.768 10.928 91.792 10.928C90.88 10.928 90.136 11.168 89.56 11.648C88.984 12.112 88.696 12.768 88.696 13.616C88.696 14.224 88.864 14.72 89.2 15.104C89.552 15.488 89.976 15.784 90.472 15.992C90.984 16.184 91.696 16.408 92.608 16.664C93.712 16.968 94.6 17.272 95.272 17.576C95.944 17.864 96.52 18.32 97 18.944C97.48 19.552 97.72 20.384 97.72 21.44C97.72 22.256 97.504 23.024 97.072 23.744C96.64 24.464 96 25.048 95.152 25.496C94.304 25.944 93.304 26.168 92.152 26.168ZM100.118 19.4C100.118 18.04 100.39 16.856 100.934 15.848C101.478 14.824 102.23 14.032 103.19 13.472C104.166 12.912 105.278 12.632 106.526 12.632C108.142 12.632 109.47 13.024 110.51 13.808C111.566 14.592 112.262 15.68 112.598 17.072H110.246C110.022 16.272 109.582 15.64 108.926 15.176C108.286 14.712 107.486 14.48 106.526 14.48C105.278 14.48 104.27 14.912 103.502 15.776C102.734 16.624 102.35 17.832 102.35 19.4C102.35 20.984 102.734 22.208 103.502 23.072C104.27 23.936 105.278 24.368 106.526 24.368C107.486 24.368 108.286 24.144 108.926 23.696C109.566 23.248 110.006 22.608 110.246 21.776H112.598C112.246 23.12 111.542 24.2 110.486 25.016C109.43 25.816 108.11 26.216 106.526 26.216C105.278 26.216 104.166 25.936 103.19 25.376C102.23 24.816 101.478 24.024 100.934 23C100.39 21.976 100.118 20.776 100.118 19.4ZM117.696 14.984C118.08 14.232 118.624 13.648 119.328 13.232C120.048 12.816 120.92 12.608 121.944 12.608V14.864H121.368C118.92 14.864 117.696 16.192 117.696 18.848V26H115.512V12.848H117.696V14.984ZM130.201 26.216C128.969 26.216 127.849 25.936 126.841 25.376C125.849 24.816 125.065 24.024 124.489 23C123.929 21.96 123.649 20.76 123.649 19.4C123.649 18.056 123.937 16.872 124.513 15.848C125.105 14.808 125.905 14.016 126.913 13.472C127.921 12.912 129.049 12.632 130.297 12.632C131.545 12.632 132.673 12.912 133.681 13.472C134.689 14.016 135.481 14.8 136.057 15.824C136.649 16.848 136.945 18.04 136.945 19.4C136.945 20.76 136.641 21.96 136.033 23C135.441 24.024 134.633 24.816 133.609 25.376C132.585 25.936 131.449 26.216 130.201 26.216ZM130.201 24.296C130.985 24.296 131.721 24.112 132.409 23.744C133.097 23.376 133.649 22.824 134.065 22.088C134.497 21.352 134.713 20.456 134.713 19.4C134.713 18.344 134.505 17.448 134.089 16.712C133.673 15.976 133.129 15.432 132.457 15.08C131.785 14.712 131.057 14.528 130.273 14.528C129.473 14.528 128.737 14.712 128.065 15.08C127.409 15.432 126.881 15.976 126.481 16.712C126.081 17.448 125.881 18.344 125.881 19.4C125.881 20.472 126.073 21.376 126.457 22.112C126.857 22.848 127.385 23.4 128.041 23.768C128.697 24.12 129.417 24.296 130.201 24.296ZM145.553 26.216C144.321 26.216 143.201 25.936 142.193 25.376C141.201 24.816 140.417 24.024 139.841 23C139.281 21.96 139.001 20.76 139.001 19.4C139.001 18.056 139.289 16.872 139.865 15.848C140.457 14.808 141.257 14.016 142.265 13.472C143.273 12.912 144.401 12.632 145.649 12.632C146.897 12.632 148.025 12.912 149.033 13.472C150.041 14.016 150.833 14.8 151.409 15.824C152.001 16.848 152.297 18.04 152.297 19.4C152.297 20.76 151.993 21.96 151.385 23C150.793 24.024 149.985 24.816 148.961 25.376C147.937 25.936 146.801 26.216 145.553 26.216ZM145.553 24.296C146.337 24.296 147.073 24.112 147.761 23.744C148.449 23.376 149.001 22.824 149.417 22.088C149.849 21.352 150.065 20.456 150.065 19.4C150.065 18.344 149.857 17.448 149.441 16.712C149.025 15.976 148.481 15.432 147.809 15.08C147.137 14.712 146.409 14.528 145.625 14.528C144.825 14.528 144.089 14.712 143.417 15.08C142.761 15.432 142.233 15.976 141.833 16.712C141.433 17.448 141.233 18.344 141.233 19.4C141.233 20.472 141.425 21.376 141.809 22.112C142.209 22.848 142.737 23.4 143.393 23.768C144.049 24.12 144.769 24.296 145.553 24.296ZM160.592 12.632C161.728 12.632 162.72 12.88 163.568 13.376C164.432 13.872 165.072 14.496 165.488 15.248V12.848H167.696V26.288C167.696 27.488 167.44 28.552 166.928 29.48C166.416 30.424 165.68 31.16 164.72 31.688C163.776 32.216 162.672 32.48 161.408 32.48C159.68 32.48 158.24 32.072 157.088 31.256C155.936 30.44 155.256 29.328 155.048 27.92H157.208C157.448 28.72 157.944 29.36 158.696 29.84C159.448 30.336 160.352 30.584 161.408 30.584C162.608 30.584 163.584 30.208 164.336 29.456C165.104 28.704 165.488 27.648 165.488 26.288V23.528C165.056 24.296 164.416 24.936 163.568 25.448C162.72 25.96 161.728 26.216 160.592 26.216C159.424 26.216 158.36 25.928 157.4 25.352C156.456 24.776 155.712 23.968 155.168 22.928C154.624 21.888 154.352 20.704 154.352 19.376C154.352 18.032 154.624 16.856 155.168 15.848C155.712 14.824 156.456 14.032 157.4 13.472C158.36 12.912 159.424 12.632 160.592 12.632ZM165.488 19.4C165.488 18.408 165.288 17.544 164.888 16.808C164.488 16.072 163.944 15.512 163.256 15.128C162.584 14.728 161.84 14.528 161.024 14.528C160.208 14.528 159.464 14.72 158.792 15.104C158.12 15.488 157.584 16.048 157.184 16.784C156.784 17.52 156.584 18.384 156.584 19.376C156.584 20.384 156.784 21.264 157.184 22.016C157.584 22.752 158.12 23.32 158.792 23.72C159.464 24.104 160.208 24.296 161.024 24.296C161.84 24.296 162.584 24.104 163.256 23.72C163.944 23.32 164.488 22.752 164.888 22.016C165.288 21.264 165.488 20.392 165.488 19.4ZM183.387 18.92C183.387 19.336 183.363 19.776 183.315 20.24H172.803C172.883 21.536 173.323 22.552 174.123 23.288C174.939 24.008 175.923 24.368 177.075 24.368C178.019 24.368 178.803 24.152 179.427 23.72C180.067 23.272 180.515 22.68 180.771 21.944H183.123C182.771 23.208 182.067 24.24 181.011 25.04C179.955 25.824 178.643 26.216 177.075 26.216C175.827 26.216 174.707 25.936 173.715 25.376C172.739 24.816 171.971 24.024 171.411 23C170.851 21.96 170.571 20.76 170.571 19.4C170.571 18.04 170.843 16.848 171.387 15.824C171.931 14.8 172.691 14.016 173.667 13.472C174.659 12.912 175.795 12.632 177.075 12.632C178.323 12.632 179.427 12.904 180.387 13.448C181.347 13.992 182.083 14.744 182.595 15.704C183.123 16.648 183.387 17.72 183.387 18.92ZM181.131 18.464C181.131 17.632 180.947 16.92 180.579 16.328C180.211 15.72 179.707 15.264 179.067 14.96C178.443 14.64 177.747 14.48 176.979 14.48C175.875 14.48 174.931 14.832 174.147 15.536C173.379 16.24 172.939 17.216 172.827 18.464H181.131ZM195.726 9.272V11.048H188.454V16.688H194.358V18.464H188.454V26H186.27V9.272H195.726ZM200.548 14.984C200.932 14.232 201.476 13.648 202.18 13.232C202.9 12.816 203.772 12.608 204.796 12.608V14.864H204.22C201.772 14.864 200.548 16.192 200.548 18.848V26H198.364V12.848H200.548V14.984ZM213.053 26.216C211.821 26.216 210.701 25.936 209.693 25.376C208.701 24.816 207.917 24.024 207.341 23C206.781 21.96 206.501 20.76 206.501 19.4C206.501 18.056 206.789 16.872 207.365 15.848C207.957 14.808 208.757 14.016 209.765 13.472C210.773 12.912 211.901 12.632 213.149 12.632C214.397 12.632 215.525 12.912 216.533 13.472C217.541 14.016 218.333 14.8 218.909 15.824C219.501 16.848 219.797 18.04 219.797 19.4C219.797 20.76 219.493 21.96 218.885 23C218.293 24.024 217.485 24.816 216.461 25.376C215.437 25.936 214.301 26.216 213.053 26.216ZM213.053 24.296C213.837 24.296 214.573 24.112 215.261 23.744C215.949 23.376 216.501 22.824 216.917 22.088C217.349 21.352 217.565 20.456 217.565 19.4C217.565 18.344 217.357 17.448 216.941 16.712C216.525 15.976 215.981 15.432 215.309 15.08C214.637 14.712 213.909 14.528 213.125 14.528C212.325 14.528 211.589 14.712 210.917 15.08C210.261 15.432 209.733 15.976 209.333 16.712C208.933 17.448 208.733 18.344 208.733 19.4C208.733 20.472 208.925 21.376 209.309 22.112C209.709 22.848 210.237 23.4 210.893 23.768C211.549 24.12 212.269 24.296 213.053 24.296ZM228.092 12.632C229.228 12.632 230.22 12.88 231.068 13.376C231.932 13.872 232.572 14.496 232.988 15.248V12.848H235.196V26.288C235.196 27.488 234.94 28.552 234.428 29.48C233.916 30.424 233.18 31.16 232.22 31.688C231.276 32.216 230.172 32.48 228.908 32.48C227.18 32.48 225.74 32.072 224.588 31.256C223.436 30.44 222.756 29.328 222.548 27.92H224.708C224.948 28.72 225.444 29.36 226.196 29.84C226.948 30.336 227.852 30.584 228.908 30.584C230.108 30.584 231.084 30.208 231.836 29.456C232.604 28.704 232.988 27.648 232.988 26.288V23.528C232.556 24.296 231.916 24.936 231.068 25.448C230.22 25.96 229.228 26.216 228.092 26.216C226.924 26.216 225.86 25.928 224.9 25.352C223.956 24.776 223.212 23.968 222.668 22.928C222.124 21.888 221.852 20.704 221.852 19.376C221.852 18.032 222.124 16.856 222.668 15.848C223.212 14.824 223.956 14.032 224.9 13.472C225.86 12.912 226.924 12.632 228.092 12.632ZM232.988 19.4C232.988 18.408 232.788 17.544 232.388 16.808C231.988 16.072 231.444 15.512 230.756 15.128C230.084 14.728 229.34 14.528 228.524 14.528C227.708 14.528 226.964 14.72 226.292 15.104C225.62 15.488 225.084 16.048 224.684 16.784C224.284 17.52 224.084 18.384 224.084 19.376C224.084 20.384 224.284 21.264 224.684 22.016C225.084 22.752 225.62 23.32 226.292 23.72C226.964 24.104 227.708 24.296 228.524 24.296C229.34 24.296 230.084 24.104 230.756 23.72C231.444 23.32 231.988 22.752 232.388 22.016C232.788 21.264 232.988 20.392 232.988 19.4Z" fill="white"/>
<path d="M108.736 49.28H101.44L100.096 53H97.792L103.84 36.368H106.36L112.384 53H110.08L108.736 49.28ZM108.112 47.504L105.088 39.056L102.064 47.504H108.112ZM114.204 46.376C114.204 45.032 114.476 43.856 115.02 42.848C115.564 41.824 116.308 41.032 117.252 40.472C118.212 39.912 119.284 39.632 120.468 39.632C121.492 39.632 122.444 39.872 123.324 40.352C124.204 40.816 124.876 41.432 125.34 42.2V35.24H127.548V53H125.34V50.528C124.908 51.312 124.268 51.96 123.42 52.472C122.572 52.968 121.58 53.216 120.444 53.216C119.276 53.216 118.212 52.928 117.252 52.352C116.308 51.776 115.564 50.968 115.02 49.928C114.476 48.888 114.204 47.704 114.204 46.376ZM125.34 46.4C125.34 45.408 125.14 44.544 124.74 43.808C124.34 43.072 123.796 42.512 123.108 42.128C122.436 41.728 121.692 41.528 120.876 41.528C120.06 41.528 119.316 41.72 118.644 42.104C117.972 42.488 117.436 43.048 117.036 43.784C116.636 44.52 116.436 45.384 116.436 46.376C116.436 47.384 116.636 48.264 117.036 49.016C117.436 49.752 117.972 50.32 118.644 50.72C119.316 51.104 120.06 51.296 120.876 51.296C121.692 51.296 122.436 51.104 123.108 50.72C123.796 50.32 124.34 49.752 124.74 49.016C125.14 48.264 125.34 47.392 125.34 46.4ZM144.391 53H142.207L133.423 39.68V53H131.239V36.248H133.423L142.207 49.544V36.248H144.391V53ZM160.114 45.92C160.114 46.336 160.09 46.776 160.042 47.24H149.53C149.61 48.536 150.05 49.552 150.85 50.288C151.666 51.008 152.65 51.368 153.802 51.368C154.746 51.368 155.53 51.152 156.154 50.72C156.794 50.272 157.242 49.68 157.498 48.944H159.85C159.498 50.208 158.794 51.24 157.738 52.04C156.682 52.824 155.37 53.216 153.802 53.216C152.554 53.216 151.434 52.936 150.442 52.376C149.466 51.816 148.698 51.024 148.138 50C147.578 48.96 147.298 47.76 147.298 46.4C147.298 45.04 147.57 43.848 148.114 42.824C148.658 41.8 149.418 41.016 150.394 40.472C151.386 39.912 152.522 39.632 153.802 39.632C155.05 39.632 156.154 39.904 157.114 40.448C158.074 40.992 158.81 41.744 159.322 42.704C159.85 43.648 160.114 44.72 160.114 45.92ZM157.858 45.464C157.858 44.632 157.674 43.92 157.306 43.328C156.938 42.72 156.434 42.264 155.794 41.96C155.17 41.64 154.474 41.48 153.706 41.48C152.602 41.48 151.658 41.832 150.874 42.536C150.106 43.24 149.666 44.216 149.554 45.464H157.858ZM165.66 41.648V49.4C165.66 50.04 165.796 50.496 166.068 50.768C166.34 51.024 166.812 51.152 167.484 51.152H169.092V53H167.124C165.908 53 164.996 52.72 164.388 52.16C163.78 51.6 163.476 50.68 163.476 49.4V41.648H161.772V39.848H163.476V36.536H165.66V39.848H169.092V41.648H165.66ZM189.259 39.848L185.155 53H182.899L179.731 42.56L176.563 53H174.307L170.179 39.848H172.411L175.435 50.888L178.699 39.848H180.931L184.123 50.912L187.099 39.848H189.259ZM197.162 53.216C195.93 53.216 194.81 52.936 193.802 52.376C192.81 51.816 192.026 51.024 191.45 50C190.89 48.96 190.61 47.76 190.61 46.4C190.61 45.056 190.898 43.872 191.474 42.848C192.066 41.808 192.866 41.016 193.874 40.472C194.882 39.912 196.01 39.632 197.258 39.632C198.506 39.632 199.634 39.912 200.642 40.472C201.65 41.016 202.442 41.8 203.018 42.824C203.61 43.848 203.906 45.04 203.906 46.4C203.906 47.76 203.602 48.96 202.994 50C202.402 51.024 201.594 51.816 200.57 52.376C199.546 52.936 198.41 53.216 197.162 53.216ZM197.162 51.296C197.946 51.296 198.682 51.112 199.37 50.744C200.058 50.376 200.61 49.824 201.026 49.088C201.458 48.352 201.674 47.456 201.674 46.4C201.674 45.344 201.466 44.448 201.05 43.712C200.634 42.976 200.09 42.432 199.418 42.08C198.746 41.712 198.018 41.528 197.234 41.528C196.434 41.528 195.698 41.712 195.026 42.08C194.37 42.432 193.842 42.976 193.442 43.712C193.042 44.448 192.842 45.344 192.842 46.4C192.842 47.472 193.034 48.376 193.418 49.112C193.818 49.848 194.346 50.4 195.002 50.768C195.658 51.12 196.378 51.296 197.162 51.296ZM208.962 41.984C209.346 41.232 209.89 40.648 210.594 40.232C211.314 39.816 212.186 39.608 213.21 39.608V41.864H212.634C210.186 41.864 208.962 43.192 208.962 45.848V53H206.778V39.848H208.962V41.984ZM223.075 53L217.915 47.192V53H215.731V35.24H217.915V45.68L222.979 39.848H226.027L219.835 46.4L226.051 53H223.075Z" fill="#81BD52"/>
<path d="M4.7373 34.8915L33.6843 58.8916L13.1587 51.3126L4.7373 34.8915Z" fill="#3F7F1C"/>
<path d="M6.52637 33.1017L19.6838 37.5228L27.1578 50.5752L6.52637 33.1017Z" fill="#81BD52"/>
<path d="M0 17.3123C0.295439 18.7317 1.03237 20.0213 2.10531 20.9965C3.7895 22.3649 7.76318 22.2596 7.76318 22.2596L3.47371 18.7859L0 17.3123Z" fill="#3F7F1C"/>
<path d="M6 16.6805L9.5787 22.0489L11.5793 22.5755L11.8686 19.9698L6 16.6805Z" fill="#3F7F1C"/>
<path d="M13.4745 21.2065L13.2637 26.0492L20.6319 35.8387L20.3161 31.1019L13.4745 21.2065Z" fill="#3F7F1C"/>
<path d="M25.8945 23.312L34.9467 54.4704V7.83826L25.8945 23.312Z" fill="#3F7F1C"/>
<path d="M31.0522 7.94419L26.5525 7.10181L24.7363 12.996L25.0521 14.575L31.0522 7.94419Z" fill="#3F7F1C"/>
<path d="M25.5266 6.8645L23.1582 8.20703L24.027 11.6014L25.5266 6.8645Z" fill="#3F7F1C"/>
<path d="M11.4731 12.7859L10 15.4172V17.7327L12.4205 15.628L11.4731 12.7859Z" fill="#81BD52"/>
<path d="M21.4072 30.8876L21.79 36.0486L26.211 29.207L25.1033 24.7214L21.4072 30.8876Z" fill="#3F7F1C"/>
<path d="M65.2634 34.8915L36.3164 58.8916L56.8428 51.3126L65.2634 34.8915Z" fill="#81BD52"/>
<path d="M63.474 33.1017L50.3158 37.5227L42.8418 50.5752L63.474 33.1017Z" fill="#3F7F1C"/>
<path d="M69.9995 17.3123C69.7041 18.7317 68.9671 20.0213 67.8942 20.9964C66.21 22.3648 62.2363 22.2596 62.2363 22.2596L66.5258 18.7859L69.9995 17.3123Z" fill="#81BD52"/>
<path d="M64.0004 16.6804L60.4217 22.0489L58.422 22.5755L58.1318 19.9698L64.0004 16.6804Z" fill="#3F7F1C"/>
<path d="M56.5264 21.2065L56.7364 26.0492L49.3682 35.8387L49.684 31.1019L56.5264 21.2065Z" fill="#3F7F1C"/>
<path d="M44.1049 23.312L35.0527 54.4703V7.83823L44.1049 23.312Z" fill="#81BD52"/>
<path d="M38.9473 7.94416L43.4469 7.10178L45.2631 12.996L44.9473 14.5749L38.9473 7.94416Z" fill="#81BD52"/>
<path d="M44.4736 6.8645L46.8421 8.20703L45.9732 11.6014L44.4736 6.8645Z" fill="#81BD52"/>
<path d="M58.5265 12.7859L60.0004 15.4172V17.7327L57.5791 15.628L58.5265 12.7859Z" fill="#3F7F1C"/>
<path d="M48.5929 30.8877L48.2101 36.0486L43.7891 29.207L44.8968 24.7215L48.5929 30.8877Z" fill="#81BD52"/>
</svg>
