<svg width="340" height="70" viewBox="0 0 340 70" fill="none" xmlns="http://www.w3.org/2000/svg">
<path d="M48.8887 58.2012C54.1035 57.9473 58.2246 58.2305 61.252 59.0508C54.7285 47.3906 51.0664 38.0742 50.2656 31.1016C49.4844 36.1211 46.9258 39.3242 42.5898 40.7109C38.2539 42.0977 34.6992 39.2168 31.9258 32.0684C28.8984 38.5918 24.9336 44.4902 20.0313 49.7637C22.5703 49.1973 25.1094 48.8262 27.6484 48.6504L25.8613 53.8652C17.6777 54.627 9.36719 56.9023 0.929688 60.6914C17.6289 46.1211 28.0098 31.043 32.0723 15.457C36.0762 29.8906 39.3965 36.4922 42.0332 35.2617C44.6699 34.0117 47.6484 24.5195 50.9688 6.78516C54.3086 32.6445 62.2578 52.4004 74.8164 66.0527C62.9609 63.5332 53.3223 62.6055 45.9004 63.2695L48.8887 58.2012ZM85.3047 31.5117C83.5469 28.1133 81.5938 23.5137 79.4453 17.7129C78.332 22.9277 76.9648 27.8105 75.3438 32.3613C80.2656 31.7363 83.5859 31.4531 85.3047 31.5117ZM86.8281 35.8184C84.2305 35.6621 79.9629 36.043 74.0254 36.9609C71.7012 41.8047 69.5625 45.0371 67.6094 46.6582L58.0586 48.4453C61.5156 45.9844 64.5332 42.3418 67.1113 37.5176L59.0254 38.9238L60.8125 34.8809L69.1035 32.9766C71.9551 26.5117 75.2559 16.7949 79.0059 3.82617C82.7559 15.2715 86.8086 24.4316 91.1641 31.3066L96.4375 31.4531C96.7305 24.7344 97.9609 19.2754 100.129 15.0762C99.2305 23.3574 99.9531 30.3887 102.297 36.1699L92.6289 35.9062C98.2734 45.1055 105.051 52.3711 112.961 57.7031C120.871 63.0352 111.174 65.9258 83.8691 66.375C56.5645 66.8438 55.1973 60.4375 79.7676 47.1562C64.5723 57.0195 65.9102 61.8633 83.7812 61.6875C101.672 61.5117 107.766 59.4805 102.062 55.5937C96.3594 51.707 91.2812 45.1152 86.8281 35.8184ZM139.064 10.9453L127.609 31.5117C127.199 17.7227 125.363 12.7227 122.102 16.5117C118.84 20.3008 116.711 23.0156 115.715 24.6562C114.719 26.2773 114.846 27.6055 116.096 28.6406C117.346 29.6758 120.51 30.9355 125.588 32.4199C130.686 33.8848 139.172 36.9219 151.047 41.5312C162.941 46.1211 167.619 50.5937 165.08 54.9492C162.561 59.2852 151.037 61.8535 130.51 62.6543C110.002 63.4746 99.7773 60.7988 99.8359 54.627C99.8945 48.4355 108.078 43.1133 124.387 38.6602C122.043 45.0859 120.871 49.5586 120.871 52.0781C120.891 54.5781 120.91 56.1699 120.93 56.8535C120.949 57.5371 120.266 57.127 118.879 55.623C117.512 54.0996 116.857 52.1465 116.916 49.7637C116.975 47.3809 117.258 46.0625 117.766 45.8086C108.449 49.8906 104.875 52.9863 107.043 55.0957C109.23 57.1855 118.479 57.7324 134.787 56.7363C151.115 55.7402 158.498 54.0312 156.936 51.6094C155.373 49.168 151.379 46.8047 144.953 44.5195C138.547 42.2148 131.506 39.9883 123.83 37.8398C116.174 35.6719 111.35 33.1719 109.357 30.3398C107.365 27.5078 110.295 21.8437 118.146 13.3477C126.018 4.83203 130.158 6.81445 130.568 19.2949L132.912 12.9082L139.064 10.9453ZM175.217 15.9844C177.268 15.9844 179.025 15.9648 180.49 15.9258C186.975 15.6719 190.646 15.5547 191.506 15.5742C192.365 15.5742 193.273 15.5547 194.23 15.5156C195.188 15.457 195.881 15.6133 196.311 15.9844C196.74 16.3555 196.828 17.5664 196.574 19.6172C196.34 21.6484 195.285 24.2266 193.41 27.3516C191.555 30.457 191.604 32.6738 193.557 34.002C195.51 35.3301 196.164 36.1602 195.52 36.4922L190.803 37.3418C190.354 37.3809 189.318 36.6094 187.697 35.0273C186.076 33.4453 186.154 31.043 187.932 27.8203C189.709 24.5977 189.992 23.0059 188.781 23.0449C187.59 23.0645 184.631 23.1719 179.904 23.3672C178.439 23.4258 176.633 23.4453 174.484 23.4258C174.406 24.5586 174.338 25.7402 174.279 26.9707C174.025 32.498 174.348 38.9336 175.246 46.2773C176.164 53.6211 176.838 58.6016 177.268 61.2187C177.717 63.8359 177.609 65.3887 176.945 65.877C176.301 66.3848 175.656 66.707 175.012 66.8437C174.387 67 173.488 66.9805 172.316 66.7852C171.145 66.5898 170.393 66.1602 170.061 65.4961C169.748 64.8516 168.889 57.5762 167.482 43.6699C167.209 35.291 167.141 28.3477 167.277 22.8398C166.867 22.7812 166.457 22.7227 166.047 22.6641C161.535 22.0195 158.391 21.3945 156.613 20.7891C158.43 25.5156 158.732 28.543 157.521 29.8711C156.311 31.1992 155.139 31.7949 154.006 31.6582L150.783 31.2773C149.748 30.8672 150.07 30.0371 151.75 28.7871C153.43 27.5176 153.488 25.457 151.926 22.6055C150.344 19.7344 149.279 16.9609 148.732 14.2852C148.693 12.6445 150.344 12.166 153.684 12.8496C157.023 13.5137 160.705 14.2559 164.729 15.0762C165.646 15.252 166.633 15.4082 167.688 15.5449C168.273 9.37305 169.357 6.58984 170.939 7.19531L174.396 7.72266C175.881 8.01562 176.291 9.91016 175.627 13.4062C175.49 14.207 175.354 15.0664 175.217 15.9844ZM217.639 4.41211C218.186 4.17773 219.113 4.1582 220.422 4.35352C221.73 4.5293 222.688 4.97852 223.293 5.70117C223.918 6.42383 224.279 7.49805 224.377 8.92383C224.475 10.3496 224.553 11.3457 224.611 11.9121C224.67 12.4785 224.475 14.0312 224.025 16.5703C223.596 19.1094 223.332 20.5937 223.234 21.0234C223.156 21.4531 223.029 21.9316 222.854 22.459C222.697 22.9668 222.561 23.582 222.443 24.3047C222.346 25.0273 222.189 25.457 221.975 25.5937C221.779 25.7305 220.881 25.7598 219.279 25.6816C217.678 25.6035 216.77 25.3789 216.555 25.0078C216.34 24.6172 216.545 22.8105 217.17 19.5879C217.814 16.3457 218.176 14.4805 218.254 13.9922C218.332 13.4844 218.361 12.9375 218.342 12.3516C218.322 11.7461 218.205 11.2383 217.99 10.8281C217.775 10.418 217.404 10.2031 216.877 10.1836C216.369 10.1445 215.314 10.4863 213.713 11.209C212.111 11.9316 210.686 12.8301 209.436 13.9043C208.186 14.959 207.248 15.8086 206.623 16.4531C205.998 17.0977 205.285 18.0645 204.484 19.3535C203.703 20.6426 203.244 21.5215 203.107 21.9902C202.99 22.4395 202.932 22.957 202.932 23.543C202.932 24.1289 203.029 24.627 203.225 25.0371C203.42 25.4277 203.732 25.7402 204.162 25.9746C204.611 26.1895 205.227 26.5117 206.008 26.9414C206.809 27.3516 209.279 27.9375 213.42 28.6992C217.58 29.4609 220.207 29.9687 221.301 30.2227C222.395 30.457 223.098 30.7305 223.41 31.043C223.742 31.3555 224.025 31.9121 224.26 32.7129C224.494 33.5137 224.406 34.0312 223.996 34.2656C223.605 34.5 223.127 34.7539 222.561 35.0273C221.994 35.3008 221.047 35.6133 219.719 35.9648C218.41 36.3164 217.248 36.541 216.232 36.6387C215.217 36.7363 214.592 36.8242 214.357 36.9023C214.143 36.9805 213.635 37.0586 212.834 37.1367C212.033 37.2148 211.545 37.293 211.369 37.3711C211.213 37.4492 209.924 37.6055 207.502 37.8398C205.08 38.0742 203.723 38.1816 203.43 38.1621C203.137 38.123 202.902 38.1426 202.727 38.2207C202.57 38.2988 202.15 38.377 201.467 38.4551C200.803 38.5137 200.295 38.5332 199.943 38.5137C199.592 38.4746 199.357 38.4941 199.24 38.5723C199.143 38.6309 198.918 38.6797 198.566 38.7187C198.234 38.7578 198.098 38.8262 198.156 38.9238C198.215 39.0215 198.303 39.0996 198.42 39.1582C198.557 39.2168 199.084 39.5977 200.002 40.3008C200.939 40.9844 201.711 41.6094 202.316 42.1758C202.941 42.7227 203.518 43.4941 204.045 44.4902C204.592 45.4863 205.129 46.8828 205.656 48.6797C206.184 50.4766 206.447 51.6387 206.447 52.166C206.467 52.6738 206.477 53.25 206.477 53.8945C206.496 54.5391 206.535 55.457 206.594 56.6484C206.672 57.8398 206.74 58.6016 206.799 58.9336C206.857 59.2852 206.955 59.7441 207.092 60.3105C207.229 60.8965 207.551 61.4141 208.059 61.8633C208.566 62.3125 209.074 62.5566 209.582 62.5957C210.09 62.6543 210.666 62.6543 211.311 62.5957C211.955 62.5566 212.844 62.3906 213.977 62.0977C215.129 61.8047 216.057 61.4043 216.76 60.8965C217.463 60.4082 218.02 60.0664 218.43 59.8711C218.84 59.6758 219.25 59.4316 219.66 59.1387C220.07 58.8652 220.803 58.3477 221.857 57.5859C222.932 56.8437 224.104 55.9844 225.373 55.0078C226.643 54.0117 227.414 53.3672 227.688 53.0742C227.961 52.7617 228.303 52.4395 228.713 52.1074C229.123 51.7559 229.621 51.2578 230.207 50.6133C230.812 49.9492 231.32 49.4121 231.73 49.002C232.16 48.5723 232.443 48.2402 232.58 48.0059C232.717 47.752 232.551 47.6543 232.082 47.7129C231.633 47.752 230.92 47.8203 229.943 47.918C228.986 47.9961 228.391 48.0254 228.156 48.0059C227.922 47.9668 227.375 47.9961 226.516 48.0937C225.676 48.1719 225.188 48.1914 225.051 48.1523C224.934 48.0937 224.787 48.1035 224.611 48.1816C224.455 48.2402 224.162 48.2793 223.732 48.2988C223.322 48.2988 222.834 48.2012 222.268 48.0059C221.721 47.791 222.102 47.1172 223.41 45.9844C224.738 44.8516 225.988 44.168 227.16 43.9336C228.352 43.6992 230.09 43.582 232.375 43.582C234.68 43.582 236.066 43.6113 236.535 43.6699C237.004 43.7285 237.58 43.8652 238.264 44.0801C238.967 44.2949 239.396 45.0078 239.553 46.2187C239.729 47.4102 239.367 48.6406 238.469 49.9102C237.57 51.1797 236.955 51.9414 236.623 52.1953C236.291 52.4297 236.047 52.7031 235.891 53.0156C235.754 53.3086 235.305 53.8262 234.543 54.5684C233.781 55.291 232.873 56.0625 231.818 56.8828C230.764 57.6836 230.061 58.2012 229.709 58.4355C229.377 58.6699 229.006 58.9629 228.596 59.3145C228.205 59.666 227.229 60.3691 225.666 61.4238C224.104 62.4785 223.137 63.1328 222.766 63.3867C222.414 63.6602 221.984 63.9043 221.477 64.1191C220.969 64.3535 220.51 64.6367 220.1 64.9687C219.689 65.3203 219.299 65.6035 218.928 65.8184C218.557 66.0527 218.117 66.2676 217.609 66.4629C217.121 66.6777 215.979 67.1172 214.182 67.7812C212.385 68.4453 211.291 68.8262 210.9 68.9238C210.51 69.0215 209.963 69.0117 209.26 68.8945C208.557 68.7969 207.99 68.6992 207.561 68.6016C207.131 68.5039 206.467 68.25 205.568 67.8398C204.67 67.4297 203.85 66.8828 203.107 66.1992C202.385 65.5156 201.906 64.7051 201.672 63.7676C201.457 62.8496 201.174 61.2285 200.822 58.9043C200.49 56.5996 200.324 55.2422 200.324 54.832C200.344 54.4219 200.324 53.9629 200.266 53.4551C200.227 52.9473 200.168 52.5859 200.09 52.3711C200.012 52.1367 199.924 51.8047 199.826 51.375C199.729 50.9453 199.543 50.1934 199.27 49.1191C199.016 48.0254 198.615 47.1074 198.068 46.3652C197.541 45.6035 196.945 44.9199 196.281 44.3145C195.637 43.6895 194.875 43.084 193.996 42.498C193.117 41.9121 191.818 41.3262 190.1 40.7402C188.381 40.1348 187.17 39.832 186.467 39.832C185.744 39.832 185.129 39.8125 184.621 39.7734C184.113 39.7148 183.732 38.8262 183.479 37.1074C183.225 35.3691 183.176 34.3633 183.332 34.0898C183.488 33.7969 183.83 33.6016 184.357 33.5039C184.865 33.3867 185.373 33.3184 185.881 33.2988C186.369 33.2793 186.77 33.2695 187.082 33.2695C187.395 33.25 187.834 33.2695 188.4 33.3281C188.947 33.3672 189.553 33.3574 190.217 33.2988C190.861 33.2402 192.58 33.2988 195.373 33.4746C198.186 33.6309 202.766 33.4648 209.113 32.9766C208.137 32.625 207.414 32.4297 206.945 32.3906C206.477 32.332 205.949 32.2344 205.363 32.0977C204.777 31.9609 204.26 31.873 203.811 31.834C203.361 31.7754 202.893 31.6484 202.404 31.4531C201.916 31.2383 201.486 31.0625 201.115 30.9258C200.764 30.7695 200.256 30.5156 199.592 30.1641C198.928 29.793 198.303 29.2656 197.717 28.582C197.15 27.8984 196.799 27.1465 196.662 26.3262C196.545 25.4863 196.535 24.8027 196.633 24.2754C196.73 23.748 196.945 23.0352 197.277 22.1367C197.609 21.2383 197.883 20.5254 198.098 19.998C198.312 19.4707 198.898 18.5039 199.855 17.0977C200.832 15.6719 201.428 14.8027 201.643 14.4902C201.857 14.1582 202.17 13.8066 202.58 13.4355C202.99 13.0645 204.221 12.0391 206.271 10.3594C208.342 8.66016 210.393 7.35156 212.424 6.43359C214.455 5.51562 215.695 5.00781 216.145 4.91016C216.594 4.8125 217.092 4.64648 217.639 4.41211ZM230.734 8.2207C232.648 9.00195 235.256 9.96875 238.557 11.1211C241.877 12.2734 244.631 13.2793 246.818 14.1387C249.006 14.9785 250.627 15.5254 251.682 15.7793C252.736 16.0332 253.781 16.2773 254.816 16.5117C255.852 16.7461 257.395 17.0684 259.445 17.4785C261.496 17.8887 263.029 18.3184 264.045 18.7676C265.08 19.2168 265.607 19.9297 265.627 20.9062C265.646 21.8828 265.012 22.8984 263.723 23.9531C262.434 24.9883 260.988 25.8867 259.387 26.6484C263.488 24.9687 265.92 23.9336 266.682 23.543C267.443 23.1328 267.99 22.8496 268.322 22.6934C268.674 22.5371 269.26 22.3125 270.08 22.0195C270.92 21.707 272.121 21.1797 273.684 20.4375C275.266 19.6953 276.389 19.1387 277.053 18.7676C277.736 18.377 278.869 17.8496 280.451 17.1855C282.033 16.502 283.176 16.248 283.879 16.4238C284.582 16.5801 285.266 17.5859 285.93 19.4414C286.613 21.2773 286.682 22.5176 286.135 23.1621C285.588 23.8066 285.178 24.2852 284.904 24.5977C284.631 24.8906 284.201 25.2617 283.615 25.7109C283.029 26.1602 281.74 27.5859 279.748 29.9883C277.756 32.3906 276.125 34.8613 274.855 37.4004C273.586 39.9199 272.541 42.2734 271.721 44.4609C270.9 46.6289 270.305 48.4746 269.934 49.998C269.562 51.5215 269.367 52.5957 269.348 53.2207C269.328 53.8457 269.309 54.5 269.289 55.1836C269.27 55.8672 269.299 56.668 269.377 57.5859C269.475 58.5234 269.631 59.8125 269.846 61.4531C270.061 63.1133 270.363 64.3047 270.754 65.0273C271.164 65.7695 270.363 66.2773 268.352 66.5508C266.359 66.8242 265.256 66.7949 265.041 66.4629C264.846 66.1504 264.66 65.7891 264.484 65.3789C264.309 64.9687 263.977 64.2559 263.488 63.2402C263 62.2246 262.609 60.7793 262.316 58.9043C262.023 57.0293 261.916 55.2422 261.994 53.543C262.072 51.8242 262.414 49.7051 263.02 47.1855C263.625 44.666 264.65 41.7266 266.096 38.3672C267.561 35.0078 268.762 32.6836 269.699 31.3945C270.637 30.1055 271.232 29.1094 271.486 28.4062C271.74 27.6836 265.002 30.2031 251.271 35.9648C252.463 37.3906 253.537 40.1641 254.494 44.2852L248.225 46.0723C247.502 43.0059 246.408 40.4082 244.943 38.2793C240.686 39.6074 238.127 40.3789 237.268 40.5937C236.428 40.7891 235.686 40.6133 235.041 40.0664C234.396 39.5 234.084 39.0508 234.104 38.7187C234.123 38.3867 234.25 38.0742 234.484 37.7812C234.719 37.4687 235.676 36.7656 237.355 35.6719C239.035 34.5586 240.715 33.5137 242.395 32.5371C240.52 28.3574 235.246 21.4922 226.574 11.9414L230.734 8.2207ZM238.293 16.4238C240.266 17.8496 243.391 22 247.668 28.875C253.039 26.082 256.037 24.207 256.662 23.25C257.287 22.293 255.959 21.5508 252.678 21.0234C249.396 20.4961 244.602 18.9629 238.293 16.4238ZM309.221 10.9453L297.766 31.5117C297.355 17.7227 295.52 12.7227 292.258 16.5117C288.996 20.3008 286.867 23.0156 285.871 24.6562C284.875 26.2773 285.002 27.6055 286.252 28.6406C287.502 29.6758 290.666 30.9355 295.744 32.4199C300.842 33.8848 309.328 36.9219 321.203 41.5312C333.098 46.1211 337.775 50.5937 335.236 54.9492C332.717 59.2852 321.193 61.8535 300.666 62.6543C280.158 63.4746 269.934 60.7988 269.992 54.627C270.051 48.4355 278.234 43.1133 294.543 38.6602C292.199 45.0859 291.027 49.5586 291.027 52.0781C291.047 54.5781 291.066 56.1699 291.086 56.8535C291.105 57.5371 290.422 57.127 289.035 55.623C287.668 54.0996 287.014 52.1465 287.072 49.7637C287.131 47.3809 287.414 46.0625 287.922 45.8086C278.605 49.8906 275.031 52.9863 277.199 55.0957C279.387 57.1855 288.635 57.7324 304.943 56.7363C321.271 55.7402 328.654 54.0312 327.092 51.6094C325.529 49.168 321.535 46.8047 315.109 44.5195C308.703 42.2148 301.662 39.9883 293.986 37.8398C286.33 35.6719 281.506 33.1719 279.514 30.3398C277.521 27.5078 280.451 21.8437 288.303 13.3477C296.174 4.83203 300.314 6.81445 300.725 19.2949L303.068 12.9082L309.221 10.9453Z" fill="black"/>
</svg>
